<?xml version="1.0" encoding="UTF-8"?>
<svg version="1.1" xmlns="http://www.w3.org/2000/svg" width="1890" height="830">
<path d="M0 0 C1.96550535 -0.02620432 3.93090967 -0.0619119 5.89605713 -0.10766602 C17.5125763 -0.35817164 26.48287908 -0.32220305 36.35073853 6.46032715 C37.16816528 7.00302246 37.98559204 7.54571777 38.82778931 8.1048584 C41.76570159 10.10244614 43.88823402 11.6859924 45.72964478 14.7689209 C47.69538429 18.03252217 50.1314656 20.69777706 52.72573853 23.46032715 C53.19495728 23.96821777 53.66417603 24.4761084 54.14761353 24.99938965 C63.46434303 35.03675017 72.68507669 40.39406242 85.35073853 45.46032715 C85.35073853 304.51032715 85.35073853 563.56032715 85.35073853 830.46032715 C-538.34926147 830.46032715 -1162.04926147 830.46032715 -1804.64926147 830.46032715 C-1804.64926147 576.03032715 -1804.64926147 321.60032715 -1804.64926147 59.46032715 C-1758.61426147 58.96532715 -1758.61426147 58.96532715 -1711.64926147 58.46032715 C-1710.32926147 57.47032715 -1709.00926147 56.48032715 -1707.64926147 55.46032715 C-1705.13490458 54.45962992 -1702.64082201 53.53122246 -1700.08676147 52.64782715 C-1695.17207527 50.89609059 -1690.68961485 49.0564842 -1686.21176147 46.33532715 C-1666.30757107 35.01667559 -1638.89871373 38.29844583 -1616.93441772 38.2923584 C-1615.57195963 38.29093067 -1614.2095017 38.28933381 -1612.84704399 38.28757286 C-1605.72797096 38.27838736 -1598.60891641 38.27423043 -1591.48983765 38.27502441 C-1584.89359867 38.27562734 -1578.29744089 38.26501603 -1571.70122248 38.24928075 C-1565.9945739 38.23616075 -1560.2879518 38.23084219 -1554.58128828 38.23147982 C-1551.19136538 38.23173296 -1547.80151535 38.2289828 -1544.41160774 38.21830177 C-1540.63667189 38.20846111 -1536.86194512 38.21139481 -1533.08700562 38.21740723 C-1531.43548241 38.20897797 -1531.43548241 38.20897797 -1529.75059509 38.20037842 C-1523.64115389 38.22499801 -1517.9380483 38.76317101 -1511.95203304 40.00542736 C-1500.15476862 42.3359117 -1490.94373137 39.4260916 -1480.94076538 33.49890137 C-1476.00473803 30.58934099 -1471.05465682 28.33000157 -1465.64926147 26.46032715 C-1464.77898315 26.1362085 -1463.90870483 25.81208984 -1463.01205444 25.47814941 C-1459.21436796 24.32869719 -1455.49333283 23.79290546 -1451.56332397 23.3861084 C-1450.78333038 23.30242508 -1450.00333679 23.21874176 -1449.19970703 23.13252258 C-1443.30018412 22.53891621 -1437.40962592 22.21441494 -1431.48519897 22.0032959 C-1430.62815369 21.97220734 -1429.7711084 21.94111877 -1428.88809204 21.90908813 C-1425.38718491 21.78675054 -1421.88659308 21.66928175 -1418.38461304 21.58215332 C-1408.50575371 21.32300267 -1399.71547836 20.58495265 -1390.35057068 17.32862854 C-1377.81399501 13.00120567 -1364.46125337 13.08320227 -1351.33676147 12.83532715 C-1349.66113899 12.7993803 -1347.98552052 12.76324522 -1346.30990601 12.72692871 C-1342.18312143 12.64086687 -1338.05622178 12.56818187 -1333.92910767 12.5 C-1331.80491552 12.46303577 -1329.68098286 12.41970763 -1327.55697632 12.37341309 C-1324.04604555 12.30098495 -1320.53568885 12.25066731 -1317.02426147 12.21032715 C-1315.53672363 12.17818115 -1315.53672363 12.17818115 -1314.01913452 12.14538574 C-1302.92465878 12.0940004 -1292.91940103 15.54152096 -1282.58676147 19.27282715 C-1274.54022106 22.13254802 -1266.47734454 24.85783759 -1258.29159546 27.2935791 C-1252.97991315 28.91304659 -1247.91231776 30.95709651 -1242.80136108 33.12463379 C-1237.56821934 35.34216291 -1232.29626434 37.46224225 -1227.02426147 39.58532715 C-1225.96980835 40.01458496 -1224.91535522 40.44384277 -1223.82894897 40.8861084 C-1201.67987924 49.79507828 -1179.68719825 50.45568139 -1156.05119324 50.4884491 C-1151.80148463 50.49800441 -1147.55210907 50.53354984 -1143.30255127 50.56942749 C-1141.18337422 50.57990522 -1139.06409286 50.57786705 -1136.94494629 50.56240845 C-1125.62504514 50.48265539 -1116.31605304 50.75848048 -1106.11499023 55.94723511 C-1099.71671891 59.15751285 -1094.00559726 59.36955723 -1086.96176147 59.21032715 C-1084.72875418 59.19243241 -1082.49560752 59.18674113 -1080.26254272 59.19470215 C-1079.30130493 59.17633301 -1078.34006714 59.15796387 -1077.34970093 59.13903809 C-1074.14158016 59.52072934 -1072.32297455 60.70051196 -1069.64926147 62.46032715 C-1061.28275333 64.01590906 -1052.97019791 61.2543274 -1044.95346069 59.08093262 C-1025.26593971 53.77836021 -1006.63850175 51.49763375 -986.28353882 50.85388184 C-978.89646786 50.60384117 -971.61843769 50.03820367 -964.27816772 49.19519043 C-957.12644015 48.37701052 -949.99027255 47.8319157 -942.79721069 47.54821777 C-941.35828381 47.4893392 -939.9197413 47.42022737 -938.48178101 47.34118652 C-921.70297489 46.46376613 -905.61006698 49.86424535 -889.42269897 54.0579834 C-857.09741461 62.24016444 -819.94508282 58.66088175 -786.85238647 58.73376465 C-784.58378855 58.73914118 -782.31519063 58.74451864 -780.04659271 58.749897 C-770.61953912 58.77140444 -761.19248689 58.79014621 -751.76541519 58.80151939 C-738.34606021 58.81783532 -724.92699063 58.85133577 -711.50774312 58.90792024 C-702.00730874 58.94660323 -692.50695098 58.96614783 -683.00643992 58.97143996 C-677.35416011 58.97508411 -671.70218905 58.98701461 -666.04999542 59.01954269 C-660.75379432 59.04960861 -655.45808962 59.05594039 -650.16182137 59.04415894 C-648.2240393 59.04393836 -646.28623404 59.05223025 -644.34853172 59.06981277 C-632.70157113 59.16973814 -624.81890391 58.95476932 -615.79379272 50.9173584 C-611.21160305 45.72113995 -607.41193271 40.63413187 -603.99691772 34.6126709 C-599.40619153 27.28081544 -590.27282831 22.94274634 -582.14926147 20.77282715 C-553.01953417 14.8799168 -519.96586414 14.92185687 -491.06478882 21.66442871 C-488.00644394 22.37709521 -484.94185848 23.05051666 -481.87173462 23.71028137 C-478.60507746 24.41776903 -475.34628882 25.15815089 -472.08676147 25.89782715 C-470.89131714 26.161521 -469.6958728 26.42521484 -468.46420288 26.69689941 C-460.92536982 28.49636425 -455.04362027 31.10568047 -448.64926147 35.46032715 C-447.56258179 36.14997559 -446.4759021 36.83962402 -445.35629272 37.5501709 C-444.40109741 38.15989746 -443.4459021 38.76962402 -442.46176147 39.39782715 C-436.5510872 43.05017776 -430.48444416 46.02140456 -424.14926147 48.85876465 C-421.17045267 50.22183564 -418.33173197 51.69986255 -415.46176147 53.27282715 C-403.16735322 59.31575131 -387.76714185 58.09540483 -374.39926147 58.58532715 C-372.18959876 58.67187254 -369.97996289 58.75910619 -367.77035522 58.8470459 C-362.39694133 59.0594157 -357.02325729 59.26326202 -351.64926147 59.46032715 C-351.31926147 58.47032715 -350.98926147 57.48032715 -350.64926147 56.46032715 C-349.98926147 56.46032715 -349.32926147 56.46032715 -348.64926147 56.46032715 C-348.31926147 55.47032715 -347.98926147 54.48032715 -347.64926147 53.46032715 C-331.12302522 39.99450502 -304.59532774 32.21936372 -283.64926147 30.46032715 C-282.7959021 30.36622559 -281.94254272 30.27212402 -281.06332397 30.1751709 C-271.34188568 29.56168207 -261.30903056 33.65747178 -253.64926147 39.46032715 C-253.64926147 40.12032715 -253.64926147 40.78032715 -253.64926147 41.46032715 C-253.07417847 41.74263184 -252.49909546 42.02493652 -251.90658569 42.3157959 C-249.7440629 43.41225997 -247.63881009 44.57316475 -245.53207397 45.77282715 C-244.75992554 46.20853027 -243.9877771 46.6442334 -243.19223022 47.09313965 C-241.58616744 48.0012527 -239.98197971 48.91269031 -238.37973022 49.82751465 C-231.33986369 53.78670748 -224.90257446 55.70858691 -216.96176147 56.89782715 C-210.93705867 57.84232895 -205.12679141 58.95977917 -199.30160522 60.81188965 C-182.39746894 64.94456509 -158.94642798 65.37204988 -143.46176147 56.83532715 C-138.90243392 53.86508118 -134.92791716 50.33443251 -130.97348022 46.60876465 C-124.32198875 40.46032715 -124.32198875 40.46032715 -121.64926147 40.46032715 C-121.64926147 39.80032715 -121.64926147 39.14032715 -121.64926147 38.46032715 C-119.96176147 37.1986084 -119.96176147 37.1986084 -117.64926147 35.77282715 C-114.50565509 33.76130776 -111.7734189 31.73230745 -109.08676147 29.14782715 C-98.79275849 19.88322446 -85.05991263 14.07765961 -71.70785522 11.01501465 C-69.29978469 10.36616073 -67.03684353 9.48738906 -64.71176147 8.58532715 C-43.77108675 0.8975178 -22.07289433 0.26237808 0 0 Z " fill="#DFDFDF" transform="translate(1804.6492614746094,-0.4603271484375)"/>
</svg>
