<?xml version="1.0" encoding="UTF-8"?>
<svg version="1.1" xmlns="http://www.w3.org/2000/svg" width="3000" height="1284">
<path d="M0 0 C0.96033142 -0.0071553 1.92066284 -0.01431061 2.91009521 -0.02168274 C3.9724086 -0.02437164 5.03472198 -0.02706055 6.12922668 -0.02983093 C7.79748001 -0.03968773 7.79748001 -0.03968773 9.49943542 -0.04974365 C13.19870563 -0.06953597 16.89793511 -0.08115327 20.59724426 -0.09111023 C22.48775229 -0.09722352 22.48775229 -0.09722352 24.41645241 -0.10346031 C30.39974901 -0.12219076 36.38302079 -0.13674947 42.36633891 -0.14507228 C49.27144566 -0.15483561 56.17623106 -0.18112627 63.08122462 -0.22157317 C69.06184059 -0.25540141 75.04230095 -0.26721992 81.02301979 -0.27127647 C83.5663451 -0.27615384 86.10966671 -0.28780028 88.65292931 -0.30631447 C92.2129976 -0.33061666 95.77222613 -0.32975649 99.33235168 -0.32279968 C100.38454391 -0.33560974 101.43673615 -0.3484198 102.52081299 -0.36161804 C108.56919436 -0.31851712 111.88736064 0.2333251 116.55427551 4.14717102 C117.8929818 4.84436345 119.24550168 5.51644137 120.61677551 6.14717102 C123.98673163 7.78089499 126.67523497 9.73500192 129.55427551 12.14717102 C130.7028302 12.78332336 130.7028302 12.78332336 131.87458801 13.43232727 C135.02586745 15.44896236 137.23250078 17.7509599 139.74177551 20.52217102 C141.03148254 21.92596008 141.03148254 21.92596008 142.34724426 23.35810852 C144.43071346 25.99102358 145.33352851 28.07545398 146.55427551 31.14717102 C148.46381807 33.38130133 148.46381807 33.38130133 150.74177551 35.45967102 C154.38003219 38.96903616 157.76954123 42.5737873 161.04646301 46.42060852 C162.53223649 48.17758272 162.53223649 48.17758272 164.24958801 49.74873352 C165.55427551 51.14717102 165.55427551 51.14717102 165.55427551 53.14717102 C166.13177551 53.41529602 166.70927551 53.68342102 167.30427551 53.95967102 C169.55427551 55.14717102 169.55427551 55.14717102 171.37068176 56.60420227 C174.48237637 58.80298468 177.8106445 59.71951936 181.40974426 60.88935852 C185.63802272 62.58066991 189.57336741 64.93555541 193.55427551 67.14717102 C193.55427551 468.75717102 193.55427551 870.36717102 193.55427551 1284.14717102 C-796.44572449 1284.14717102 -1786.44572449 1284.14717102 -2806.44572449 1284.14717102 C-2806.44572449 891.11717102 -2806.44572449 498.08717102 -2806.44572449 93.14717102 C-2738.13572449 92.65217102 -2738.13572449 92.65217102 -2668.44572449 92.14717102 C-2666.13572449 90.16717102 -2663.82572449 88.18717102 -2661.44572449 86.14717102 C-2659.29885031 85.63448465 -2657.14677221 85.12872244 -2654.96916199 84.76826477 C-2650.76199854 83.7327555 -2647.11965799 81.5960886 -2643.30119324 79.59248352 C-2640.94115226 78.39793474 -2638.69075942 77.43759062 -2636.19572449 76.58467102 C-2631.87613711 75.0701269 -2628.26864781 72.62319942 -2624.44572449 70.14717102 C-2619.47212351 67.0951886 -2614.65629872 66.37596003 -2608.95744324 65.57685852 C-2606.51370651 65.40773525 -2606.51370651 65.40773525 -2605.44572449 64.14717102 C-2604.41447449 64.00279602 -2603.38322449 63.85842102 -2602.32072449 63.70967102 C-2598.56004255 63.28868426 -2598.56004255 63.28868426 -2595.57072449 62.14717102 C-2589.74966761 60.43559728 -2583.58819621 60.71452173 -2577.57072449 60.58467102 C-2575.11489023 60.52505108 -2572.65914763 60.46147618 -2570.20353699 60.39326477 C-2569.12217468 60.36933655 -2568.04081238 60.34540833 -2566.92668152 60.320755 C-2564.50369541 60.42381834 -2564.50369541 60.42381834 -2563.44572449 59.14717102 C-2560.66501569 59.04483379 -2557.90899566 59.00831435 -2555.12768555 59.01345825 C-2554.24493365 59.0111927 -2553.36218176 59.00892714 -2552.45267981 59.00659293 C-2549.47093756 59.00022231 -2546.4892404 59.00108425 -2543.50749207 59.00190735 C-2541.37917522 58.99891768 -2539.25085892 58.99551561 -2537.12254333 58.99172974 C-2531.32279498 58.98286397 -2525.52306137 58.98055049 -2519.72330689 58.97991395 C-2514.88737191 58.97896664 -2510.05144039 58.97529023 -2505.21550673 58.97174186 C-2493.80616023 58.96358682 -2482.39682162 58.9611585 -2470.98747253 58.96186829 C-2459.2092999 58.96246875 -2447.43117312 58.95192568 -2435.6530121 58.93612462 C-2425.551918 58.92305516 -2415.45083889 58.91768417 -2405.34973639 58.9183237 C-2399.31215951 58.91857894 -2393.27462331 58.91571337 -2387.23705482 58.90514565 C-2381.55640774 58.89547516 -2375.8758403 58.89537831 -2370.19519043 58.90266228 C-2368.10944693 58.90370956 -2366.02369851 58.90133675 -2363.93796349 58.89530182 C-2361.09144213 58.88759898 -2358.24519693 58.89221554 -2355.39868164 58.89993286 C-2354.57250503 58.8947893 -2353.74632842 58.88964574 -2352.89511615 58.88434631 C-2348.32870521 58.91171761 -2344.76263282 59.4882069 -2340.44572449 61.14717102 C-2328.42146412 62.88216468 -2318.92898203 62.57762281 -2308.44572449 56.14717102 C-2306.92978699 54.87873352 -2306.92978699 54.87873352 -2305.38322449 53.58467102 C-2300.84053102 49.81520198 -2295.81641235 47.77339046 -2290.13322449 46.27217102 C-2285.61136282 44.89262 -2281.67389544 42.80045344 -2277.50822449 40.58467102 C-2269.68034829 36.91036178 -2262.12380585 36.60235752 -2253.57072449 36.08467102 C-2251.11473865 35.93117191 -2248.65898832 35.77383918 -2246.20353699 35.61201477 C-2245.12217468 35.54619202 -2244.04081238 35.48036926 -2242.92668152 35.41255188 C-2240.50541077 35.41615319 -2240.50541077 35.41615319 -2239.44572449 34.14717102 C-2237.01126536 33.99967412 -2234.60143882 33.91228567 -2232.16447449 33.86592102 C-2231.0714502 33.83830688 -2231.0714502 33.83830688 -2229.9563446 33.81013489 C-2226.82616821 33.73120598 -2223.6957681 33.66363352 -2220.56535339 33.59492493 C-2218.28578199 33.54329948 -2216.00640177 33.48600841 -2213.72697449 33.42842102 C-2213.01343811 33.41484558 -2212.29990173 33.40127014 -2211.56474304 33.38728333 C-2208.2187245 33.58789865 -2208.2187245 33.58789865 -2205.44572449 32.14717102 C-2203.29540326 32.03700996 -2201.14174326 31.99120005 -2198.98869324 31.97138977 C-2197.63386085 31.94814157 -2196.27904318 31.92402241 -2194.92424011 31.89912415 C-2192.79629908 31.8643991 -2190.6688814 31.83489983 -2188.54069519 31.82124329 C-2179.22889461 31.7498422 -2171.15889722 30.75150968 -2162.44572449 27.14717102 C-2161.72610535 26.85141174 -2161.00648621 26.55565247 -2160.26506042 26.25093079 C-2159.68530457 26.01044006 -2159.10554871 25.76994934 -2158.50822449 25.52217102 C-2153.87409839 23.71564729 -2149.01236863 23.21903949 -2144.10588074 22.57685852 C-2141.53060408 22.42715175 -2141.53060408 22.42715175 -2140.44572449 21.14717102 C-2124.87671315 19.19346281 -2108.85246353 19.80602259 -2093.19572449 19.59492493 C-2089.47950634 19.54346815 -2085.76341117 19.48621131 -2082.04728699 19.42842102 C-2080.89644623 19.41484558 -2079.74560547 19.40127014 -2078.55989075 19.38728333 C-2077.5072403 19.3705658 -2076.45458984 19.35384827 -2075.37004089 19.33662415 C-2074.44043549 19.32409607 -2073.51083008 19.31156799 -2072.55305481 19.29866028 C-2070.45962103 19.37926289 -2070.45962103 19.37926289 -2069.44572449 18.14717102 C-2067.45684955 18.04786569 -2065.46442032 18.0191764 -2063.47306824 18.01777649 C-2061.55603088 18.01304825 -2061.55603088 18.01304825 -2059.6002655 18.00822449 C-2058.19458482 18.01001427 -2056.78890444 18.01206522 -2055.38322449 18.01435852 C-2053.95215336 18.01368544 -2052.52108234 18.01271538 -2051.0900116 18.01145935 C-2048.08715224 18.00998258 -2045.08432258 18.01213626 -2042.08146667 18.01679993 C-2038.22419878 18.02249722 -2034.36700045 18.0192181 -2030.50973511 18.01322746 C-2027.55358858 18.00962128 -2024.59745866 18.0107607 -2021.64131165 18.01335526 C-2020.2186838 18.01402437 -2018.79605446 18.01319665 -2017.37342834 18.0108757 C-2015.38841275 18.00834828 -2013.4033919 18.0128806 -2011.41838074 18.01777649 C-2009.72080627 18.01896988 -2009.72080627 18.01896988 -2007.98893738 18.02018738 C-2005.44572449 18.14717102 -2005.44572449 18.14717102 -2004.44572449 19.14717102 C-2002.4498866 19.4471407 -2000.44867767 19.71162011 -1998.44572449 19.95967102 C-1993.32226733 20.70835506 -1989.22625785 21.87081069 -1984.60588074 24.14326477 C-1980.71142181 25.95316702 -1976.56725095 26.97547993 -1972.44572449 28.14717102 C-1965.42103774 30.21478202 -1958.55462062 32.40818234 -1951.78556824 35.20576477 C-1946.91676904 37.16466395 -1941.93333655 38.7295957 -1936.88322449 40.14717102 C-1933.64052675 41.09050127 -1930.55399389 42.22042361 -1927.40666199 43.43232727 C-1925.65730192 44.0700422 -1923.86476818 44.58632555 -1922.07072449 45.08467102 C-1918.34822417 46.1757487 -1914.85150497 47.53727168 -1911.26603699 49.00654602 C-1907.04713163 50.71280691 -1902.78394626 52.30091777 -1898.52384949 53.90107727 C-1895.44572449 55.14717102 -1895.44572449 55.14717102 -1892.25431824 56.74482727 C-1889.4573853 58.25476675 -1889.4573853 58.25476675 -1886.25822449 59.02217102 C-1881.99700421 60.27958028 -1878.17457943 62.03983947 -1874.15666199 63.91670227 C-1871.83597101 64.97004184 -1869.52782975 65.90515877 -1867.13322449 66.77217102 C-1863.44572449 68.14717102 -1863.44572449 68.14717102 -1860.69572449 69.64717102 C-1852.50149471 73.42912322 -1843.90281852 74.4909457 -1834.96525574 74.93623352 C-1832.44572449 75.14717102 -1832.44572449 75.14717102 -1831.44572449 76.14717102 C-1824.93901335 77.17287759 -1818.32847544 77.31960983 -1811.75431824 77.42842102 C-1809.96851032 77.4661519 -1808.18270305 77.50391315 -1806.39689636 77.54170227 C-1803.61851881 77.59566096 -1800.84011643 77.64796925 -1798.06169128 77.69941711 C-1795.35496877 77.75091074 -1792.6484132 77.80816483 -1789.94181824 77.86592102 C-1789.1033989 77.87949646 -1788.26497955 77.8930719 -1787.40115356 77.90705872 C-1781.55874043 78.03415508 -1781.55874043 78.03415508 -1780.44572449 79.14717102 C-1778.16240708 79.25030335 -1775.87589294 79.28291328 -1773.59025574 79.28901672 C-1772.51444496 79.29422836 -1772.51444496 79.29422836 -1771.41690063 79.29954529 C-1769.85307089 79.30691697 -1768.28923059 79.31225479 -1766.72538757 79.31583595 C-1764.24438485 79.32299219 -1761.763581 79.33865582 -1759.28263855 79.35717773 C-1752.22618982 79.40966148 -1745.16984429 79.45755086 -1738.11320496 79.47309875 C-1733.80001826 79.48322601 -1729.48732338 79.51267907 -1725.17433167 79.55441856 C-1723.53506709 79.56667611 -1721.89573282 79.57185946 -1720.25642395 79.56962013 C-1711.52943804 79.56063959 -1704.21658256 79.72375432 -1696.44572449 84.14717102 C-1695.10081755 84.67156847 -1693.7473079 85.17489589 -1692.38322449 85.64717102 C-1682.23805044 89.35484507 -1682.23805044 89.35484507 -1679.44572449 92.14717102 C-1676.48773919 92.27052384 -1673.54953741 92.33335409 -1670.59025574 92.35810852 C-1668.75235642 92.38619112 -1666.91446592 92.41485566 -1665.07658386 92.44404602 C-1662.17123287 92.48522538 -1659.26604399 92.52209987 -1656.36051941 92.54853821 C-1653.56174862 92.57623226 -1650.76373338 92.62212086 -1647.96525574 92.67060852 C-1647.10253555 92.67386139 -1646.23981537 92.67711426 -1645.35095215 92.6804657 C-1640.23542566 92.78417265 -1636.98537711 93.58195492 -1632.44572449 96.14717102 C-1626.85460273 96.69711742 -1622.98063443 95.81075505 -1617.76213074 93.87763977 C-1614.5967409 92.8794477 -1611.49442286 92.59863861 -1608.19572449 92.35810852 C-1606.41944832 92.32669693 -1606.41944832 92.32669693 -1605.44572449 91.14717102 C-1603.89884949 90.93060852 -1603.89884949 90.93060852 -1602.32072449 90.70967102 C-1597.59886739 90.02424015 -1593.22735929 88.8101049 -1588.75822449 87.14717102 C-1584.54236903 85.87445994 -1580.30836982 85.25956965 -1575.95744324 84.61201477 C-1573.51499342 84.40531348 -1573.51499342 84.40531348 -1572.44572449 83.14717102 C-1570.31485048 82.93001189 -1568.17754165 82.77543215 -1566.03947449 82.64717102 C-1564.73881042 82.56467102 -1563.43814636 82.48217102 -1562.09806824 82.39717102 C-1560.01756436 82.27110972 -1557.93696826 82.14664716 -1555.85636902 82.02217102 C-1553.85467568 81.90088499 -1551.85331701 81.77411445 -1549.85197449 81.64717102 C-1548.64863464 81.57498352 -1547.4452948 81.50279602 -1546.20549011 81.42842102 C-1543.53816284 81.45020027 -1543.53816284 81.45020027 -1542.44572449 80.14717102 C-1539.50209272 79.99922683 -1536.57897222 79.91206386 -1533.63322449 79.86592102 C-1532.74916931 79.8475116 -1531.86511414 79.82910217 -1530.95426941 79.81013489 C-1527.15499909 79.73117203 -1523.35554362 79.66362094 -1519.55607605 79.59492493 C-1516.79003295 79.54331611 -1514.02414829 79.48601818 -1511.25822449 79.42842102 C-1509.95824524 79.40805786 -1509.95824524 79.40805786 -1508.63200378 79.38728333 C-1504.72306034 79.68719229 -1504.72306034 79.68719229 -1501.44572449 78.14717102 C-1499.24180459 77.9297981 -1497.03162629 77.77533924 -1494.82072449 77.64717102 C-1494.15862976 77.60656555 -1493.49653503 77.56596008 -1492.81437683 77.52412415 C-1489.97118489 77.34990074 -1487.12738865 77.18658069 -1484.28361511 77.02217102 C-1482.21240924 76.90089273 -1480.14158587 76.77417444 -1478.07072449 76.64717102 C-1476.82549011 76.57498352 -1475.58025574 76.50279602 -1474.29728699 76.42842102 C-1471.54885086 76.46172642 -1471.54885086 76.46172642 -1470.44572449 75.14717102 C-1467.13172326 74.75217739 -1463.77921802 74.71005434 -1460.44572449 74.58467102 C-1459.34736267 74.54293762 -1458.24900085 74.50120422 -1457.11735535 74.45820618 C-1444.41733217 74.04833913 -1431.71380455 74.03636078 -1419.00822449 74.02217102 C-1417.92919861 74.01958282 -1416.85017273 74.01699463 -1415.7384491 74.014328 C-1412.60047712 74.00840337 -1409.46260381 74.01008981 -1406.32463074 74.01435852 C-1405.39195877 74.01237961 -1404.4592868 74.0104007 -1403.49835205 74.00836182 C-1385.52227688 74.07061863 -1385.52227688 74.07061863 -1383.44572449 76.14717102 C-1381.1183046 76.5195582 -1378.78336734 76.84553969 -1376.44572449 77.14717102 C-1369.5568356 78.03605991 -1369.5568356 78.03605991 -1368.44572449 79.14717102 C-1367.41447449 79.29154602 -1366.38322449 79.43592102 -1365.32072449 79.58467102 C-1362.26731695 80.0279076 -1359.5330461 80.6546346 -1356.59416199 81.54560852 C-1352.67704956 82.6424 -1348.69605103 83.47962238 -1344.72697449 84.36592102 C-1342.52938654 84.88915625 -1340.34855841 85.4881732 -1338.19132996 86.15864563 C-1334.44995225 87.14605525 -1331.09220592 87.53206243 -1327.23478699 87.74482727 C-1326.58118195 87.78401779 -1325.9275769 87.82320831 -1325.25416565 87.86358643 C-1323.19336693 87.98636575 -1321.13219792 88.0988469 -1319.07072449 88.20967102 C-1316.98793287 88.32522151 -1314.90535511 88.44306728 -1312.82301331 88.56646729 C-1310.94967978 88.67702224 -1309.07588099 88.77960742 -1307.20207214 88.88179016 C-1304.44572449 89.14717102 -1304.44572449 89.14717102 -1303.44572449 90.14717102 C-1302.00899439 90.26419531 -1300.56672857 90.31438514 -1299.12541199 90.33662415 C-1298.20776062 90.35334167 -1297.29010925 90.3700592 -1296.34465027 90.38728333 C-1295.34675476 90.40085876 -1294.34885925 90.4144342 -1293.32072449 90.42842102 C-1291.79487732 90.45603516 -1291.79487732 90.45603516 -1290.23820496 90.48420715 C-1286.97410554 90.54316523 -1283.70995315 90.5958979 -1280.44572449 90.64717102 C-1276.15394055 90.71458454 -1271.86233371 90.78825329 -1267.57072449 90.86592102 C-1266.57282898 90.87949646 -1265.57493347 90.8930719 -1264.54679871 90.90705872 C-1263.62914734 90.92377625 -1262.71149597 90.94049377 -1261.76603699 90.9577179 C-1260.54811462 90.97651001 -1260.54811462 90.97651001 -1259.30558777 90.99568176 C-1257.44572449 91.14717102 -1257.44572449 91.14717102 -1256.44572449 92.14717102 C-1254.81791022 92.25148082 -1253.18556425 92.2856038 -1251.55442619 92.29256535 C-1250.48879979 92.29948999 -1249.42317339 92.30641462 -1248.32525527 92.3135491 C-1247.13998784 92.31609322 -1245.9547204 92.31863733 -1244.73353577 92.32125854 C-1243.4855307 92.3277575 -1242.23752564 92.33425645 -1240.95170224 92.34095234 C-1237.47124468 92.35880379 -1233.99079079 92.37021541 -1230.51030374 92.38050902 C-1227.52859615 92.39012767 -1224.5469097 92.40344373 -1221.56521676 92.41677798 C-1210.87698011 92.46444822 -1200.18871346 92.49703515 -1189.50041199 92.52607727 C-1188.6565638 92.52838485 -1187.8127156 92.53069243 -1186.94329625 92.53306994 C-1170.18426066 92.57852726 -1153.42521201 92.61705123 -1136.66613579 92.64379978 C-1132.97824461 92.64978891 -1129.29035361 92.65587453 -1125.60246277 92.6620636 C-1124.68585358 92.66359658 -1123.76924439 92.66512956 -1122.82485916 92.666709 C-1108.00070045 92.6923817 -1093.17682733 92.74922007 -1078.35281526 92.8185289 C-1063.12805869 92.88912166 -1047.90344934 92.92925322 -1032.67853177 92.94054931 C-1024.13261981 92.94769551 -1015.58720281 92.96832439 -1007.04145432 93.02357674 C-999.756974 93.07064038 -992.4730631 93.09023656 -985.18843625 93.07469524 C-981.47581204 93.06761993 -977.76440501 93.0731517 -974.05197525 93.11427307 C-952.33419533 93.68286772 -952.33419533 93.68286772 -933.44572449 84.14717102 C-930.04819883 80.75644352 -927.19869516 77.0741164 -924.44572449 73.14717102 C-923.74447449 72.30283508 -923.04322449 71.45849915 -922.32072449 70.58857727 C-920.55437786 68.28864676 -919.66213378 66.45015411 -918.63322449 63.77217102 C-916.02664139 58.33769117 -912.21932176 54.42940905 -908.00822449 50.20967102 C-907.36329041 49.55885559 -906.71835632 48.90804016 -906.05387878 48.23750305 C-902.42253083 44.69912426 -899.15086782 42.19439415 -894.44572449 40.14717102 C-893.48666199 39.40467102 -893.48666199 39.40467102 -892.50822449 38.64717102 C-885.42465551 33.49548449 -875.79581013 31.64878026 -867.25822449 30.52217102 C-864.54647943 30.45040934 -864.54647943 30.45040934 -863.44572449 29.14717102 C-860.57658154 28.92775701 -857.72576052 28.76776287 -854.85197449 28.64717102 C-853.99011536 28.60656555 -853.12825623 28.56596008 -852.24028015 28.52412415 C-848.53677185 28.34978618 -844.83279214 28.18653474 -841.12882996 28.02217102 C-838.4321888 27.90095238 -835.73584678 27.7742074 -833.03947449 27.64717102 C-832.19469543 27.6117218 -831.34991638 27.57627258 -830.47953796 27.53974915 C-826.64821704 27.71530139 -826.64821704 27.71530139 -823.44572449 26.14717102 C-821.15060952 26.04745947 -818.852379 26.01917236 -816.55509949 26.01777649 C-815.83479553 26.01602417 -815.11449158 26.01427185 -814.37236023 26.01246643 C-811.98012415 26.00804814 -809.58796138 26.01098581 -807.19572449 26.01435852 C-805.5404509 26.01368547 -803.88517742 26.01271544 -802.22990417 26.01145935 C-798.75626181 26.00998241 -795.28264512 26.01213681 -791.80900574 26.01679993 C-787.34639951 26.02249722 -782.88385341 26.01921819 -778.42124939 26.01322746 C-775.00187218 26.00962175 -771.58250934 26.01076048 -768.16313171 26.01335526 C-766.51721693 26.0140245 -764.87130086 26.0131962 -763.22538757 26.0108757 C-760.92900617 26.008349 -758.63272349 26.01218999 -756.33634949 26.01777649 C-754.37230164 26.01896988 -754.37230164 26.01896988 -752.36857605 26.02018738 C-749.44572449 26.14717102 -749.44572449 26.14717102 -748.44572449 27.14717102 C-746.1183046 27.5195582 -743.78336734 27.84553969 -741.44572449 28.14717102 C-734.5568356 29.03605991 -734.5568356 29.03605991 -733.44572449 30.14717102 C-732.04247406 30.33762546 -730.63126496 30.47032284 -729.21916199 30.57685852 C-728.35162292 30.65033508 -727.48408386 30.72381165 -726.59025574 30.79951477 C-724.76780309 30.94603071 -722.94487895 31.08681374 -721.12150574 31.22138977 C-715.55735638 31.70487256 -711.49569905 32.80559686 -706.44572449 35.14717102 C-703.41747656 35.84060093 -703.41747656 35.84060093 -700.44572449 36.20967102 C-695.97097741 36.87837544 -691.79033276 37.86934506 -687.44572449 39.14717102 C-686.29072449 39.31217102 -685.13572449 39.47717102 -683.94572449 39.64717102 C-680.28749597 40.16977509 -676.99022822 41.10125188 -673.44572449 42.14717102 C-672.5240448 42.3405304 -671.60236511 42.53388977 -670.65275574 42.73310852 C-664.29986751 44.1019184 -659.70241652 45.89090012 -654.46525574 49.74092102 C-652.28813248 51.36398189 -652.28813248 51.36398189 -648.82072449 52.64717102 C-645.85510178 53.96522556 -644.44006574 54.9035336 -642.13322449 57.02217102 C-638.83610944 59.98595136 -635.49126607 61.79244694 -631.49259949 63.67060852 C-629.14414265 64.80870683 -626.87004578 65.99125518 -624.58634949 67.24873352 C-616.80325693 71.52137796 -609.15248955 75.31297533 -600.71086121 78.11958313 C-596.55849252 79.53921947 -593.82250347 81.40221075 -590.44572449 84.14717102 C-585.14383054 86.88076143 -580.41041454 87.75868103 -574.57072449 88.27217102 C-566.55686127 89.03603424 -566.55686127 89.03603424 -565.44572449 90.14717102 C-563.45929788 90.29325395 -561.46803663 90.37454657 -559.47697449 90.42842102 C-557.66132996 90.48449524 -557.66132996 90.48449524 -555.80900574 90.54170227 C-553.89668152 90.5939093 -553.89668152 90.5939093 -551.94572449 90.64717102 C-549.43518447 90.71570952 -546.924753 90.78839378 -544.41447449 90.86592102 C-543.29492371 90.89621399 -542.17537292 90.92650696 -541.02189636 90.9577179 C-538.44572449 91.14717102 -538.44572449 91.14717102 -537.44572449 92.14717102 C-533.29078714 92.59898173 -529.12141006 92.65919251 -524.94572449 92.77217102 C-523.78556824 92.84306946 -522.62541199 92.9139679 -521.43009949 92.98701477 C-516.42528586 93.09458429 -512.86679423 93.15446055 -508.69303894 90.19599915 C-506.44183677 87.94411431 -504.43093773 85.63355128 -502.44572449 83.14717102 C-497.8747285 78.67775273 -493.22189822 76.65532641 -487.35978699 74.34248352 C-482.70646512 72.43374828 -478.62911477 69.93609788 -474.44572449 67.14717102 C-472.79395805 66.68467642 -471.14157748 66.22414438 -469.48478699 65.77998352 C-464.49851791 64.2325207 -459.78252068 62.03836849 -455.44572449 59.14717102 C-453.91578147 58.79920564 -452.37109326 58.5133395 -450.82072449 58.27217102 C-447.29879999 57.62673897 -444.35111623 56.77400656 -441.13322449 55.20967102 C-434.27943122 51.94711934 -426.68841353 50.52427964 -419.19572449 49.52217102 C-416.53927355 49.4424145 -416.53927355 49.4424145 -415.44572449 48.14717102 C-405.77471704 46.97085467 -395.97693559 46.96079996 -386.24772644 46.96186829 C-383.98606901 46.95964928 -381.72487651 46.94130868 -379.46330261 46.92256165 C-378.00041362 46.91963197 -376.53752236 46.91764433 -375.07463074 46.91670227 C-373.77598083 46.91259338 -372.47733093 46.9084845 -371.139328 46.9042511 C-367.30417131 47.15648065 -364.0928411 47.96465881 -360.44572449 49.14717102 C-359.41189636 49.4539679 -358.37806824 49.76076477 -357.31291199 50.07685852 C-351.86084681 51.79931253 -347.77484308 53.31280884 -343.44572449 57.14717102 C-342.35259949 57.55967102 -341.25947449 57.97217102 -340.13322449 58.39717102 C-336.86271806 59.67999897 -335.01537072 61.45752165 -332.63322449 64.02217102 C-329.01908424 67.86131611 -325.44977391 69.89950057 -320.68400574 72.06904602 C-317.92870849 73.39620491 -315.82942531 75.24021036 -313.44572449 77.14717102 C-310.16656239 78.92823876 -306.80834254 80.53094492 -303.44572449 82.14717102 C-301.86791199 82.98248352 -301.86791199 82.98248352 -300.25822449 83.83467102 C-293.67851326 86.90520293 -287.22868883 87.61403723 -280.07072449 88.20967102 C-278.27090209 88.36325248 -276.47139524 88.52059466 -274.67228699 88.68232727 C-273.8841864 88.74815002 -273.09608582 88.81397278 -272.28410339 88.88179016 C-270.44572449 89.14717102 -270.44572449 89.14717102 -269.44572449 90.14717102 C-268.37322449 90.29154602 -267.30072449 90.43592102 -266.19572449 90.58467102 C-262.84430963 91.08738325 -260.54116475 91.88486255 -257.44572449 93.14717102 C-249.72077779 95.55330196 -242.2565318 96.56569134 -234.18400574 96.93623352 C-231.44572449 97.14717102 -231.44572449 97.14717102 -230.44572449 98.14717102 C-228.82314904 98.24633672 -227.19632618 98.27796879 -225.57072449 98.27998352 C-224.58588074 98.28127258 -223.60103699 98.28256165 -222.58634949 98.28388977 C-221.54994324 98.28002258 -220.51353699 98.2761554 -219.44572449 98.27217102 C-218.40931824 98.27603821 -217.37291199 98.2799054 -216.30509949 98.28388977 C-215.32025574 98.28260071 -214.33541199 98.28131165 -213.32072449 98.27998352 C-211.9556073 98.27829163 -211.9556073 98.27829163 -210.56291199 98.27656555 C-208.46043969 98.38277111 -208.46043969 98.38277111 -207.44572449 97.14717102 C-205.72418294 96.97141709 -204.00203845 96.80020006 -202.27775574 96.65376282 C-193.57383039 95.86601001 -187.01420421 93.68373361 -179.44572449 89.14717102 C-178.69677917 88.74369446 -177.94783386 88.3402179 -177.17619324 87.92451477 C-172.52841003 85.30291621 -169.48664773 82.10812117 -166.10978699 78.00654602 C-163.87565894 75.51019637 -161.2874264 73.89094265 -158.44572449 72.14717102 C-157.93009949 71.63154602 -157.41447449 71.11592102 -156.88322449 70.58467102 C-155.44572449 69.14717102 -155.44572449 69.14717102 -153.19572449 67.89717102 C-150.67567667 66.29350423 -149.04736333 64.7898423 -147.00822449 62.64717102 C-144.05894016 59.60213071 -141.34354967 57.88875248 -137.44572449 56.14717102 C-133.17258512 53.71925092 -130.16600415 50.88780622 -126.75822449 47.33467102 C-121.79366774 42.25829993 -116.50690526 38.76963882 -110.44572449 35.14717102 C-108.89848053 34.09280937 -107.35648177 33.0306948 -105.82072449 31.95967102 C-101.56142639 29.10753002 -97.18950746 27.0606297 -92.44572449 25.14717102 C-91.6065448 24.79654602 -90.76736511 24.44592102 -89.90275574 24.08467102 C-86.1035806 22.52131907 -82.34584515 21.05364605 -78.38322449 19.95967102 C-75.57773827 19.44352233 -75.57773827 19.44352233 -74.44572449 18.14717102 C-73.18759949 18.06467102 -71.92947449 17.98217102 -70.63322449 17.89717102 C-63.40205792 17.18914348 -56.45883322 14.15591017 -50.44572449 10.14717102 C-48.54050313 9.77114049 -46.62068574 9.46616966 -44.69572449 9.20967102 C-41.08958404 8.66250276 -38.37121584 8.11465816 -35.00822449 6.64717102 C-30.45492736 4.72999328 -26.02003572 4.21035038 -21.14103699 3.57685852 C-18.53461824 3.43172063 -18.53461824 3.43172063 -17.44572449 2.14717102 C-14.34529675 1.82270765 -11.24365199 1.63382661 -8.13322449 1.42842102 C-4.95699659 1.09602508 -3.4100753 0.01736243 0 0 Z " fill="#FEFEFE" transform="translate(2806.4457244873047,-0.1471710205078125)"/>
<path d="M0 0 C0.96033142 -0.0071553 1.92066284 -0.01431061 2.91009521 -0.02168274 C3.9724086 -0.02437164 5.03472198 -0.02706055 6.12922668 -0.02983093 C7.79748001 -0.03968773 7.79748001 -0.03968773 9.49943542 -0.04974365 C13.19870563 -0.06953597 16.89793511 -0.08115327 20.59724426 -0.09111023 C22.48775229 -0.09722352 22.48775229 -0.09722352 24.41645241 -0.10346031 C30.39974901 -0.12219076 36.38302079 -0.13674947 42.36633891 -0.14507228 C49.27144566 -0.15483561 56.17623106 -0.18112627 63.08122462 -0.22157317 C69.06184059 -0.25540141 75.04230095 -0.26721992 81.02301979 -0.27127647 C83.5663451 -0.27615384 86.10966671 -0.28780028 88.65292931 -0.30631447 C92.2129976 -0.33061666 95.77222613 -0.32975649 99.33235168 -0.32279968 C100.38454391 -0.33560974 101.43673615 -0.3484198 102.52081299 -0.36161804 C108.56919436 -0.31851712 111.88736064 0.2333251 116.55427551 4.14717102 C117.8929818 4.84436345 119.24550168 5.51644137 120.61677551 6.14717102 C123.98673163 7.78089499 126.67523497 9.73500192 129.55427551 12.14717102 C130.7028302 12.78332336 130.7028302 12.78332336 131.87458801 13.43232727 C135.02586745 15.44896236 137.23250078 17.7509599 139.74177551 20.52217102 C141.03148254 21.92596008 141.03148254 21.92596008 142.34724426 23.35810852 C144.43071346 25.99102358 145.33352851 28.07545398 146.55427551 31.14717102 C148.46381807 33.38130133 148.46381807 33.38130133 150.74177551 35.45967102 C154.38003219 38.96903616 157.76954123 42.5737873 161.04646301 46.42060852 C162.53223649 48.17758272 162.53223649 48.17758272 164.24958801 49.74873352 C165.55427551 51.14717102 165.55427551 51.14717102 165.55427551 53.14717102 C166.13177551 53.41529602 166.70927551 53.68342102 167.30427551 53.95967102 C169.55427551 55.14717102 169.55427551 55.14717102 171.37068176 56.60420227 C173.78046596 58.30700148 175.94198012 59.10910643 178.74177551 60.02217102 C184.07811159 61.87267466 188.69472661 64.27924052 193.55427551 67.14717102 C193.55427551 73.74717102 193.55427551 80.34717102 193.55427551 87.14717102 C190.91427551 86.48717102 188.27427551 85.82717102 185.55427551 85.14717102 C185.55427551 84.48717102 185.55427551 83.82717102 185.55427551 83.14717102 C184.70865051 83.04404602 183.86302551 82.94092102 182.99177551 82.83467102 C179.13984851 82.06428562 176.1135252 80.78442588 172.55427551 79.14717102 C172.55427551 78.48717102 172.55427551 77.82717102 172.55427551 77.14717102 C171.85302551 77.02342102 171.15177551 76.89967102 170.42927551 76.77217102 C164.92672499 75.57596439 161.81843528 74.83053069 158.55427551 70.14717102 C156.90606307 69.11703825 155.2392385 68.11602474 153.55427551 67.14717102 C151.54177775 65.4442883 150.48561693 64.02545808 149.17927551 61.70967102 C147.69904367 59.05644864 147.69904367 59.05644864 145.30427551 57.39717102 C142.0731048 54.75348589 139.89033974 51.78640313 137.40193176 48.45576477 C135.61079963 46.21779629 133.71983498 44.3387835 131.61677551 42.39717102 C128.60940832 39.51734841 128.60940832 39.51734841 128.11677551 36.20967102 C128.26115051 35.52904602 128.40552551 34.84842102 128.55427551 34.14717102 C127.91490051 33.87904602 127.27552551 33.61092102 126.61677551 33.33467102 C124.55427551 32.14717102 124.55427551 32.14717102 123.55427551 29.14717102 C122.64677551 29.06467102 121.73927551 28.98217102 120.80427551 28.89717102 C117.096691 28.04157459 116.0519479 26.90322331 113.55427551 24.14717102 C112.56427551 23.81717102 111.57427551 23.48717102 110.55427551 23.14717102 C110.55427551 22.48717102 110.55427551 21.82717102 110.55427551 21.14717102 C108.57427551 20.81717102 106.59427551 20.48717102 104.55427551 20.14717102 C104.55427551 19.48717102 104.55427551 18.82717102 104.55427551 18.14717102 C101.91427551 17.81717102 99.27427551 17.48717102 96.55427551 17.14717102 C96.55427551 16.48717102 96.55427551 15.82717102 96.55427551 15.14717102 C73.78427551 15.14717102 51.01427551 15.14717102 27.55427551 15.14717102 C27.55427551 15.80717102 27.55427551 16.46717102 27.55427551 17.14717102 C26.49925842 17.20252014 25.44424133 17.25786926 24.35725403 17.31489563 C20.45643808 17.52077977 16.55597657 17.73280897 12.65559387 17.94673157 C10.96492954 18.03858899 9.27417284 18.12876211 7.58332825 18.21723938 C5.15801868 18.34443845 2.73310186 18.47761979 0.30818176 18.61201477 C-0.45223923 18.65060104 -1.21266022 18.68918732 -1.99612427 18.72894287 C-5.51895315 18.6285778 -5.51895315 18.6285778 -8.44572449 20.14717102 C-9.47697449 20.29154602 -10.50822449 20.43592102 -11.57072449 20.58467102 C-15.43351178 21.04966221 -15.43351178 21.04966221 -19.00822449 22.20967102 C-22.33761988 23.11768794 -25.01783641 23.31438507 -28.44572449 23.14717102 C-28.44572449 23.80717102 -28.44572449 24.46717102 -28.44572449 25.14717102 C-34.88072449 25.64217102 -34.88072449 25.64217102 -41.44572449 26.14717102 C-41.44572449 26.80717102 -41.44572449 27.46717102 -41.44572449 28.14717102 C-43.42572449 28.47717102 -45.40572449 28.80717102 -47.44572449 29.14717102 C-47.44572449 29.80717102 -47.44572449 30.46717102 -47.44572449 31.14717102 C-49.09572449 31.14717102 -50.74572449 31.14717102 -52.44572449 31.14717102 C-52.44572449 31.80717102 -52.44572449 32.46717102 -52.44572449 33.14717102 C-53.58847839 33.29412415 -53.58847839 33.29412415 -54.75431824 33.44404602 C-60.87631208 34.3306269 -65.9221834 35.60075737 -71.46525574 38.32685852 C-74.1751802 39.44931244 -76.55629897 39.44352236 -79.44572449 39.14717102 C-79.44572449 39.80717102 -79.44572449 40.46717102 -79.44572449 41.14717102 C-82.41572449 41.64217102 -82.41572449 41.64217102 -85.44572449 42.14717102 C-85.44572449 42.80717102 -85.44572449 43.46717102 -85.44572449 44.14717102 C-86.15599792 44.4127179 -86.86627136 44.67826477 -87.59806824 44.95185852 C-88.5171698 45.30506165 -89.43627136 45.65826477 -90.38322449 46.02217102 C-91.75800964 46.54424133 -91.75800964 46.54424133 -93.16056824 47.07685852 C-95.59513505 47.92907962 -95.59513505 47.92907962 -96.44572449 50.14717102 C-99.38276905 52.15672782 -100.83794934 53.14717102 -104.44572449 53.14717102 C-104.44572449 53.80717102 -104.44572449 54.46717102 -104.44572449 55.14717102 C-105.22882996 55.49715149 -105.22882996 55.49715149 -106.02775574 55.85420227 C-112.00172724 58.81503228 -116.22332857 62.58456607 -120.72624207 67.40034485 C-122.97533936 69.78746894 -124.27401336 71.08993398 -127.44572449 72.14717102 C-127.77572449 72.80717102 -128.10572449 73.46717102 -128.44572449 74.14717102 C-131.50822449 74.77217102 -131.50822449 74.77217102 -134.44572449 75.14717102 C-134.50759949 75.74529602 -134.56947449 76.34342102 -134.63322449 76.95967102 C-135.77277746 80.02769825 -137.65673975 80.48640359 -140.44572449 82.14717102 C-142.14368064 83.6116582 -143.80990461 85.11358988 -145.44572449 86.64717102 C-147.89311703 88.94160153 -150.11457324 90.95020185 -153.00041199 92.66670227 C-156.4488166 94.7544744 -158.85650011 97.56347544 -161.57853699 100.50263977 C-163.44572449 102.14717102 -163.44572449 102.14717102 -166.44572449 102.14717102 C-166.44572449 102.80717102 -166.44572449 103.46717102 -166.44572449 104.14717102 C-169.35121331 106.18886587 -170.84714494 107.14717102 -174.44572449 107.14717102 C-174.44572449 107.80717102 -174.44572449 108.46717102 -174.44572449 109.14717102 C-179.21076071 111.38382067 -183.16761851 112.5137983 -188.44572449 113.14717102 C-188.77572449 113.47717102 -189.10572449 113.80717102 -189.44572449 114.14717102 C-195.50752684 115.23475958 -201.6617672 115.29539371 -207.80119324 115.27998352 C-208.66529312 115.28094025 -209.52939301 115.28189697 -210.41967773 115.28288269 C-212.23736138 115.28355875 -214.05504753 115.28174484 -215.87272644 115.27754211 C-218.60870495 115.27221873 -221.34451684 115.27748983 -224.08049011 115.28388977 C-251.62921305 115.2959251 -251.62921305 115.2959251 -260.44572449 112.14717102 C-260.44572449 111.48717102 -260.44572449 110.82717102 -260.44572449 110.14717102 C-264.07572449 109.81717102 -267.70572449 109.48717102 -271.44572449 109.14717102 C-271.44572449 108.48717102 -271.44572449 107.82717102 -271.44572449 107.14717102 C-276.72572449 106.81717102 -282.00572449 106.48717102 -287.44572449 106.14717102 C-287.44572449 105.48717102 -287.44572449 104.82717102 -287.44572449 104.14717102 C-291.73572449 104.14717102 -296.02572449 104.14717102 -300.44572449 104.14717102 C-300.44572449 103.48717102 -300.44572449 102.82717102 -300.44572449 102.14717102 C-301.72447449 102.08529602 -303.00322449 102.02342102 -304.32072449 101.95967102 C-310.02096844 101.36155321 -314.51461381 98.93700608 -319.44572449 96.14717102 C-319.44572449 95.48717102 -319.44572449 94.82717102 -319.44572449 94.14717102 C-320.30037292 93.99054993 -320.30037292 93.99054993 -321.17228699 93.83076477 C-323.82326568 93.03364918 -325.57533967 91.82083311 -327.82072449 90.20967102 C-331.2679589 87.83364334 -334.34798585 86.19787323 -338.44572449 85.14717102 C-338.44572449 84.48717102 -338.44572449 83.82717102 -338.44572449 83.14717102 C-339.43572449 82.81717102 -340.42572449 82.48717102 -341.44572449 82.14717102 C-341.44572449 81.48717102 -341.44572449 80.82717102 -341.44572449 80.14717102 C-342.43572449 80.14717102 -343.42572449 80.14717102 -344.44572449 80.14717102 C-344.44572449 79.15717102 -344.44572449 78.16717102 -344.44572449 77.14717102 C-345.10572449 77.14717102 -345.76572449 77.14717102 -346.44572449 77.14717102 C-346.44572449 76.48717102 -346.44572449 75.82717102 -346.44572449 75.14717102 C-348.42572449 74.81717102 -350.40572449 74.48717102 -352.44572449 74.14717102 C-352.44572449 73.48717102 -352.44572449 72.82717102 -352.44572449 72.14717102 C-354.09572449 71.81717102 -355.74572449 71.48717102 -357.44572449 71.14717102 C-357.44572449 70.48717102 -357.44572449 69.82717102 -357.44572449 69.14717102 C-359.09572449 69.14717102 -360.74572449 69.14717102 -362.44572449 69.14717102 C-362.44572449 68.48717102 -362.44572449 67.82717102 -362.44572449 67.14717102 C-363.96166199 66.96154602 -363.96166199 66.96154602 -365.50822449 66.77217102 C-369.44572449 66.14717102 -369.44572449 66.14717102 -372.73893738 65.12031555 C-376.56709195 64.11530836 -379.74360994 63.91796832 -383.69181824 63.95185852 C-384.34779495 63.95468842 -385.00377167 63.95751831 -385.67962646 63.96043396 C-387.74768858 63.97151118 -389.81529622 63.99659039 -391.88322449 64.02217102 C-393.29662963 64.032217 -394.71004166 64.04134 -396.12345886 64.04951477 C-399.56435843 64.07140918 -403.004997 64.10585051 -406.44572449 64.14717102 C-406.44572449 64.80717102 -406.44572449 65.46717102 -406.44572449 66.14717102 C-409.08572449 66.14717102 -411.72572449 66.14717102 -414.44572449 66.14717102 C-414.44572449 66.80717102 -414.44572449 67.46717102 -414.44572449 68.14717102 C-415.58847839 68.29412415 -415.58847839 68.29412415 -416.75431824 68.44404602 C-422.7712317 69.31540927 -427.76581526 70.5278257 -433.21525574 73.19795227 C-436.45048657 74.57476679 -439.73155558 75.15777316 -443.18400574 75.75263977 C-445.30527448 76.1226711 -447.36417605 76.59939512 -449.44572449 77.14717102 C-449.44572449 77.80717102 -449.44572449 78.46717102 -449.44572449 79.14717102 C-451.86177674 79.96153689 -454.27852447 80.77372499 -456.69572449 81.58467102 C-457.37763855 81.81476868 -458.05955261 82.04486633 -458.76213074 82.28193665 C-461.96639062 83.35520816 -465.14619068 84.4073271 -468.44572449 85.14717102 C-468.44572449 85.80717102 -468.44572449 86.46717102 -468.44572449 87.14717102 C-471.41572449 87.64217102 -471.41572449 87.64217102 -474.44572449 88.14717102 C-474.44572449 88.80717102 -474.44572449 89.46717102 -474.44572449 90.14717102 C-476.04722335 90.8202212 -477.65203478 91.48539329 -479.25822449 92.14717102 C-480.1515448 92.51842102 -481.04486511 92.88967102 -481.96525574 93.27217102 C-484.44572449 94.14717102 -484.44572449 94.14717102 -487.44572449 94.14717102 C-487.67259949 94.74529602 -487.89947449 95.34342102 -488.13322449 95.95967102 C-489.78223913 98.70802876 -491.71931716 99.53928978 -494.44572449 101.14717102 C-494.94072449 102.63217102 -494.94072449 102.63217102 -495.44572449 104.14717102 C-496.77905782 104.81383769 -498.11239115 105.48050435 -499.44572449 106.14717102 C-499.94072449 107.63217102 -499.94072449 107.63217102 -500.44572449 109.14717102 C-507.12092789 109.17244047 -513.79611905 109.1900037 -520.47135925 109.20210266 C-522.7441504 109.20714427 -525.01693829 109.21397739 -527.28971863 109.22261047 C-530.54876 109.23468363 -533.80775865 109.24040089 -537.06681824 109.24482727 C-538.08972458 109.24998856 -539.11263092 109.25514984 -540.16653442 109.26046753 C-541.10743423 109.26054306 -542.04833405 109.26061859 -543.01774597 109.26069641 C-543.85047531 109.26291702 -544.68320465 109.26513763 -545.54116821 109.26742554 C-547.44572449 109.14717102 -547.44572449 109.14717102 -548.44572449 108.14717102 C-550.21820415 108.00078488 -551.9961486 107.91970405 -553.77384949 107.86592102 C-555.43118103 107.81069275 -555.43118103 107.81069275 -557.12199402 107.75434875 C-558.30132507 107.7189801 -559.48065613 107.68361145 -560.69572449 107.64717102 C-569.63679636 107.3458071 -578.53723191 106.99474015 -587.44572449 106.14717102 C-587.44572449 105.48717102 -587.44572449 104.82717102 -587.44572449 104.14717102 C-588.29134949 104.20904602 -589.13697449 104.27092102 -590.00822449 104.33467102 C-594.23766278 104.10397439 -596.68375365 103.06503851 -600.44572449 101.14717102 C-600.94072449 100.15717102 -600.94072449 100.15717102 -601.44572449 99.14717102 C-603.35043415 98.22219099 -605.29569635 97.37964917 -607.25822449 96.58467102 C-608.3165448 96.15025696 -609.37486511 95.7158429 -610.46525574 95.26826477 C-612.80081788 94.38975057 -615.01316387 93.671379 -617.44572449 93.14717102 C-617.44572449 92.48717102 -617.44572449 91.82717102 -617.44572449 91.14717102 C-618.29134949 91.04404602 -619.13697449 90.94092102 -620.00822449 90.83467102 C-623.86015149 90.06428562 -626.8864748 88.78442588 -630.44572449 87.14717102 C-630.44572449 86.48717102 -630.44572449 85.82717102 -630.44572449 85.14717102 C-631.43572449 85.14717102 -632.42572449 85.14717102 -633.44572449 85.14717102 C-633.44572449 84.48717102 -633.44572449 83.82717102 -633.44572449 83.14717102 C-633.96134949 83.04404602 -634.47697449 82.94092102 -635.00822449 82.83467102 C-638.30598883 81.90453236 -641.3120578 80.5332159 -644.44572449 79.14717102 C-644.44572449 78.48717102 -644.44572449 77.82717102 -644.44572449 77.14717102 C-645.02322449 77.02342102 -645.60072449 76.89967102 -646.19572449 76.77217102 C-648.46908216 76.14068278 -650.37107738 75.25858911 -652.44572449 74.14717102 C-652.44572449 73.48717102 -652.44572449 72.82717102 -652.44572449 72.14717102 C-654.58438935 71.03823368 -656.70735834 70.04251748 -658.94572449 69.14717102 C-665.19572449 66.64717102 -665.19572449 66.64717102 -666.44572449 64.14717102 C-669.82148111 61.97704177 -673.26848477 61.57198458 -677.19572449 61.02217102 C-678.36619324 60.8545929 -679.53666199 60.68701477 -680.74259949 60.51435852 C-682.08064636 60.33260071 -682.08064636 60.33260071 -683.44572449 60.14717102 C-683.44572449 59.48717102 -683.44572449 58.82717102 -683.44572449 58.14717102 C-684.25009949 58.16779602 -685.05447449 58.18842102 -685.88322449 58.20967102 C-688.44572449 58.14717102 -688.44572449 58.14717102 -689.44572449 57.14717102 C-691.79296415 56.74967802 -694.14900997 56.40348379 -696.50822449 56.08467102 C-697.79857605 55.90806946 -699.08892761 55.7314679 -700.41838074 55.54951477 C-701.41740417 55.41674133 -702.41642761 55.2839679 -703.44572449 55.14717102 C-703.44572449 54.48717102 -703.44572449 53.82717102 -703.44572449 53.14717102 C-704.23076355 53.09818665 -705.01580261 53.04920227 -705.82463074 52.99873352 C-711.65916532 52.58351511 -716.83074059 51.8422605 -722.44572449 50.14717102 C-724.83694586 49.83016786 -727.22171661 49.59289371 -729.62541199 49.39326477 C-731.44572449 49.14717102 -731.44572449 49.14717102 -732.44572449 48.14717102 C-733.98311697 47.96162365 -735.52640031 47.823979 -737.07072449 47.70967102 C-741.4135456 47.32158913 -745.25446895 46.36644536 -749.44572449 45.14717102 C-751.83701824 44.83119256 -754.22177167 44.59288914 -756.62541199 44.39326477 C-758.44572449 44.14717102 -758.44572449 44.14717102 -759.44572449 43.14717102 C-761.16346616 43.02409791 -762.88615188 42.96930544 -764.608078 42.94184875 C-765.70914383 42.92190353 -766.81020966 42.90195831 -767.94464111 42.88140869 C-769.14253769 42.8646962 -770.34043427 42.8479837 -771.57463074 42.83076477 C-772.79399826 42.80998367 -774.01336578 42.78920258 -775.26968384 42.76779175 C-779.18247094 42.70216675 -783.09532765 42.6433513 -787.00822449 42.58467102 C-789.65341411 42.54149811 -792.29859658 42.49788424 -794.94377136 42.45381165 C-801.44434785 42.34647222 -807.94499427 42.24473035 -814.44572449 42.14717102 C-814.44572449 42.80717102 -814.44572449 43.46717102 -814.44572449 44.14717102 C-815.62191345 44.20252014 -816.79810242 44.25786926 -818.00993347 44.31489563 C-822.35798956 44.52074993 -826.70572558 44.73278739 -831.0533905 44.94673157 C-832.93807407 45.03859993 -834.82284107 45.12877265 -836.70768738 45.21723938 C-839.41096653 45.34441072 -842.11389073 45.47760149 -844.81681824 45.61201477 C-845.66473434 45.65060104 -846.51265045 45.68918732 -847.38626099 45.72894287 C-851.23157731 45.56924376 -851.23157731 45.56924376 -854.44572449 47.14717102 C-855.47697449 47.29154602 -856.50822449 47.43592102 -857.57072449 47.58467102 C-861.43351178 48.04966221 -861.43351178 48.04966221 -865.00822449 49.20967102 C-868.33761988 50.11768794 -871.01783641 50.31438507 -874.44572449 50.14717102 C-874.44572449 50.80717102 -874.44572449 51.46717102 -874.44572449 52.14717102 C-875.15599792 52.4127179 -875.86627136 52.67826477 -876.59806824 52.95185852 C-877.5171698 53.30506165 -878.43627136 53.65826477 -879.38322449 54.02217102 C-880.75800964 54.54424133 -880.75800964 54.54424133 -882.16056824 55.07685852 C-884.59513505 55.92907962 -884.59513505 55.92907962 -885.44572449 58.14717102 C-887.08244324 59.00654602 -887.08244324 59.00654602 -889.13322449 59.89717102 C-894.70035958 62.59578229 -898.46220745 65.73308376 -900.82072449 71.52217102 C-901.13009949 72.82154602 -901.13009949 72.82154602 -901.44572449 74.14717102 C-902.10572449 74.14717102 -902.76572449 74.14717102 -903.44572449 74.14717102 C-903.56947449 74.95154602 -903.56947449 74.95154602 -903.69572449 75.77217102 C-905.25625428 80.71384869 -908.56338757 84.78247903 -912.44572449 88.14717102 C-913.10572449 88.14717102 -913.76572449 88.14717102 -914.44572449 88.14717102 C-914.51017761 88.69888977 -914.57463074 89.25060852 -914.64103699 89.81904602 C-915.78953084 93.1418729 -917.83762376 94.93566247 -920.32072449 97.39717102 C-921.6471698 98.7352179 -921.6471698 98.7352179 -923.00041199 100.10029602 C-925.44572449 102.14717102 -925.44572449 102.14717102 -928.44572449 102.14717102 C-928.44572449 102.80717102 -928.44572449 103.46717102 -928.44572449 104.14717102 C-929.43572449 104.14717102 -930.42572449 104.14717102 -931.44572449 104.14717102 C-931.44572449 104.80717102 -931.44572449 105.46717102 -931.44572449 106.14717102 C-938.07206518 109.81345018 -944.28577123 109.56246424 -951.73292542 109.5146637 C-953.09119113 109.51668956 -954.44945541 109.52003072 -955.80771506 109.52456927 C-959.52977593 109.53319979 -963.25158639 109.52316842 -966.97362542 109.51002693 C-970.99128744 109.49911484 -975.00892671 109.50554403 -979.02659607 109.5098114 C-986.8914221 109.51544115 -994.75615053 109.50513791 -1002.62095992 109.48952344 C-1011.77446 109.47198514 -1020.92794116 109.47056424 -1030.08145542 109.46990785 C-1046.40618731 109.46822034 -1062.7308747 109.45240965 -1079.05558777 109.42842102 C-1094.90975819 109.40514065 -1110.76390039 109.39099305 -1126.61808777 109.3874054 C-1127.59541785 109.38718263 -1128.57274793 109.38695986 -1129.57969408 109.38673034 C-1131.54844334 109.38628775 -1133.5171926 109.38584573 -1135.48594186 109.38540427 C-1136.4570223 109.38518471 -1137.42810273 109.38496514 -1138.42860985 109.38473892 C-1139.39718291 109.38452294 -1140.36575597 109.38430695 -1141.36367973 109.38408442 C-1156.45858735 109.38038805 -1171.55349041 109.36903015 -1186.64839303 109.35660852 C-1192.12634204 109.35216769 -1197.60429063 109.34873176 -1203.08224075 109.3459864 C-1211.76567201 109.34156251 -1220.44908641 109.3338184 -1229.13250701 109.31921199 C-1233.10220493 109.31258657 -1237.07188789 109.30753611 -1241.04159164 109.30675125 C-1244.66944369 109.30596838 -1248.29725785 109.30060184 -1251.92509814 109.29143175 C-1253.87156064 109.28770644 -1255.8180306 109.28890908 -1257.76449621 109.29023862 C-1259.47483807 109.2844769 -1259.47483807 109.2844769 -1261.21973228 109.27859879 C-1262.2119442 109.27735229 -1263.20415612 109.27610579 -1264.22643507 109.27482152 C-1266.44572449 109.14717102 -1266.44572449 109.14717102 -1267.44572449 108.14717102 C-1270.51939798 107.99828397 -1273.57307446 107.91164081 -1276.64884949 107.86592102 C-1277.59645142 107.8475116 -1278.54405334 107.82910217 -1279.52037048 107.81013489 C-1282.57875635 107.75120549 -1285.63720536 107.69868394 -1288.69572449 107.64717102 C-1303.62969772 107.38662396 -1318.53007339 106.94546256 -1333.44572449 106.14717102 C-1333.44572449 105.48717102 -1333.44572449 104.82717102 -1333.44572449 104.14717102 C-1334.08896667 104.18197571 -1334.73220886 104.2167804 -1335.39494324 104.25263977 C-1343.12719059 104.48427628 -1349.99379897 103.13751043 -1357.44572449 101.14717102 C-1357.44572449 100.48717102 -1357.44572449 99.82717102 -1357.44572449 99.14717102 C-1358.72769714 99.05629211 -1358.72769714 99.05629211 -1360.03556824 98.96357727 C-1361.69265808 98.83789368 -1361.69265808 98.83789368 -1363.38322449 98.70967102 C-1364.48537292 98.62846008 -1365.58752136 98.54724915 -1366.72306824 98.46357727 C-1369.44572449 98.14717102 -1369.44572449 98.14717102 -1370.44572449 97.14717102 C-1373.13435113 96.74723416 -1375.80924666 96.3958256 -1378.50822449 96.08467102 C-1379.26683777 95.99379211 -1380.02545105 95.90291321 -1380.80705261 95.8092804 C-1382.68615459 95.58473362 -1384.56588543 95.36546124 -1386.44572449 95.14717102 C-1386.44572449 94.48717102 -1386.44572449 93.82717102 -1386.44572449 93.14717102 C-1387.58009949 93.16779602 -1388.71447449 93.18842102 -1389.88322449 93.20967102 C-1393.44572449 93.14717102 -1393.44572449 93.14717102 -1394.44572449 92.14717102 C-1402.72225919 90.862101 -1411.15712612 90.99113819 -1419.50822449 91.02217102 C-1420.80139587 91.02482971 -1422.09456726 91.0274884 -1423.42692566 91.03022766 C-1432.37517868 91.06492434 -1441.31566346 91.25939565 -1450.25822449 91.58467102 C-1451.37269958 91.62382629 -1452.48717468 91.66298157 -1453.63542175 91.70332336 C-1454.65176697 91.74537903 -1455.66811218 91.78743469 -1456.71525574 91.83076477 C-1457.60833435 91.86742249 -1458.50141296 91.9040802 -1459.42155457 91.94184875 C-1461.44044863 91.93118268 -1461.44044863 91.93118268 -1462.44572449 93.14717102 C-1463.77458522 93.29103206 -1465.11021036 93.3739339 -1466.44572449 93.42842102 C-1467.25009949 93.46580383 -1468.05447449 93.50318665 -1468.88322449 93.54170227 C-1470.59155782 93.61201477 -1472.29989115 93.68232727 -1474.00822449 93.75263977 C-1474.81259949 93.79002258 -1475.61697449 93.8274054 -1476.44572449 93.86592102 C-1477.18822449 93.89621399 -1477.93072449 93.92650696 -1478.69572449 93.9577179 C-1480.47261304 93.96509515 -1480.47261304 93.96509515 -1481.44572449 95.14717102 C-1491.93418449 97.0206822 -1503.02314894 96.25800226 -1513.63322449 96.20967102 C-1515.55835353 96.20464627 -1517.48348385 96.20008509 -1519.40861511 96.19599915 C-1524.08768333 96.18507017 -1528.76668966 96.16785922 -1533.44572449 96.14717102 C-1533.44572449 96.80717102 -1533.44572449 97.46717102 -1533.44572449 98.14717102 C-1543.47010134 98.87621661 -1553.38962256 99.28858495 -1563.44572449 99.14717102 C-1563.44572449 99.80717102 -1563.44572449 100.46717102 -1563.44572449 101.14717102 C-1564.30037292 101.27994446 -1565.15502136 101.4127179 -1566.03556824 101.54951477 C-1567.69265808 101.81441711 -1567.69265808 101.81441711 -1569.38322449 102.08467102 C-1570.48537292 102.25869446 -1571.58752136 102.4327179 -1572.72306824 102.61201477 C-1575.34999378 102.86562238 -1575.34999378 102.86562238 -1576.44572449 104.14717102 C-1578.44530812 104.18797885 -1580.44617703 104.18971458 -1582.44572449 104.14717102 C-1582.44572449 104.80717102 -1582.44572449 105.46717102 -1582.44572449 106.14717102 C-1583.44474792 106.27994446 -1584.44377136 106.4127179 -1585.47306824 106.54951477 C-1586.7634198 106.72611633 -1588.05377136 106.9027179 -1589.38322449 107.08467102 C-1590.67099792 107.25869446 -1591.95877136 107.4327179 -1593.28556824 107.61201477 C-1596.30038762 107.80879525 -1596.30038762 107.80879525 -1597.44572449 109.14717102 C-1599.50342211 109.4709861 -1601.56727326 109.75604849 -1603.63322449 110.02217102 C-1608.50723891 110.72986089 -1612.12628924 111.7240732 -1616.44572449 114.14717102 C-1621.30083491 115.20922643 -1626.06207294 115.36261276 -1631.00822449 115.39717102 C-1632.12100769 115.42810852 -1632.12100769 115.42810852 -1633.25627136 115.45967102 C-1637.78751403 115.49195058 -1640.7870504 115.13206949 -1644.44572449 112.14717102 C-1644.44572449 111.48717102 -1644.44572449 110.82717102 -1644.44572449 110.14717102 C-1645.7419574 110.1325885 -1647.03819031 110.11800598 -1648.373703 110.10298157 C-1653.20275357 110.04482003 -1658.03134656 109.96758811 -1662.86003113 109.88471985 C-1664.94621836 109.85155441 -1667.03249351 109.82349659 -1669.11882019 109.80073547 C-1672.12530328 109.76703533 -1675.13098674 109.71471134 -1678.13713074 109.65888977 C-1679.06344803 109.65249985 -1679.98976532 109.64610992 -1680.94415283 109.63952637 C-1686.51785095 109.51420989 -1690.47454072 108.70267483 -1695.44572449 106.14717102 C-1695.44572449 105.48717102 -1695.44572449 104.82717102 -1695.44572449 104.14717102 C-1697.42572449 103.81717102 -1699.40572449 103.48717102 -1701.44572449 103.14717102 C-1701.44572449 102.48717102 -1701.44572449 101.82717102 -1701.44572449 101.14717102 C-1703.09572449 101.14717102 -1704.74572449 101.14717102 -1706.44572449 101.14717102 C-1706.44572449 100.48717102 -1706.44572449 99.82717102 -1706.44572449 99.14717102 C-1709.08572449 98.81717102 -1711.72572449 98.48717102 -1714.44572449 98.14717102 C-1714.44572449 97.48717102 -1714.44572449 96.82717102 -1714.44572449 96.14717102 C-1715.86393242 96.15383286 -1715.86393242 96.15383286 -1717.31079102 96.16062927 C-1726.21310867 96.20114087 -1735.11540766 96.23113882 -1744.01779652 96.25079536 C-1748.59480437 96.26124064 -1753.17173792 96.27541339 -1757.748703 96.29804993 C-1762.16422953 96.31975181 -1766.5796845 96.33173404 -1770.99526024 96.33692551 C-1772.68139968 96.34062604 -1774.36753513 96.3478521 -1776.05364418 96.35863113 C-1778.41204473 96.37311086 -1780.7701481 96.37515045 -1783.12858582 96.3742218 C-1783.82845612 96.38141235 -1784.52832642 96.38860291 -1785.24940491 96.39601135 C-1788.88676014 96.3804733 -1790.32647686 96.22666944 -1793.44572449 94.14717102 C-1793.44572449 94.80717102 -1793.44572449 95.46717102 -1793.44572449 96.14717102 C-1805.65572449 95.81717102 -1817.86572449 95.48717102 -1830.44572449 95.14717102 C-1830.44572449 94.48717102 -1830.44572449 93.82717102 -1830.44572449 93.14717102 C-1834.07572449 93.14717102 -1837.70572449 93.14717102 -1841.44572449 93.14717102 C-1841.44572449 92.48717102 -1841.44572449 91.82717102 -1841.44572449 91.14717102 C-1842.31455261 91.15877258 -1843.18338074 91.17037415 -1844.07853699 91.18232727 C-1845.23095886 91.19135071 -1846.38338074 91.20037415 -1847.57072449 91.20967102 C-1848.70767761 91.22127258 -1849.84463074 91.23287415 -1851.01603699 91.24482727 C-1854.25864009 91.15249803 -1857.26505061 90.76107008 -1860.44572449 90.14717102 C-1860.44572449 89.48717102 -1860.44572449 88.82717102 -1860.44572449 88.14717102 C-1861.35064636 88.07369446 -1861.35064636 88.07369446 -1862.27384949 87.99873352 C-1863.07306824 87.9239679 -1863.87228699 87.84920227 -1864.69572449 87.77217102 C-1865.48463074 87.70256165 -1866.27353699 87.63295227 -1867.08634949 87.56123352 C-1869.53160148 87.13209989 -1871.29409352 86.36116464 -1873.44572449 85.14717102 C-1873.44572449 84.48717102 -1873.44572449 83.82717102 -1873.44572449 83.14717102 C-1877.40572449 82.65217102 -1877.40572449 82.65217102 -1881.44572449 82.14717102 C-1881.44572449 81.48717102 -1881.44572449 80.82717102 -1881.44572449 80.14717102 C-1883.05447449 79.96154602 -1883.05447449 79.96154602 -1884.69572449 79.77217102 C-1887.82436064 79.25073166 -1889.78052873 78.74628848 -1892.44572449 77.14717102 C-1892.44572449 76.48717102 -1892.44572449 75.82717102 -1892.44572449 75.14717102 C-1893.74509949 75.04404602 -1895.04447449 74.94092102 -1896.38322449 74.83467102 C-1901.34732801 74.29886302 -1905.78820783 72.89786877 -1910.44572449 71.14717102 C-1910.44572449 70.48717102 -1910.44572449 69.82717102 -1910.44572449 69.14717102 C-1912.75572449 68.81717102 -1915.06572449 68.48717102 -1917.44572449 68.14717102 C-1917.44572449 67.48717102 -1917.44572449 66.82717102 -1917.44572449 66.14717102 C-1919.09572449 66.14717102 -1920.74572449 66.14717102 -1922.44572449 66.14717102 C-1922.44572449 65.48717102 -1922.44572449 64.82717102 -1922.44572449 64.14717102 C-1923.22947449 64.18842102 -1924.01322449 64.22967102 -1924.82072449 64.27217102 C-1927.44572449 64.14717102 -1927.44572449 64.14717102 -1929.44572449 62.14717102 C-1931.64276959 61.47065896 -1931.64276959 61.47065896 -1934.07072449 61.02217102 C-1934.88799011 60.8545929 -1935.70525574 60.68701477 -1936.54728699 60.51435852 C-1937.17377136 60.39318665 -1937.80025574 60.27201477 -1938.44572449 60.14717102 C-1938.44572449 59.48717102 -1938.44572449 58.82717102 -1938.44572449 58.14717102 C-1941.06417549 57.59566577 -1943.66115731 57.11752699 -1946.31291199 56.75263977 C-1952.71837653 55.86252976 -1956.98731922 54.53138229 -1962.44572449 51.14717102 C-1965.71884917 50.36263756 -1965.71884917 50.36263756 -1968.44572449 50.14717102 C-1968.44572449 49.48717102 -1968.44572449 48.82717102 -1968.44572449 48.14717102 C-1969.04900574 48.09818665 -1969.65228699 48.04920227 -1970.27384949 47.99873352 C-1971.07306824 47.9239679 -1971.87228699 47.84920227 -1972.69572449 47.77217102 C-1973.48463074 47.70256165 -1974.27353699 47.63295227 -1975.08634949 47.56123352 C-1977.54864468 47.12910887 -1979.24612165 46.30106103 -1981.44572449 45.14717102 C-1983.43682849 44.7642664 -1985.43672961 44.42112487 -1987.44572449 44.14717102 C-1987.44572449 43.48717102 -1987.44572449 42.82717102 -1987.44572449 42.14717102 C-1991.40572449 41.65217102 -1991.40572449 41.65217102 -1995.44572449 41.14717102 C-1995.44572449 40.48717102 -1995.44572449 39.82717102 -1995.44572449 39.14717102 C-1997.09572449 39.14717102 -1998.74572449 39.14717102 -2000.44572449 39.14717102 C-2000.44572449 38.48717102 -2000.44572449 37.82717102 -2000.44572449 37.14717102 C-2007.37572449 36.65217102 -2007.37572449 36.65217102 -2014.44572449 36.14717102 C-2014.44572449 35.48717102 -2014.44572449 34.82717102 -2014.44572449 34.14717102 C-2027.97572449 34.14717102 -2041.50572449 34.14717102 -2055.44572449 34.14717102 C-2055.44572449 34.80717102 -2055.44572449 35.46717102 -2055.44572449 36.14717102 C-2056.10572449 36.14717102 -2056.76572449 36.14717102 -2057.44572449 36.14717102 C-2057.44572449 35.48717102 -2057.44572449 34.82717102 -2057.44572449 34.14717102 C-2058.43572449 34.80717102 -2059.42572449 35.46717102 -2060.44572449 36.14717102 C-2063.50192261 36.42564392 -2063.50192261 36.42564392 -2067.30387878 36.46601868 C-2067.99682037 36.4760643 -2068.68976196 36.48610992 -2069.40370178 36.49645996 C-2071.69244055 36.52733262 -2073.98106213 36.54433813 -2076.26994324 36.56123352 C-2077.85750337 36.57994192 -2079.44505353 36.59951509 -2081.03259277 36.61991882 C-2085.20987572 36.67128085 -2089.38719091 36.71088468 -2093.56462097 36.74806213 C-2097.82780462 36.78807633 -2102.09085363 36.83918044 -2106.35392761 36.88935852 C-2114.71776799 36.98616598 -2123.0816749 37.07055523 -2131.44572449 37.14717102 C-2131.44572449 37.80717102 -2131.44572449 38.46717102 -2131.44572449 39.14717102 C-2132.62134949 39.27092102 -2133.79697449 39.39467102 -2135.00822449 39.52217102 C-2137.86761054 39.87013864 -2140.27533579 40.39033295 -2143.07072449 41.20967102 C-2146.37601081 42.12780611 -2149.03784922 42.31340884 -2152.44572449 42.14717102 C-2152.44572449 42.80717102 -2152.44572449 43.46717102 -2152.44572449 44.14717102 C-2155.08572449 44.47717102 -2157.72572449 44.80717102 -2160.44572449 45.14717102 C-2160.44572449 45.80717102 -2160.44572449 46.46717102 -2160.44572449 47.14717102 C-2161.76572449 47.14717102 -2163.08572449 47.14717102 -2164.44572449 47.14717102 C-2164.44572449 47.80717102 -2164.44572449 48.46717102 -2164.44572449 49.14717102 C-2186.12257154 49.97153579 -2207.7541356 50.28368857 -2229.44572449 50.14717102 C-2229.44572449 50.80717102 -2229.44572449 51.46717102 -2229.44572449 52.14717102 C-2239.14750677 52.90809512 -2248.71048161 53.28217439 -2258.44572449 53.14717102 C-2258.44572449 53.80717102 -2258.44572449 54.46717102 -2258.44572449 55.14717102 C-2260.75572449 55.14717102 -2263.06572449 55.14717102 -2265.44572449 55.14717102 C-2265.44572449 55.80717102 -2265.44572449 56.46717102 -2265.44572449 57.14717102 C-2268.41572449 57.64217102 -2268.41572449 57.64217102 -2271.44572449 58.14717102 C-2271.44572449 58.80717102 -2271.44572449 59.46717102 -2271.44572449 60.14717102 C-2276.81752625 62.77592507 -2281.4906505 63.75556752 -2287.44572449 64.14717102 C-2287.44572449 64.80717102 -2287.44572449 65.46717102 -2287.44572449 66.14717102 C-2288.43572449 66.14717102 -2289.42572449 66.14717102 -2290.44572449 66.14717102 C-2290.44572449 66.80717102 -2290.44572449 67.46717102 -2290.44572449 68.14717102 C-2292.09572449 68.47717102 -2293.74572449 68.80717102 -2295.44572449 69.14717102 C-2295.44572449 69.80717102 -2295.44572449 70.46717102 -2295.44572449 71.14717102 C-2298.35121331 73.18886587 -2299.84714494 74.14717102 -2303.44572449 74.14717102 C-2303.44572449 74.80717102 -2303.44572449 75.46717102 -2303.44572449 76.14717102 C-2305.42572449 76.47717102 -2307.40572449 76.80717102 -2309.44572449 77.14717102 C-2309.44572449 77.80717102 -2309.44572449 78.46717102 -2309.44572449 79.14717102 C-2322.60698088 80.87323743 -2336.27735298 80.8043144 -2349.44572449 79.14717102 C-2349.44572449 78.48717102 -2349.44572449 77.82717102 -2349.44572449 77.14717102 C-2350.41509949 77.16779602 -2351.38447449 77.18842102 -2352.38322449 77.20967102 C-2355.44572449 77.14717102 -2355.44572449 77.14717102 -2356.44572449 76.14717102 C-2358.98539046 76.04720017 -2361.49792525 76.01276002 -2364.03813171 76.02018738 C-2364.84274039 76.01862739 -2365.64734906 76.0170674 -2366.47633982 76.01546013 C-2369.19336646 76.01144681 -2371.91033798 76.01464105 -2374.62736511 76.01777649 C-2376.56675245 76.0164226 -2378.50613953 76.01464273 -2380.44552612 76.01246643 C-2385.72842979 76.00789068 -2391.01131403 76.00968224 -2396.29421806 76.01284552 C-2401.80976796 76.01536839 -2407.32531613 76.01303178 -2412.84086609 76.01145935 C-2422.10515137 76.00963744 -2431.36942869 76.01204452 -2440.63371277 76.01679993 C-2451.36110335 76.02224259 -2462.08847492 76.02047994 -2472.81586504 76.01497352 C-2482.00818307 76.010443 -2491.20049537 76.00979154 -2500.39281416 76.01241219 C-2505.89086691 76.0139753 -2511.38891071 76.01416781 -2516.88696289 76.0108757 C-2522.05459297 76.00799787 -2527.22219842 76.00997106 -2532.38982582 76.01576996 C-2534.29222383 76.01709803 -2536.1946239 76.01670265 -2538.0970211 76.01450729 C-2540.68248162 76.01179762 -2543.26786193 76.01517465 -2545.85331726 76.02018738 C-2546.99770004 76.0168413 -2546.99770004 76.0168413 -2548.16520166 76.01342762 C-2551.59412386 75.7180015 -2551.59412386 75.7180015 -2554.44572449 77.14717102 C-2556.51834525 77.23484214 -2558.59392743 77.25412975 -2560.66838074 77.24482727 C-2561.92843933 77.24160461 -2563.18849792 77.23838196 -2564.48674011 77.23506165 C-2565.82723557 77.22670505 -2567.16773037 77.21824009 -2568.50822449 77.20967102 C-2569.85262391 77.20465762 -2571.19702508 77.20009444 -2572.54142761 77.19599915 C-2575.84290389 77.1841659 -2579.14429252 77.16768073 -2582.44572449 77.14717102 C-2582.44572449 77.80717102 -2582.44572449 78.46717102 -2582.44572449 79.14717102 C-2583.37513855 79.2683429 -2584.30455261 79.38951477 -2585.26213074 79.51435852 C-2592.94367721 80.45665349 -2592.94367721 80.45665349 -2600.44572449 82.27217102 C-2603.5876018 83.1885519 -2606.19116013 83.30593026 -2609.44572449 83.14717102 C-2609.44572449 83.80717102 -2609.44572449 84.46717102 -2609.44572449 85.14717102 C-2610.43572449 85.14717102 -2611.42572449 85.14717102 -2612.44572449 85.14717102 C-2612.44572449 85.80717102 -2612.44572449 86.46717102 -2612.44572449 87.14717102 C-2613.43572449 87.55967102 -2614.42572449 87.97217102 -2615.44572449 88.39717102 C-2618.92192659 89.87085507 -2622.23538212 91.57454085 -2625.55119324 93.37763977 C-2627.44572449 94.14717102 -2627.44572449 94.14717102 -2631.44572449 94.14717102 C-2631.44572449 94.80717102 -2631.44572449 95.46717102 -2631.44572449 96.14717102 C-2633.81583687 97.16034883 -2636.19071831 98.15773025 -2638.57072449 99.14717102 C-2639.23588074 99.4333429 -2639.90103699 99.71951477 -2640.58634949 100.01435852 C-2644.7046469 101.71012804 -2647.90912911 102.48635572 -2652.44572449 102.14717102 C-2652.44572449 102.80717102 -2652.44572449 103.46717102 -2652.44572449 104.14717102 C-2654.10105071 105.16583331 -2655.76832587 106.16527915 -2657.44572449 107.14717102 C-2657.77572449 107.80717102 -2658.10572449 108.46717102 -2658.44572449 109.14717102 C-2707.28572449 109.14717102 -2756.12572449 109.14717102 -2806.44572449 109.14717102 C-2806.44572449 103.86717102 -2806.44572449 98.58717102 -2806.44572449 93.14717102 C-2804.73239426 93.14796661 -2803.01906403 93.14876221 -2801.2538147 93.14958191 C-2785.11223433 93.15318322 -2768.97098786 93.12577553 -2752.8295126 93.06689262 C-2744.53086215 93.03741443 -2736.23246754 93.0190662 -2727.9337616 93.02705383 C-2720.6993072 93.03398872 -2713.46524884 93.01990373 -2706.23089176 92.98073494 C-2702.40135611 92.96073069 -2698.57244211 92.95114627 -2694.74287224 92.96674728 C-2691.13509461 92.98111228 -2687.52850274 92.96728265 -2683.92087746 92.93221855 C-2681.97204432 92.92050302 -2680.02310301 92.93833006 -2678.07432556 92.95715332 C-2670.58690733 92.90438896 -2670.58690733 92.90438896 -2664.36602783 89.16136169 C-2663.88640122 88.62306292 -2663.40677462 88.08476414 -2662.91261387 87.53015327 C-2661.0889293 85.81078477 -2659.70388048 85.54634182 -2657.25822449 85.14717102 C-2652.07192055 84.28868726 -2647.92498498 82.01865561 -2643.30119324 79.59248352 C-2640.94115226 78.39793474 -2638.69075942 77.43759062 -2636.19572449 76.58467102 C-2631.87613711 75.0701269 -2628.26864781 72.62319942 -2624.44572449 70.14717102 C-2619.47212351 67.0951886 -2614.65629872 66.37596003 -2608.95744324 65.57685852 C-2606.51370651 65.40773525 -2606.51370651 65.40773525 -2605.44572449 64.14717102 C-2604.41447449 64.00279602 -2603.38322449 63.85842102 -2602.32072449 63.70967102 C-2598.56004255 63.28868426 -2598.56004255 63.28868426 -2595.57072449 62.14717102 C-2589.74966761 60.43559728 -2583.58819621 60.71452173 -2577.57072449 60.58467102 C-2575.11489023 60.52505108 -2572.65914763 60.46147618 -2570.20353699 60.39326477 C-2569.12217468 60.36933655 -2568.04081238 60.34540833 -2566.92668152 60.320755 C-2564.50369541 60.42381834 -2564.50369541 60.42381834 -2563.44572449 59.14717102 C-2560.66501569 59.04483379 -2557.90899566 59.00831435 -2555.12768555 59.01345825 C-2554.24493365 59.0111927 -2553.36218176 59.00892714 -2552.45267981 59.00659293 C-2549.47093756 59.00022231 -2546.4892404 59.00108425 -2543.50749207 59.00190735 C-2541.37917522 58.99891768 -2539.25085892 58.99551561 -2537.12254333 58.99172974 C-2531.32279498 58.98286397 -2525.52306137 58.98055049 -2519.72330689 58.97991395 C-2514.88737191 58.97896664 -2510.05144039 58.97529023 -2505.21550673 58.97174186 C-2493.80616023 58.96358682 -2482.39682162 58.9611585 -2470.98747253 58.96186829 C-2459.2092999 58.96246875 -2447.43117312 58.95192568 -2435.6530121 58.93612462 C-2425.551918 58.92305516 -2415.45083889 58.91768417 -2405.34973639 58.9183237 C-2399.31215951 58.91857894 -2393.27462331 58.91571337 -2387.23705482 58.90514565 C-2381.55640774 58.89547516 -2375.8758403 58.89537831 -2370.19519043 58.90266228 C-2368.10944693 58.90370956 -2366.02369851 58.90133675 -2363.93796349 58.89530182 C-2361.09144213 58.88759898 -2358.24519693 58.89221554 -2355.39868164 58.89993286 C-2354.57250503 58.8947893 -2353.74632842 58.88964574 -2352.89511615 58.88434631 C-2348.32870521 58.91171761 -2344.76263282 59.4882069 -2340.44572449 61.14717102 C-2328.42146412 62.88216468 -2318.92898203 62.57762281 -2308.44572449 56.14717102 C-2306.92978699 54.87873352 -2306.92978699 54.87873352 -2305.38322449 53.58467102 C-2300.84053102 49.81520198 -2295.81641235 47.77339046 -2290.13322449 46.27217102 C-2285.61136282 44.89262 -2281.67389544 42.80045344 -2277.50822449 40.58467102 C-2269.68034829 36.91036178 -2262.12380585 36.60235752 -2253.57072449 36.08467102 C-2251.11473865 35.93117191 -2248.65898832 35.77383918 -2246.20353699 35.61201477 C-2245.12217468 35.54619202 -2244.04081238 35.48036926 -2242.92668152 35.41255188 C-2240.50541077 35.41615319 -2240.50541077 35.41615319 -2239.44572449 34.14717102 C-2237.01126536 33.99967412 -2234.60143882 33.91228567 -2232.16447449 33.86592102 C-2231.0714502 33.83830688 -2231.0714502 33.83830688 -2229.9563446 33.81013489 C-2226.82616821 33.73120598 -2223.6957681 33.66363352 -2220.56535339 33.59492493 C-2218.28578199 33.54329948 -2216.00640177 33.48600841 -2213.72697449 33.42842102 C-2213.01343811 33.41484558 -2212.29990173 33.40127014 -2211.56474304 33.38728333 C-2208.2187245 33.58789865 -2208.2187245 33.58789865 -2205.44572449 32.14717102 C-2203.29540326 32.03700996 -2201.14174326 31.99120005 -2198.98869324 31.97138977 C-2197.63386085 31.94814157 -2196.27904318 31.92402241 -2194.92424011 31.89912415 C-2192.79629908 31.8643991 -2190.6688814 31.83489983 -2188.54069519 31.82124329 C-2179.22889461 31.7498422 -2171.15889722 30.75150968 -2162.44572449 27.14717102 C-2161.72610535 26.85141174 -2161.00648621 26.55565247 -2160.26506042 26.25093079 C-2159.68530457 26.01044006 -2159.10554871 25.76994934 -2158.50822449 25.52217102 C-2153.87409839 23.71564729 -2149.01236863 23.21903949 -2144.10588074 22.57685852 C-2141.53060408 22.42715175 -2141.53060408 22.42715175 -2140.44572449 21.14717102 C-2124.87671315 19.19346281 -2108.85246353 19.80602259 -2093.19572449 19.59492493 C-2089.47950634 19.54346815 -2085.76341117 19.48621131 -2082.04728699 19.42842102 C-2080.89644623 19.41484558 -2079.74560547 19.40127014 -2078.55989075 19.38728333 C-2077.5072403 19.3705658 -2076.45458984 19.35384827 -2075.37004089 19.33662415 C-2074.44043549 19.32409607 -2073.51083008 19.31156799 -2072.55305481 19.29866028 C-2070.45962103 19.37926289 -2070.45962103 19.37926289 -2069.44572449 18.14717102 C-2067.45684955 18.04786569 -2065.46442032 18.0191764 -2063.47306824 18.01777649 C-2061.55603088 18.01304825 -2061.55603088 18.01304825 -2059.6002655 18.00822449 C-2058.19458482 18.01001427 -2056.78890444 18.01206522 -2055.38322449 18.01435852 C-2053.95215336 18.01368544 -2052.52108234 18.01271538 -2051.0900116 18.01145935 C-2048.08715224 18.00998258 -2045.08432258 18.01213626 -2042.08146667 18.01679993 C-2038.22419878 18.02249722 -2034.36700045 18.0192181 -2030.50973511 18.01322746 C-2027.55358858 18.00962128 -2024.59745866 18.0107607 -2021.64131165 18.01335526 C-2020.2186838 18.01402437 -2018.79605446 18.01319665 -2017.37342834 18.0108757 C-2015.38841275 18.00834828 -2013.4033919 18.0128806 -2011.41838074 18.01777649 C-2009.72080627 18.01896988 -2009.72080627 18.01896988 -2007.98893738 18.02018738 C-2005.44572449 18.14717102 -2005.44572449 18.14717102 -2004.44572449 19.14717102 C-2002.4498866 19.4471407 -2000.44867767 19.71162011 -1998.44572449 19.95967102 C-1993.32226733 20.70835506 -1989.22625785 21.87081069 -1984.60588074 24.14326477 C-1980.71142181 25.95316702 -1976.56725095 26.97547993 -1972.44572449 28.14717102 C-1965.42103774 30.21478202 -1958.55462062 32.40818234 -1951.78556824 35.20576477 C-1946.91676904 37.16466395 -1941.93333655 38.7295957 -1936.88322449 40.14717102 C-1933.64052675 41.09050127 -1930.55399389 42.22042361 -1927.40666199 43.43232727 C-1925.65730192 44.0700422 -1923.86476818 44.58632555 -1922.07072449 45.08467102 C-1918.34822417 46.1757487 -1914.85150497 47.53727168 -1911.26603699 49.00654602 C-1907.04713163 50.71280691 -1902.78394626 52.30091777 -1898.52384949 53.90107727 C-1895.44572449 55.14717102 -1895.44572449 55.14717102 -1892.25431824 56.74482727 C-1889.4573853 58.25476675 -1889.4573853 58.25476675 -1886.25822449 59.02217102 C-1881.99700421 60.27958028 -1878.17457943 62.03983947 -1874.15666199 63.91670227 C-1871.83597101 64.97004184 -1869.52782975 65.90515877 -1867.13322449 66.77217102 C-1863.44572449 68.14717102 -1863.44572449 68.14717102 -1860.69572449 69.64717102 C-1852.50149471 73.42912322 -1843.90281852 74.4909457 -1834.96525574 74.93623352 C-1832.44572449 75.14717102 -1832.44572449 75.14717102 -1831.44572449 76.14717102 C-1824.93901335 77.17287759 -1818.32847544 77.31960983 -1811.75431824 77.42842102 C-1809.96851032 77.4661519 -1808.18270305 77.50391315 -1806.39689636 77.54170227 C-1803.61851881 77.59566096 -1800.84011643 77.64796925 -1798.06169128 77.69941711 C-1795.35496877 77.75091074 -1792.6484132 77.80816483 -1789.94181824 77.86592102 C-1789.1033989 77.87949646 -1788.26497955 77.8930719 -1787.40115356 77.90705872 C-1781.55874043 78.03415508 -1781.55874043 78.03415508 -1780.44572449 79.14717102 C-1778.16240708 79.25030335 -1775.87589294 79.28291328 -1773.59025574 79.28901672 C-1772.51444496 79.29422836 -1772.51444496 79.29422836 -1771.41690063 79.29954529 C-1769.85307089 79.30691697 -1768.28923059 79.31225479 -1766.72538757 79.31583595 C-1764.24438485 79.32299219 -1761.763581 79.33865582 -1759.28263855 79.35717773 C-1752.22618982 79.40966148 -1745.16984429 79.45755086 -1738.11320496 79.47309875 C-1733.80001826 79.48322601 -1729.48732338 79.51267907 -1725.17433167 79.55441856 C-1723.53506709 79.56667611 -1721.89573282 79.57185946 -1720.25642395 79.56962013 C-1711.52943804 79.56063959 -1704.21658256 79.72375432 -1696.44572449 84.14717102 C-1695.10081755 84.67156847 -1693.7473079 85.17489589 -1692.38322449 85.64717102 C-1682.23805044 89.35484507 -1682.23805044 89.35484507 -1679.44572449 92.14717102 C-1676.48773919 92.27052384 -1673.54953741 92.33335409 -1670.59025574 92.35810852 C-1668.75235642 92.38619112 -1666.91446592 92.41485566 -1665.07658386 92.44404602 C-1662.17123287 92.48522538 -1659.26604399 92.52209987 -1656.36051941 92.54853821 C-1653.56174862 92.57623226 -1650.76373338 92.62212086 -1647.96525574 92.67060852 C-1647.10253555 92.67386139 -1646.23981537 92.67711426 -1645.35095215 92.6804657 C-1640.23542566 92.78417265 -1636.98537711 93.58195492 -1632.44572449 96.14717102 C-1626.85460273 96.69711742 -1622.98063443 95.81075505 -1617.76213074 93.87763977 C-1614.5967409 92.8794477 -1611.49442286 92.59863861 -1608.19572449 92.35810852 C-1606.41944832 92.32669693 -1606.41944832 92.32669693 -1605.44572449 91.14717102 C-1603.89884949 90.93060852 -1603.89884949 90.93060852 -1602.32072449 90.70967102 C-1597.59886739 90.02424015 -1593.22735929 88.8101049 -1588.75822449 87.14717102 C-1584.54236903 85.87445994 -1580.30836982 85.25956965 -1575.95744324 84.61201477 C-1573.51499342 84.40531348 -1573.51499342 84.40531348 -1572.44572449 83.14717102 C-1570.31485048 82.93001189 -1568.17754165 82.77543215 -1566.03947449 82.64717102 C-1564.73881042 82.56467102 -1563.43814636 82.48217102 -1562.09806824 82.39717102 C-1560.01756436 82.27110972 -1557.93696826 82.14664716 -1555.85636902 82.02217102 C-1553.85467568 81.90088499 -1551.85331701 81.77411445 -1549.85197449 81.64717102 C-1548.64863464 81.57498352 -1547.4452948 81.50279602 -1546.20549011 81.42842102 C-1543.53816284 81.45020027 -1543.53816284 81.45020027 -1542.44572449 80.14717102 C-1539.50209272 79.99922683 -1536.57897222 79.91206386 -1533.63322449 79.86592102 C-1532.74916931 79.8475116 -1531.86511414 79.82910217 -1530.95426941 79.81013489 C-1527.15499909 79.73117203 -1523.35554362 79.66362094 -1519.55607605 79.59492493 C-1516.79003295 79.54331611 -1514.02414829 79.48601818 -1511.25822449 79.42842102 C-1509.95824524 79.40805786 -1509.95824524 79.40805786 -1508.63200378 79.38728333 C-1504.72306034 79.68719229 -1504.72306034 79.68719229 -1501.44572449 78.14717102 C-1499.24180459 77.9297981 -1497.03162629 77.77533924 -1494.82072449 77.64717102 C-1494.15862976 77.60656555 -1493.49653503 77.56596008 -1492.81437683 77.52412415 C-1489.97118489 77.34990074 -1487.12738865 77.18658069 -1484.28361511 77.02217102 C-1482.21240924 76.90089273 -1480.14158587 76.77417444 -1478.07072449 76.64717102 C-1476.82549011 76.57498352 -1475.58025574 76.50279602 -1474.29728699 76.42842102 C-1471.54885086 76.46172642 -1471.54885086 76.46172642 -1470.44572449 75.14717102 C-1467.13172326 74.75217739 -1463.77921802 74.71005434 -1460.44572449 74.58467102 C-1459.34736267 74.54293762 -1458.24900085 74.50120422 -1457.11735535 74.45820618 C-1444.41733217 74.04833913 -1431.71380455 74.03636078 -1419.00822449 74.02217102 C-1417.92919861 74.01958282 -1416.85017273 74.01699463 -1415.7384491 74.014328 C-1412.60047712 74.00840337 -1409.46260381 74.01008981 -1406.32463074 74.01435852 C-1405.39195877 74.01237961 -1404.4592868 74.0104007 -1403.49835205 74.00836182 C-1385.52227688 74.07061863 -1385.52227688 74.07061863 -1383.44572449 76.14717102 C-1381.1183046 76.5195582 -1378.78336734 76.84553969 -1376.44572449 77.14717102 C-1369.5568356 78.03605991 -1369.5568356 78.03605991 -1368.44572449 79.14717102 C-1367.41447449 79.29154602 -1366.38322449 79.43592102 -1365.32072449 79.58467102 C-1362.26731695 80.0279076 -1359.5330461 80.6546346 -1356.59416199 81.54560852 C-1352.67704956 82.6424 -1348.69605103 83.47962238 -1344.72697449 84.36592102 C-1342.52938654 84.88915625 -1340.34855841 85.4881732 -1338.19132996 86.15864563 C-1334.44995225 87.14605525 -1331.09220592 87.53206243 -1327.23478699 87.74482727 C-1326.58118195 87.78401779 -1325.9275769 87.82320831 -1325.25416565 87.86358643 C-1323.19336693 87.98636575 -1321.13219792 88.0988469 -1319.07072449 88.20967102 C-1316.98793287 88.32522151 -1314.90535511 88.44306728 -1312.82301331 88.56646729 C-1310.94967978 88.67702224 -1309.07588099 88.77960742 -1307.20207214 88.88179016 C-1304.44572449 89.14717102 -1304.44572449 89.14717102 -1303.44572449 90.14717102 C-1302.00899439 90.26419531 -1300.56672857 90.31438514 -1299.12541199 90.33662415 C-1298.20776062 90.35334167 -1297.29010925 90.3700592 -1296.34465027 90.38728333 C-1295.34675476 90.40085876 -1294.34885925 90.4144342 -1293.32072449 90.42842102 C-1291.79487732 90.45603516 -1291.79487732 90.45603516 -1290.23820496 90.48420715 C-1286.97410554 90.54316523 -1283.70995315 90.5958979 -1280.44572449 90.64717102 C-1276.15394055 90.71458454 -1271.86233371 90.78825329 -1267.57072449 90.86592102 C-1266.57282898 90.87949646 -1265.57493347 90.8930719 -1264.54679871 90.90705872 C-1263.62914734 90.92377625 -1262.71149597 90.94049377 -1261.76603699 90.9577179 C-1260.54811462 90.97651001 -1260.54811462 90.97651001 -1259.30558777 90.99568176 C-1257.44572449 91.14717102 -1257.44572449 91.14717102 -1256.44572449 92.14717102 C-1254.81791022 92.25148082 -1253.18556425 92.2856038 -1251.55442619 92.29256535 C-1250.48879979 92.29948999 -1249.42317339 92.30641462 -1248.32525527 92.3135491 C-1247.13998784 92.31609322 -1245.9547204 92.31863733 -1244.73353577 92.32125854 C-1243.4855307 92.3277575 -1242.23752564 92.33425645 -1240.95170224 92.34095234 C-1237.47124468 92.35880379 -1233.99079079 92.37021541 -1230.51030374 92.38050902 C-1227.52859615 92.39012767 -1224.5469097 92.40344373 -1221.56521676 92.41677798 C-1210.87698011 92.46444822 -1200.18871346 92.49703515 -1189.50041199 92.52607727 C-1188.6565638 92.52838485 -1187.8127156 92.53069243 -1186.94329625 92.53306994 C-1170.18426066 92.57852726 -1153.42521201 92.61705123 -1136.66613579 92.64379978 C-1132.97824461 92.64978891 -1129.29035361 92.65587453 -1125.60246277 92.6620636 C-1124.68585358 92.66359658 -1123.76924439 92.66512956 -1122.82485916 92.666709 C-1108.00070045 92.6923817 -1093.17682733 92.74922007 -1078.35281526 92.8185289 C-1063.12805869 92.88912166 -1047.90344934 92.92925322 -1032.67853177 92.94054931 C-1024.13261981 92.94769551 -1015.58720281 92.96832439 -1007.04145432 93.02357674 C-999.756974 93.07064038 -992.4730631 93.09023656 -985.18843625 93.07469524 C-981.47581204 93.06761993 -977.76440501 93.0731517 -974.05197525 93.11427307 C-952.33419533 93.68286772 -952.33419533 93.68286772 -933.44572449 84.14717102 C-930.04819883 80.75644352 -927.19869516 77.0741164 -924.44572449 73.14717102 C-923.74447449 72.30283508 -923.04322449 71.45849915 -922.32072449 70.58857727 C-920.55437786 68.28864676 -919.66213378 66.45015411 -918.63322449 63.77217102 C-916.02664139 58.33769117 -912.21932176 54.42940905 -908.00822449 50.20967102 C-907.36329041 49.55885559 -906.71835632 48.90804016 -906.05387878 48.23750305 C-902.42253083 44.69912426 -899.15086782 42.19439415 -894.44572449 40.14717102 C-893.48666199 39.40467102 -893.48666199 39.40467102 -892.50822449 38.64717102 C-885.42465551 33.49548449 -875.79581013 31.64878026 -867.25822449 30.52217102 C-864.54647943 30.45040934 -864.54647943 30.45040934 -863.44572449 29.14717102 C-860.57658154 28.92775701 -857.72576052 28.76776287 -854.85197449 28.64717102 C-853.99011536 28.60656555 -853.12825623 28.56596008 -852.24028015 28.52412415 C-848.53677185 28.34978618 -844.83279214 28.18653474 -841.12882996 28.02217102 C-838.4321888 27.90095238 -835.73584678 27.7742074 -833.03947449 27.64717102 C-832.19469543 27.6117218 -831.34991638 27.57627258 -830.47953796 27.53974915 C-826.64821704 27.71530139 -826.64821704 27.71530139 -823.44572449 26.14717102 C-821.15060952 26.04745947 -818.852379 26.01917236 -816.55509949 26.01777649 C-815.83479553 26.01602417 -815.11449158 26.01427185 -814.37236023 26.01246643 C-811.98012415 26.00804814 -809.58796138 26.01098581 -807.19572449 26.01435852 C-805.5404509 26.01368547 -803.88517742 26.01271544 -802.22990417 26.01145935 C-798.75626181 26.00998241 -795.28264512 26.01213681 -791.80900574 26.01679993 C-787.34639951 26.02249722 -782.88385341 26.01921819 -778.42124939 26.01322746 C-775.00187218 26.00962175 -771.58250934 26.01076048 -768.16313171 26.01335526 C-766.51721693 26.0140245 -764.87130086 26.0131962 -763.22538757 26.0108757 C-760.92900617 26.008349 -758.63272349 26.01218999 -756.33634949 26.01777649 C-754.37230164 26.01896988 -754.37230164 26.01896988 -752.36857605 26.02018738 C-749.44572449 26.14717102 -749.44572449 26.14717102 -748.44572449 27.14717102 C-746.1183046 27.5195582 -743.78336734 27.84553969 -741.44572449 28.14717102 C-734.5568356 29.03605991 -734.5568356 29.03605991 -733.44572449 30.14717102 C-732.04247406 30.33762546 -730.63126496 30.47032284 -729.21916199 30.57685852 C-728.35162292 30.65033508 -727.48408386 30.72381165 -726.59025574 30.79951477 C-724.76780309 30.94603071 -722.94487895 31.08681374 -721.12150574 31.22138977 C-715.55735638 31.70487256 -711.49569905 32.80559686 -706.44572449 35.14717102 C-703.41747656 35.84060093 -703.41747656 35.84060093 -700.44572449 36.20967102 C-695.97097741 36.87837544 -691.79033276 37.86934506 -687.44572449 39.14717102 C-686.29072449 39.31217102 -685.13572449 39.47717102 -683.94572449 39.64717102 C-680.28749597 40.16977509 -676.99022822 41.10125188 -673.44572449 42.14717102 C-672.5240448 42.3405304 -671.60236511 42.53388977 -670.65275574 42.73310852 C-664.29986751 44.1019184 -659.70241652 45.89090012 -654.46525574 49.74092102 C-652.28813248 51.36398189 -652.28813248 51.36398189 -648.82072449 52.64717102 C-645.85510178 53.96522556 -644.44006574 54.9035336 -642.13322449 57.02217102 C-638.83610944 59.98595136 -635.49126607 61.79244694 -631.49259949 63.67060852 C-629.14414265 64.80870683 -626.87004578 65.99125518 -624.58634949 67.24873352 C-616.80325693 71.52137796 -609.15248955 75.31297533 -600.71086121 78.11958313 C-596.55849252 79.53921947 -593.82250347 81.40221075 -590.44572449 84.14717102 C-585.14383054 86.88076143 -580.41041454 87.75868103 -574.57072449 88.27217102 C-566.55686127 89.03603424 -566.55686127 89.03603424 -565.44572449 90.14717102 C-563.45929788 90.29325395 -561.46803663 90.37454657 -559.47697449 90.42842102 C-557.66132996 90.48449524 -557.66132996 90.48449524 -555.80900574 90.54170227 C-553.89668152 90.5939093 -553.89668152 90.5939093 -551.94572449 90.64717102 C-549.43518447 90.71570952 -546.924753 90.78839378 -544.41447449 90.86592102 C-543.29492371 90.89621399 -542.17537292 90.92650696 -541.02189636 90.9577179 C-538.44572449 91.14717102 -538.44572449 91.14717102 -537.44572449 92.14717102 C-533.29078714 92.59898173 -529.12141006 92.65919251 -524.94572449 92.77217102 C-523.78556824 92.84306946 -522.62541199 92.9139679 -521.43009949 92.98701477 C-516.42528586 93.09458429 -512.86679423 93.15446055 -508.69303894 90.19599915 C-506.44183677 87.94411431 -504.43093773 85.63355128 -502.44572449 83.14717102 C-497.8747285 78.67775273 -493.22189822 76.65532641 -487.35978699 74.34248352 C-482.70646512 72.43374828 -478.62911477 69.93609788 -474.44572449 67.14717102 C-472.79395805 66.68467642 -471.14157748 66.22414438 -469.48478699 65.77998352 C-464.49851791 64.2325207 -459.78252068 62.03836849 -455.44572449 59.14717102 C-453.91578147 58.79920564 -452.37109326 58.5133395 -450.82072449 58.27217102 C-447.29879999 57.62673897 -444.35111623 56.77400656 -441.13322449 55.20967102 C-434.27943122 51.94711934 -426.68841353 50.52427964 -419.19572449 49.52217102 C-416.53927355 49.4424145 -416.53927355 49.4424145 -415.44572449 48.14717102 C-405.77471704 46.97085467 -395.97693559 46.96079996 -386.24772644 46.96186829 C-383.98606901 46.95964928 -381.72487651 46.94130868 -379.46330261 46.92256165 C-378.00041362 46.91963197 -376.53752236 46.91764433 -375.07463074 46.91670227 C-373.77598083 46.91259338 -372.47733093 46.9084845 -371.139328 46.9042511 C-367.30417131 47.15648065 -364.0928411 47.96465881 -360.44572449 49.14717102 C-359.41189636 49.4539679 -358.37806824 49.76076477 -357.31291199 50.07685852 C-351.86084681 51.79931253 -347.77484308 53.31280884 -343.44572449 57.14717102 C-342.35259949 57.55967102 -341.25947449 57.97217102 -340.13322449 58.39717102 C-336.86271806 59.67999897 -335.01537072 61.45752165 -332.63322449 64.02217102 C-329.01908424 67.86131611 -325.44977391 69.89950057 -320.68400574 72.06904602 C-317.92870849 73.39620491 -315.82942531 75.24021036 -313.44572449 77.14717102 C-310.16656239 78.92823876 -306.80834254 80.53094492 -303.44572449 82.14717102 C-301.86791199 82.98248352 -301.86791199 82.98248352 -300.25822449 83.83467102 C-293.67851326 86.90520293 -287.22868883 87.61403723 -280.07072449 88.20967102 C-278.27090209 88.36325248 -276.47139524 88.52059466 -274.67228699 88.68232727 C-273.8841864 88.74815002 -273.09608582 88.81397278 -272.28410339 88.88179016 C-270.44572449 89.14717102 -270.44572449 89.14717102 -269.44572449 90.14717102 C-268.37322449 90.29154602 -267.30072449 90.43592102 -266.19572449 90.58467102 C-262.84430963 91.08738325 -260.54116475 91.88486255 -257.44572449 93.14717102 C-249.72077779 95.55330196 -242.2565318 96.56569134 -234.18400574 96.93623352 C-231.44572449 97.14717102 -231.44572449 97.14717102 -230.44572449 98.14717102 C-228.82314904 98.24633672 -227.19632618 98.27796879 -225.57072449 98.27998352 C-224.58588074 98.28127258 -223.60103699 98.28256165 -222.58634949 98.28388977 C-221.54994324 98.28002258 -220.51353699 98.2761554 -219.44572449 98.27217102 C-218.40931824 98.27603821 -217.37291199 98.2799054 -216.30509949 98.28388977 C-215.32025574 98.28260071 -214.33541199 98.28131165 -213.32072449 98.27998352 C-211.9556073 98.27829163 -211.9556073 98.27829163 -210.56291199 98.27656555 C-208.46043969 98.38277111 -208.46043969 98.38277111 -207.44572449 97.14717102 C-205.72418294 96.97141709 -204.00203845 96.80020006 -202.27775574 96.65376282 C-193.57383039 95.86601001 -187.01420421 93.68373361 -179.44572449 89.14717102 C-178.69677917 88.74369446 -177.94783386 88.3402179 -177.17619324 87.92451477 C-172.52841003 85.30291621 -169.48664773 82.10812117 -166.10978699 78.00654602 C-163.87565894 75.51019637 -161.2874264 73.89094265 -158.44572449 72.14717102 C-157.93009949 71.63154602 -157.41447449 71.11592102 -156.88322449 70.58467102 C-155.44572449 69.14717102 -155.44572449 69.14717102 -153.19572449 67.89717102 C-150.67567667 66.29350423 -149.04736333 64.7898423 -147.00822449 62.64717102 C-144.05894016 59.60213071 -141.34354967 57.88875248 -137.44572449 56.14717102 C-133.17258512 53.71925092 -130.16600415 50.88780622 -126.75822449 47.33467102 C-121.79366774 42.25829993 -116.50690526 38.76963882 -110.44572449 35.14717102 C-108.89848053 34.09280937 -107.35648177 33.0306948 -105.82072449 31.95967102 C-101.56142639 29.10753002 -97.18950746 27.0606297 -92.44572449 25.14717102 C-91.6065448 24.79654602 -90.76736511 24.44592102 -89.90275574 24.08467102 C-86.1035806 22.52131907 -82.34584515 21.05364605 -78.38322449 19.95967102 C-75.57773827 19.44352233 -75.57773827 19.44352233 -74.44572449 18.14717102 C-73.18759949 18.06467102 -71.92947449 17.98217102 -70.63322449 17.89717102 C-63.40205792 17.18914348 -56.45883322 14.15591017 -50.44572449 10.14717102 C-48.54050313 9.77114049 -46.62068574 9.46616966 -44.69572449 9.20967102 C-41.08958404 8.66250276 -38.37121584 8.11465816 -35.00822449 6.64717102 C-30.45492736 4.72999328 -26.02003572 4.21035038 -21.14103699 3.57685852 C-18.53461824 3.43172063 -18.53461824 3.43172063 -17.44572449 2.14717102 C-14.34529675 1.82270765 -11.24365199 1.63382661 -8.13322449 1.42842102 C-4.95699659 1.09602508 -3.4100753 0.01736243 0 0 Z " fill="#CCCCCC" transform="translate(2806.4457244873047,-0.1471710205078125)"/>
</svg>
