<?xml version="1.0" encoding="UTF-8"?>
<svg version="1.1" xmlns="http://www.w3.org/2000/svg" width="1890" height="728">
<path d="M0 0 C3.83947956 -0.03171092 7.67804633 -0.08163142 11.51708984 -0.1473999 C16.11835547 -0.22466607 20.71827594 -0.26028612 25.32016754 -0.26689339 C27.02964304 -0.27570945 28.73911539 -0.29802804 30.44820404 -0.33544731 C43.11468888 -0.59826455 51.69827892 2.0576777 62.54174805 8.57119751 C63.51086624 9.13098297 64.47998444 9.69076843 65.47846985 10.26751709 C67.71903463 11.57341525 69.91455143 12.93201324 72.10424805 14.32119751 C73.56329998 15.23358959 75.02292714 16.14506249 76.4831543 17.05557251 C77.16007324 17.47902954 77.83699219 17.90248657 78.53442383 18.33877563 C81.49634367 20.15728346 84.51252973 21.86751099 87.54174805 23.57119751 C87.54174805 24.23119751 87.54174805 24.89119751 87.54174805 25.57119751 C88.32549805 25.88057251 89.10924805 26.18994751 89.91674805 26.50869751 C92.54174805 27.57119751 92.54174805 27.57119751 94.54174805 28.57119751 C94.54174805 29.23119751 94.54174805 29.89119751 94.54174805 30.57119751 C95.36674805 30.77744751 96.19174805 30.98369751 97.04174805 31.19619751 C101.53835637 32.96272221 104.76248917 35.61153694 108.54174805 38.57119751 C112.17685582 41.28293484 115.84659391 43.94195322 119.54174805 46.57119751 C120.1862793 47.03654907 120.83081055 47.50190063 121.49487305 47.98135376 C126.88972022 51.62873956 132.88191421 53.8302517 138.92456055 56.15713501 C141.78900373 57.27692813 144.56910854 58.46028728 147.35424805 59.75869751 C155.00997764 63.1502983 162.28308084 64.80088729 170.59643555 65.62197876 C171.47188522 65.70858261 172.3473349 65.79518646 173.24931335 65.88441467 C182.05691101 66.70143444 190.84903809 66.95495877 199.68969727 67.09136963 C202.42709815 67.13485477 205.16401764 67.19053338 207.90112305 67.24966431 C214.44699913 67.39093987 220.99297323 67.52512219 227.53930664 67.64346313 C230.70759379 67.70564738 233.87426031 67.79017733 237.04174805 67.88369751 C238.31755737 67.89928711 238.31755737 67.89928711 239.61914062 67.91519165 C247.10484935 68.1712113 254.34637659 70.25983381 259.91674805 75.44619751 C267.11505968 82.0487868 276.68158488 85.13789532 285.72924805 88.38369751 C286.97581177 88.83700439 286.97581177 88.83700439 288.24755859 89.29946899 C297.34474853 92.63580013 297.34474853 92.63580013 306.70507812 91.81655884 C308.99393261 90.66710709 311.1657175 89.40145324 313.35424805 88.07119751 C326.46808544 80.64940118 340.40148072 76.13665844 354.9753418 72.47354126 C357.39505697 71.86132417 359.80420963 71.20606721 362.2019043 70.51260376 C383.10296402 64.51261501 405.08016247 64.41626768 426.68237305 64.36807251 C427.99165394 64.36383144 427.99165394 64.36383144 429.32738495 64.3595047 C433.93302189 64.34467778 438.53862875 64.33534064 443.14428711 64.33096313 C447.85645971 64.32545397 452.56834703 64.30132703 457.28042984 64.27299118 C460.9507527 64.25425716 464.6210076 64.24915385 468.29137421 64.24762726 C470.02786596 64.24463245 471.76435746 64.23671367 473.50080109 64.22344208 C482.59880459 64.15877241 490.87171627 64.48452528 499.73184204 66.83666992 C503.68923131 67.87115705 507.6441886 68.36297763 511.7019043 68.81729126 C513.33670566 69.01686849 514.97147024 69.21674728 516.60620117 69.41690063 C519.10870767 69.71522078 521.61157192 70.00954134 524.11523438 70.29800415 C533.02188914 71.33443071 541.34487705 72.4689698 549.80322266 75.60073853 C553.57670955 76.93795974 557.41457442 77.77128706 561.31591797 78.64834595 C571.91624131 81.04513741 580.95385006 84.20258971 590.4206543 89.45742798 C592.81683972 90.71564597 595.25552616 91.82107216 597.72924805 92.91885376 C606.76318876 96.94665355 614.58662906 100.81201611 621.84521484 107.58804321 C626.96289219 112.25678685 632.76088921 115.03269701 639.01049805 117.91494751 C642.54174805 119.57119751 642.54174805 119.57119751 645.0456543 121.19229126 C648.24036702 122.95713256 651.42312003 123.54595395 654.97924805 124.13369751 C655.67719482 124.25736694 656.3751416 124.38103638 657.09423828 124.50845337 C662.89622955 125.5171244 668.72525314 126.31381006 674.5612793 127.09854126 C677.54174805 127.57119751 677.54174805 127.57119751 681.29174805 128.69619751 C692.82328624 131.80084241 704.90885881 127.46969477 715.8984375 123.77993774 C721.66497449 121.88070898 727.12158076 121.12867223 733.15966797 120.59732056 C746.3329535 119.34765589 757.27114502 116.3019697 769.22924805 110.75869751 C769.87751556 110.46055145 770.52578308 110.1624054 771.19369507 109.85522461 C782.566556 104.55974133 792.28856793 98.00535792 801.54174805 89.57119751 C802.38092773 88.82354126 803.22010742 88.07588501 804.0847168 87.30557251 C809.18123698 82.77973819 809.18123698 82.77973819 813.97924805 77.94619751 C818.55066213 73.70927714 824.12154012 70.10237121 829.8190918 67.55166626 C831.89533137 66.62389594 831.89533137 66.62389594 832.54174805 63.57119751 C834.65112305 61.88760376 834.65112305 61.88760376 837.29174805 60.13369751 C840.14779817 58.20790371 842.86533141 56.30828603 845.54174805 54.13369751 C847.54174805 52.57119751 847.54174805 52.57119751 849.54174805 52.57119751 C849.54174805 51.91119751 849.54174805 51.25119751 849.54174805 50.57119751 C851.22924805 49.27432251 851.22924805 49.27432251 853.54174805 47.82119751 C856.59505082 45.85700118 859.54565955 43.85551496 862.41674805 41.63369751 C866.30081366 38.68241931 870.35614773 36.0780493 874.4909668 33.49307251 C876.65695572 32.12858269 878.80155935 30.7483073 880.9362793 29.33682251 C891.89339688 22.10862267 901.79617771 16.48559556 914.94018555 14.22354126 C918.13276773 13.64527529 921.12694927 12.88046328 924.22924805 11.94619751 C929.98569457 10.32454369 935.58203234 9.83128485 941.54174805 9.57119751 C942.57557617 9.49514282 943.6094043 9.41908813 944.67456055 9.34072876 C962.87528388 8.54471604 980.51817851 15.14911379 996.35424805 23.57119751 C997.17344727 23.99658813 997.99264648 24.42197876 998.83666992 24.86026001 C1003.09827149 27.11010958 1006.86573093 29.4183843 1010.54174805 32.57119751 C1011.53174805 33.23119751 1012.52174805 33.89119751 1013.54174805 34.57119751 C1013.54174805 263.59119751 1013.54174805 492.61119751 1013.54174805 728.57119751 C389.84174805 728.57119751 -233.85825195 728.57119751 -876.45825195 728.57119751 C-876.45825195 188.57119751 -876.45825195 188.57119751 -875.45825195 187.57119751 C-873.97993528 187.47457535 -872.49709568 187.4460408 -871.015625 187.44522095 C-869.58832314 187.43919357 -869.58832314 187.43919357 -868.13218689 187.43304443 C-867.08865555 187.4322287 -866.04512421 187.43141296 -864.9699707 187.43057251 C-862.74567562 187.416092 -860.5213911 187.39991243 -858.29711914 187.38223267 C-857.12773804 187.3731488 -855.95835693 187.36406494 -854.75354004 187.35470581 C-821.42415387 187.35756834 -821.42415387 187.35756834 -789.30004883 179.30361938 C-787.49162487 178.58446882 -785.6503185 177.94984136 -783.80981445 177.31729126 C-770.23061749 172.54891497 -757.72024075 165.8966246 -746.0715332 157.42666626 C-742.61844932 154.97492509 -739.08779253 152.66553595 -735.52075195 150.38369751 C-734.88830566 149.96733032 -734.25585938 149.55096313 -733.60424805 149.12197876 C-724.45729709 143.32589102 -714.57874004 140.93951618 -704.02075195 139.07119751 C-701.71983315 138.6474646 -699.41905307 138.22297773 -697.1184082 137.79776001 C-695.42675537 137.48886841 -695.42675537 137.48886841 -693.70092773 137.17373657 C-688.29324706 136.16890628 -682.90834413 135.05483877 -677.52172852 133.94351196 C-673.63108833 133.15483653 -669.75460117 132.44586417 -665.8215332 131.90322876 C-654.80553533 130.37136619 -645.51032969 127.3001204 -635.45825195 122.57119751 C-634.60134766 122.16836548 -633.74444336 121.76553345 -632.86157227 121.35049438 C-628.05626227 119.07889329 -623.26639909 116.77644739 -618.48168945 114.46182251 C-610.5453183 110.6340239 -602.52939242 106.9843916 -594.5090332 103.33682251 C-590.42978062 101.48039618 -586.36701026 99.59299933 -582.3137207 97.68057251 C-570.62883139 92.19067712 -558.97103639 87.26862221 -546.68237305 83.29580688 C-544.62552967 82.62569589 -542.58268395 81.92449445 -540.5402832 81.21182251 C-514.06040191 72.32116806 -485.59314253 69.74990725 -457.95825195 66.88369751 C-456.82814697 66.7642981 -455.69804199 66.64489868 -454.53369141 66.5218811 C-435.35342352 64.62919062 -416.07937797 64.40291497 -396.8215332 64.25479126 C-394.48650359 64.23408621 -392.15147656 64.21308785 -389.81645203 64.19181824 C-384.93624607 64.14821257 -380.05602789 64.10729173 -375.17578125 64.06851196 C-369.09020905 64.02006601 -363.00470034 63.96627014 -356.91919136 63.91049767 C-352.1245365 63.86694816 -347.32986439 63.82565415 -342.53518295 63.78514481 C-340.14293966 63.76491071 -337.75069971 63.74427835 -335.35846329 63.72324753 C-322.34278221 63.61115195 -309.33113442 63.5576858 -296.31518555 63.64981079 C-294.01962859 63.66271725 -291.72407093 63.67550092 -289.42851257 63.68815613 C-285.18445892 63.7120894 -280.94131342 63.75591911 -276.69758606 63.81251526 C-251.3959019 64.0689362 -251.3959019 64.0689362 -227.4543457 56.94619751 C-223.63448503 55.19314541 -219.7148012 54.00979921 -215.70825195 52.75869751 C-208.14407361 50.34010488 -201.2166145 47.2074506 -194.2043457 43.50088501 C-191.53612769 42.09217415 -188.83650882 40.84006649 -186.06762695 39.64151001 C-182.12711081 37.91876548 -178.38681584 35.94637238 -174.62402344 33.86831665 C-168.31828849 30.39260654 -162.45673067 27.28784287 -155.39575195 25.63369751 C-146.74688729 23.52471293 -139.84009761 18.5588146 -132.43334961 13.81436157 C-98.64357737 -7.45356429 -38.48113198 0.30684998 0 0 Z " fill="#BBBBBB" transform="translate(876.458251953125,-0.571197509765625)"/>
</svg>
