<?xml version="1.0" encoding="UTF-8"?>
<svg version="1.1" xmlns="http://www.w3.org/2000/svg" width="1890" height="830">
<path d="M0 0 C1.36263124 -0.00986451 2.72523812 -0.02429122 4.08776855 -0.0435791 C15.31347233 -0.18253412 24.40359972 0.49600206 33.37811279 7.73504639 C33.91589355 8.16535156 34.45367432 8.59565674 35.00775146 9.03900146 C40.80291436 13.7496206 46.23415546 18.86766634 51.66424561 23.98895264 C54.08661159 26.25095293 56.59152931 28.41437818 59.10076904 30.57879639 C61.49904925 32.67669558 63.84020096 34.83370361 66.19061279 36.98504639 C68.82533952 39.3696153 71.37629577 41.64150833 74.37811279 43.54754639 C77.37764853 45.50073245 79.5332669 47.76520049 82.06561279 50.29754639 C88.44197361 56.15018147 95.39495624 60.28599458 102.95892334 64.36785889 C113.13698347 69.89215918 122.797669 76.24357875 132.25311279 82.92254639 C152.87128463 97.92492697 152.87128463 97.92492697 177.06561279 103.29754639 C182.58590339 90.89451048 186.82801457 78.61254232 188.60858154 65.13348389 C189.24417547 61.18954209 190.48421308 57.96639372 192.06561279 54.29754639 C192.47811279 53.20442139 192.89061279 52.11129639 193.31561279 50.98504639 C195.58306204 45.78679838 198.63586426 40.80298878 202.06561279 36.29754639 C203.55061279 35.80254639 203.55061279 35.80254639 205.06561279 35.29754639 C205.75255564 33.97454535 206.41637998 32.63945509 207.06561279 31.29754639 C213.31685723 24.48841057 221.14130834 19.89231115 229.06561279 15.29754639 C229.98471436 14.7264917 230.90381592 14.15543701 231.85076904 13.56707764 C243.48007962 6.63059636 258.45332913 3.86620186 271.77655029 6.91864014 C281.02341491 10.28521706 289.68785051 16.12793505 297.06561279 22.54754639 C302.55708666 27.08398132 308.27764704 28.50478794 315.06561279 30.29754639 C319.3650459 31.66598898 323.63682595 33.11314699 327.90838623 34.56610107 C329.4338728 35.08334392 330.96070319 35.59663141 332.48846436 36.1071167 C345.59841544 40.49381161 357.91312698 44.70406702 368.73358154 53.57489014 C372.24198539 56.16652514 376.0411052 57.96267915 379.97186279 59.82879639 C382.98798621 61.26069336 385.92467542 62.80393422 388.87811279 64.36004639 C393.94551694 66.90368455 399.11490871 68.77482119 404.50946045 70.47137451 C408.39915634 71.70230346 412.05318686 73.14837402 415.75311279 74.86004639 C426.22039437 79.34803405 437.90853144 80.59783836 449.07049561 82.48797607 C457.40602246 83.90893166 464.87018857 85.57276297 472.37811279 89.54754639 C477.46995602 92.17352843 482.74088352 94.12695499 488.12811279 96.04754639 C488.96705078 96.35337646 489.80598877 96.65920654 490.67034912 96.9743042 C491.90434448 97.40501221 491.90434448 97.40501221 493.16326904 97.84442139 C493.89038086 98.10062256 494.61749268 98.35682373 495.36663818 98.62078857 C502.57097678 100.4272496 510.13180255 100.53901556 517.52264404 100.83660889 C519.05753227 100.89952621 519.05753227 100.89952621 520.62342834 100.9637146 C529.5443058 101.29816871 538.46398217 101.42300908 547.38983154 101.50848389 C548.81773906 101.52296954 550.24564636 101.53747566 551.67355347 101.55200195 C557.51732833 101.60983131 563.36104272 101.66577739 569.20501709 101.69891357 C572.84444294 101.72005693 576.48350529 101.75545162 580.12272072 101.79967117 C582.13027348 101.82024541 584.13796271 101.82582246 586.14561462 101.83084106 C594.49395648 101.94211306 602.01504576 103.12052028 610.06561279 105.29754639 C611.74967922 105.71626108 613.43442545 106.13226715 615.12030029 106.54364014 C615.90767578 106.73909424 616.69505127 106.93454834 617.50628662 107.13592529 C628.7472105 109.902471 640.04340724 111.95696873 651.45916748 113.85223389 C654.49636497 114.37114061 657.5195208 114.94716024 660.54315186 115.53924561 C671.34133348 117.65099762 682.13621625 118.96891285 693.08905029 119.91082764 C735.73211976 123.63172321 735.73211976 123.63172321 751.40936279 131.05535889 C754.46493007 132.48428594 757.56429639 133.57369749 760.75311279 134.67254639 C766.16392797 136.56992295 771.46114899 138.65408624 776.75311279 140.86004639 C778.20611971 141.46059259 779.65924164 142.0608606 781.11248779 142.66082764 C783.39917774 143.60497795 785.67986545 144.5590188 787.95623779 145.52801514 C801.34511871 150.88767452 816.14437183 151.65625991 830.38641357 152.56365967 C835.41879915 152.90311097 839.93248557 153.49248298 844.81266785 154.82333374 C857.92252727 157.5827714 872.32187849 156.46100979 885.63201904 156.46551514 C887.88307211 156.46873495 890.13412497 156.47209955 892.38517761 156.4756012 C897.07236212 156.48155002 901.7595283 156.48344512 906.44671631 156.48284912 C912.44871279 156.48274686 918.45059266 156.49648322 924.45256138 156.51362133 C929.08766726 156.52473214 933.72274464 156.52676874 938.35786247 156.5262394 C940.57182154 156.52741765 942.7857814 156.53183072 944.99972725 156.53957176 C948.08630809 156.54936806 951.17263133 156.5464967 954.25921631 156.54046631 C955.16785431 156.54608582 956.07649231 156.55170532 957.01266479 156.55749512 C963.20276807 156.52676136 968.16316466 155.42484816 973.69061279 152.54754639 C974.35576904 152.20723389 975.02092529 151.86692139 975.70623779 151.51629639 C976.87412842 150.91301514 976.87412842 150.91301514 978.06561279 150.29754639 C980.18823811 149.20956758 982.31335628 148.12644204 984.44061279 147.04754639 C985.96815186 146.26637451 985.96815186 146.26637451 987.52655029 145.46942139 C990.06561279 144.29754639 990.06561279 144.29754639 992.06561279 144.29754639 C992.06561279 370.67754639 992.06561279 597.05754639 992.06561279 830.29754639 C368.36561279 830.29754639 -255.33438721 830.29754639 -897.93438721 830.29754639 C-897.93438721 615.13754639 -897.93438721 399.97754639 -897.93438721 178.29754639 C-885.06438721 177.96754639 -872.19438721 177.63754639 -858.93438721 177.29754639 C-839.5959617 174.07447547 -827.3622544 163.95008942 -813.87188721 150.54754639 C-813.14533936 149.82655762 -812.4187915 149.10556885 -811.67022705 148.36273193 C-807.9080596 144.54898567 -804.89887782 140.77297093 -801.93438721 136.29754639 C-799.49688721 134.10223389 -799.49688721 134.10223389 -796.93438721 132.17254639 C-794.36722329 130.22369329 -791.99955964 128.36434813 -789.74688721 126.05535889 C-787.93438721 124.29754639 -787.93438721 124.29754639 -785.93438721 124.29754639 C-785.93438721 123.63754639 -785.93438721 122.97754639 -785.93438721 122.29754639 C-777.25995514 116.62505261 -768.37136893 114.26303316 -758.39263916 111.91107178 C-755.80191221 111.26448355 -753.25670793 110.50719695 -750.69610596 109.75067139 C-744.27860517 107.99052889 -737.86005504 107.33600402 -731.24688721 106.73504639 C-729.9590332 106.60992676 -728.6711792 106.48480713 -727.34429932 106.355896 C-720.36536352 105.69367977 -713.38776987 105.17868796 -706.38751221 104.80535889 C-705.68325607 104.76667191 -704.97899994 104.72798492 -704.25340271 104.68812561 C-700.87224003 104.50455192 -697.4931592 104.34027436 -694.10943604 104.2074585 C-677.11135556 103.36201866 -663.32252372 98.12623376 -649.08990479 88.89520264 C-635.71201422 80.2351061 -623.39681019 75.290518 -607.75860596 72.41864014 C-595.72418896 70.17364905 -583.83770371 67.14266042 -571.93438721 64.29754639 C-570.78631592 64.02619873 -569.63824463 63.75485107 -568.4553833 63.47528076 C-550.28092534 59.3732955 -550.28092534 59.3732955 -533.09844971 52.33416748 C-528.44771123 49.89682764 -524.06650298 48.26907135 -518.93438721 47.17254639 C-518.17674072 47.00786865 -517.41909424 46.84319092 -516.63848877 46.67352295 C-507.04635766 44.73358454 -497.32211942 44.02015014 -487.56622314 43.45135498 C-485.3984678 43.32466798 -483.23244927 43.16861169 -481.06719971 43.00457764 C-471.72086835 42.58993224 -463.03912034 44.86224056 -454.03594971 47.10614014 C-441.65890807 50.09805456 -428.90369307 49.84109393 -416.2366333 50.20233154 C-414.27324885 50.25894251 -412.30996336 50.3195821 -410.34698486 50.38885498 C-403.04899219 50.64251556 -396.32882665 50.28959239 -389.18438721 48.79754639 C-381.36442625 47.19340395 -373.65469321 46.96031041 -365.68438721 46.92254639 C-363.94463623 46.90224365 -363.94463623 46.90224365 -362.16973877 46.88153076 C-348.97950809 46.94896165 -338.59529385 49.41986881 -327.93438721 57.29754639 C-327.14161377 57.88020264 -326.34884033 58.46285889 -325.53204346 59.06317139 C-321.80258902 61.89373167 -318.24664331 64.87636151 -314.74688721 67.98504639 C-307.07814659 74.69331851 -299.09246918 78.46384866 -288.68438721 78.48504639 C-287.32313721 78.39223389 -287.32313721 78.39223389 -285.93438721 78.29754639 C-285.60438721 77.30754639 -285.27438721 76.31754639 -284.93438721 75.29754639 C-282.74688721 74.01629639 -282.74688721 74.01629639 -279.93438721 72.79754639 C-278.57313721 72.19426514 -278.57313721 72.19426514 -277.18438721 71.57879639 C-274.66204568 70.58441174 -272.18705341 69.73470695 -269.60626221 68.92254639 C-264.84257875 67.3638851 -260.59312662 65.15449277 -256.18438721 62.79754639 C-240.87113432 54.96104006 -224.51634628 53.94449354 -207.62579346 52.0368042 C-199.97415078 51.16663178 -193.75042929 49.87847848 -186.93438721 46.29754639 C-185.36624268 45.53764404 -185.36624268 45.53764404 -183.76641846 44.76239014 C-178.25673787 42.07787318 -172.87947018 39.30426096 -167.62115479 36.15423584 C-154.99283777 28.61602064 -142.79766927 26.3350051 -128.2901001 26.00775146 C-116.23883457 25.73251479 -104.20315784 25.2105468 -92.18432617 24.27600098 C-90.75203973 24.1673376 -89.31910788 24.06680222 -87.88562012 23.9753418 C-72.53210657 22.97604904 -60.57917431 17.60316193 -47.30938721 10.04754639 C-45.44359005 8.99819545 -43.5764486 7.95123034 -41.70782471 6.90692139 C-40.90780029 6.45284912 -40.10777588 5.99877686 -39.2835083 5.53094482 C-27.48766655 -0.66242376 -13.0183459 0.09281086 0 0 Z " fill="#CECCCC" transform="translate(897.9343872070313,-0.29754638671875)"/>
</svg>
