<?xml version="1.0" encoding="UTF-8"?>
<svg version="1.1" xmlns="http://www.w3.org/2000/svg" width="1890" height="696">
<path d="M0 0 C0.99386719 0.20133545 0.99386719 0.20133545 2.0078125 0.40673828 C10.63398009 2.17706313 18.60226399 4.50972963 26.76953125 7.84765625 C31.46049383 9.52097422 36.23630311 10.30262373 41.125 11.19921875 C47.19741689 12.45410329 53.02301513 14.35325502 58.90234375 16.30419922 C61.04655535 17.01544259 63.19477133 17.71346196 65.34375 18.41015625 C84.8297179 24.76767551 103.66758668 32.07446891 122.13671875 40.98828125 C128.92491688 44.25549811 135.59802146 47.04319534 142.85546875 49.10546875 C144.89315722 49.68513417 146.91865924 50.31030813 148.92578125 50.98828125 C158.46960178 54.19431175 168.21525792 55.82028569 178.11474609 57.5 C180.84908306 57.97384685 183.57483704 58.48028917 186.30078125 59 C194.9127433 60.61336226 203.49557918 61.99831001 212.21484375 62.89453125 C212.93632095 62.96875305 213.65779816 63.04297485 214.40113831 63.1194458 C215.4989286 63.23216827 215.4989286 63.23216827 216.61889648 63.34716797 C238.83535753 65.63127532 260.42581731 69.57664584 281.3828125 77.62109375 C283.70929835 78.50797226 286.05837592 79.33872851 288.4296875 80.09765625 C299.72541845 83.73681206 311.5846144 89.27784197 321.01757812 96.55688477 C323.00035947 98.00026168 324.68953813 98.79904996 326.9921875 99.61328125 C327.76763916 99.88849609 328.54309082 100.16371094 329.34204102 100.44726562 C330.17791748 100.73279297 331.01379395 101.01832031 331.875 101.3125 C332.75921631 101.61736328 333.64343262 101.92222656 334.55444336 102.23632812 C343.6025036 105.29661957 352.76996679 107.81481398 362.01171875 110.21435547 C365.13980023 111.03675467 368.25727011 111.89314578 371.375 112.75390625 C384.1350096 116.23108648 396.82501851 118.97186455 409.87890625 121.08837891 C422.77068694 123.21009388 435.43081887 126.17251521 448.15136719 129.12255859 C455.60420524 130.8217149 463.08551383 132.38965278 470.56665039 133.95874023 C475.64971229 135.03304912 480.68160084 136.17117514 485.69921875 137.51953125 C492.80525982 139.32499766 499.99953426 140.20776253 507.26083374 141.13458252 C518.18079276 142.53374235 528.99428662 143.9487759 539.68579102 146.62524414 C545.7592456 148.08845158 551.85647776 148.71981738 558.0625 149.375 C578.41392347 151.63661422 596.58085857 156.27302795 614.74023438 165.82324219 C616.78320891 166.88710749 618.84000166 167.89785174 620.921875 168.8828125 C630.5915691 173.50277746 640.08775598 178.9049517 648.375 185.75 C654.80701866 190.46465347 664.13424109 191.93539833 671.73046875 194.02734375 C678.21701256 195.81996241 684.34314468 197.85934057 690.51953125 200.52734375 C705.56896261 206.8950605 721.02480996 212.13531862 736.5625 217.16552734 C738.26615257 217.74876898 739.95038246 218.39053047 741.6159668 219.07495117 C744.65764415 220.25517805 747.57686516 220.52055451 750.8125 220.9375 C765.84590269 223.35345456 780.34786892 231.45578842 793.2109375 239.3515625 C797.06977185 241.63227412 801.08356245 243.5666523 805.10888672 245.53027344 C809.47790835 247.68394529 813.76675736 249.95016581 818.03125 252.3046875 C830.14660442 258.98946004 842.16643977 265.00757109 855.05859375 270.0390625 C859.54529194 271.79017992 863.90578954 273.73570655 868.25 275.8125 C872.92252563 278.03897123 877.59406516 280.10459991 882.41796875 281.9765625 C885.5972791 283.236743 888.73390313 284.58494026 891.875 285.9375 C898.23172382 288.67164882 904.58966392 291.39359962 911 294 C911.8559375 294.3609375 912.711875 294.721875 913.59375 295.09375 C919.92882689 297.61251551 926.18001727 298.84385587 932.875 299.92626953 C937.34126722 300.66032731 941.43862593 301.66106456 945.6875 303.24609375 C949.92048786 304.62610499 954.30610712 305.38740848 958.66796875 306.25390625 C961.87667897 306.9723865 964.88965046 307.94325126 968 309 C969.4115828 309.3153536 970.82827103 309.60910412 972.25 309.875 C977 311 977 311 987 315 C987 440.07 987 565.14 987 694 C363.3 694 -260.4 694 -903 694 C-903 229 -903 229 -902 228 C-895.93786495 226.93930352 -889.7434613 226.81053118 -883.60546875 226.640625 C-881.76591058 226.57997576 -879.92639348 226.51807093 -878.08691406 226.45507812 C-877.12628052 226.4222876 -876.16564697 226.38949707 -875.17590332 226.35571289 C-853.36104723 225.58402606 -831.89242185 223.51125761 -810.23861694 220.84469604 C-802.06844727 219.85441153 -793.89117156 219.17937305 -785.67285156 218.72070312 C-780.0303867 218.37075091 -774.50836187 217.64029431 -768.93359375 216.71875 C-754.68718488 214.37610562 -740.34704398 212.68556052 -726.02005386 210.9202652 C-723.60255784 210.6222333 -721.18523096 210.32285543 -718.76791382 210.02337646 C-695.56791565 207.15492583 -672.36734747 204.59237102 -649.07470703 202.58447266 C-647.10834614 202.41368695 -645.14203601 202.24231574 -643.17578125 202.0703125 C-642.23866302 201.98847214 -641.3015448 201.90663177 -640.33602905 201.8223114 C-633.72919334 201.22028985 -627.1788931 200.37182693 -620.61328125 199.42578125 C-612.0526453 198.19564807 -603.5901373 197.49059099 -594.95269775 197.14907837 C-564.29401688 195.87152075 -534.7036022 188.59865185 -509.76953125 169.9765625 C-507.16529226 168.11796599 -504.53043928 166.51547312 -501.75 164.9375 C-497.72215071 162.59854321 -494.74184783 159.96008832 -491.5625 156.58203125 C-489.29753672 154.28875593 -486.71817987 152.72499877 -484 151 C-482.2454 149.71458893 -480.49591851 148.42217822 -478.75 147.125 C-473.66987175 143.41471663 -468.46253514 140.11373502 -463 137 C-462.33097656 136.61585938 -461.66195313 136.23171875 -460.97265625 135.8359375 C-458.66175704 134.53189841 -456.33192201 133.26609448 -454 132 C-452.85660156 131.36449219 -451.71320313 130.72898438 -450.53515625 130.07421875 C-427.55514072 117.46274492 -403.28000924 107.85418472 -378 101 C-376.53210461 100.58621955 -375.06468253 100.17075756 -373.59765625 99.75390625 C-372.04431346 99.31495328 -370.49092845 98.87614973 -368.9375 98.4375 C-368.24188965 98.23946777 -367.5462793 98.04143555 -366.82958984 97.83740234 C-364.55852972 97.20238646 -362.28132562 96.59709663 -360 96 C-359.08033447 95.75266113 -358.16066895 95.50532227 -357.21313477 95.25048828 C-347.58120705 92.82442126 -337.92518983 91.90882545 -328.0625 91 C-316.81937037 89.96173083 -306.00307726 88.61663648 -295 86 C-293.67722569 85.72346697 -292.3532797 85.45235884 -291.02734375 85.19140625 C-290.00769531 84.98386719 -288.98804688 84.77632813 -287.9375 84.5625 C-286.91527344 84.35753906 -285.89304687 84.15257813 -284.83984375 83.94140625 C-281.5118005 83.12547703 -278.30112811 82.1738862 -275.03515625 81.14453125 C-268.26753743 79.0316736 -261.42868445 77.29498971 -254.54244995 75.62194824 C-242.78546592 72.76135793 -231.10544651 69.71263166 -219.49609375 66.296875 C-216.62550667 65.45491747 -213.75215584 64.66932207 -210.84765625 63.953125 C-203.5677737 62.14978354 -197.01810885 59.90238064 -190.29296875 56.5625 C-187.74899177 55.35539348 -185.28377752 54.34500894 -182.65625 53.359375 C-174.90077735 50.29699112 -167.64843603 46.18733504 -160.3125 42.25 C-158.84725721 41.46827747 -157.38176364 40.6870248 -155.91601562 39.90625 C-150.27645868 36.8994204 -144.63747642 33.89194473 -139.02172852 30.84082031 C-131.25936307 26.63626727 -123.41409291 22.76705052 -115.3125 19.25 C-114.28833984 18.79496094 -113.26417969 18.33992188 -112.20898438 17.87109375 C-101.96696225 13.38657429 -91.68412501 9.94645277 -80.75 7.625 C-71.40671685 5.57505213 -62.12728031 3.32245924 -52.85644531 0.96728516 C-51.42510254 0.60449463 -51.42510254 0.60449463 -49.96484375 0.234375 C-49.1255835 0.02006836 -48.28632324 -0.19423828 -47.42163086 -0.41503906 C-32.51482645 -4.01587618 -14.9672087 -3.15380469 0 0 Z " fill="#AAAAAA" transform="translate(903,2)"/>
</svg>
