<?xml version="1.0" encoding="UTF-8"?>
<svg version="1.1" xmlns="http://www.w3.org/2000/svg" width="3000" height="1155">
<path d="M0 0 C60.06 0 120.12 0 182 0 C182 0.66 182 1.32 182 2 C182.99 2 183.98 2 185 2 C185 2.66 185 3.32 185 4 C187.01822917 4.16276042 189.03645833 4.32552083 191.0546875 4.48828125 C193 5 193 5 195 8 C198.05429073 9.21284876 198.05429073 9.21284876 201 10 C201 10.66 201 11.32 201 12 C202.98 12.33 204.96 12.66 207 13 C207 13.66 207 14.32 207 15 C209.65228812 16.07525194 212.28368454 17.09456151 215 18 C215 18.66 215 19.32 215 20 C215.804375 20.12375 216.60875 20.2475 217.4375 20.375 C218.283125 20.58125 219.12875 20.7875 220 21 C220.33 21.66 220.66 22.32 221 23 C224.48914684 25.2620579 228.15822147 27.20626465 231.8125 29.1875 C233.27623047 29.98220703 233.27623047 29.98220703 234.76953125 30.79296875 C235.50558594 31.19128906 236.24164062 31.58960937 237 32 C237 32.66 237 33.32 237 34 C237.8971875 34.2165625 237.8971875 34.2165625 238.8125 34.4375 C240.56150404 34.8872439 242.28677023 35.42892341 244 36 C244 36.99 244 37.98 244 39 C244.515625 39.103125 245.03125 39.20625 245.5625 39.3125 C248.86026435 40.24263866 251.86633332 41.61395512 255 43 C255 44.32 255 45.64 255 47 C256.98 47.33 258.96 47.66 261 48 C261 48.66 261 49.32 261 50 C261.5775 50.12375 262.155 50.2475 262.75 50.375 C265.02335767 51.00648824 266.9253529 51.88858191 269 53 C269 53.66 269 54.32 269 55 C269.5775 55.28875 270.155 55.5775 270.75 55.875 C273.875 57.4375 273.875 57.4375 277 59 C277 59.66 277 60.32 277 61 C277.5775 61.0825 278.155 61.165 278.75 61.25 C281.61735579 62.20578526 282.91800845 63.85084743 285 66 C285.99 66.33 286.98 66.66 288 67 C288 67.66 288 68.32 288 69 C288.60070313 69.10441406 289.20140625 69.20882812 289.8203125 69.31640625 C292.33148256 70.10395959 293.17309869 70.971179 294.875 72.9375 C297.63301354 75.87140727 300.02775752 77.05422798 304 78 C304 78.66 304 79.32 304 80 C304.7734375 80.185625 304.7734375 80.185625 305.5625 80.375 C308.72702351 81.18641628 311.86124985 82.0945913 315 83 C315 83.66 315 84.32 315 85 C317.64 85.33 320.28 85.66 323 86 C323 86.66 323 87.32 323 88 C323.8353125 88.185625 323.8353125 88.185625 324.6875 88.375 C327.94610668 89.25570451 330.97618082 90.43855077 333.9375 92.0625 C336.57505571 93.26138896 339.14204094 93.61027831 342 94 C342 94.66 342 95.32 342 96 C342.845625 96.12375 343.69125 96.2475 344.5625 96.375 C348.15236798 97.02770327 351.50824875 97.95247463 355 99 C355 99.66 355 100.32 355 101 C361.27 101.33 367.54 101.66 374 102 C374 102.66 374 103.32 374 104 C374.97565918 103.99492432 375.95131836 103.98984863 376.95654297 103.98461914 C392.16505949 103.9331698 407.37022223 104.14987318 422.57666016 104.37231445 C426.41315806 104.42814663 430.24971151 104.4780158 434.08630562 104.52671719 C437.05790192 104.565503 440.02942393 104.6086114 443.00094223 104.65294075 C444.41796488 104.67331535 445.83501231 104.69203641 447.25207901 104.70907402 C449.2112457 104.73301489 451.17032701 104.76366581 453.12939453 104.79467773 C454.79882614 104.81799416 454.79882614 104.81799416 456.50198364 104.84178162 C459 105 459 105 460 106 C462.66426685 106.16003488 465.30560428 106.25942889 467.97265625 106.31640625 C468.77029892 106.33718735 469.56794159 106.35796844 470.38975525 106.37937927 C472.94724611 106.44496158 475.5048428 106.50379967 478.0625 106.5625 C479.79232882 106.60567699 481.52214679 106.64929101 483.25195312 106.69335938 C487.5011926 106.80065172 491.7505389 106.90189426 496 107 C496 107.66 496 108.32 496 109 C496.56847656 109.03738281 497.13695312 109.07476562 497.72265625 109.11328125 C503.57461014 109.61152774 509.2972526 110.19764275 513.58984375 114.6484375 C514.60549095 115.87341657 515.60841052 117.1090716 516.59765625 118.35546875 C519.07532635 121.2610373 522.015221 122.6060884 525.5 124 C528.19885819 125.07954328 530.51719131 126.49724737 533 128 C533.99 128.33 534.98 128.66 536 129 C536.33 129.66 536.66 130.32 537 131 C539.52733235 131.65555119 539.52733235 131.65555119 542 132 C542 132.66 542 133.32 542 134 C543.65 134 545.3 134 547 134 C547 134.66 547 135.32 547 136 C550.96 136.495 550.96 136.495 555 137 C555 137.66 555 138.32 555 139 C557.97 139.33 560.94 139.66 564 140 C564 140.66 564 141.32 564 142 C564.57105469 142.10957031 565.14210938 142.21914062 565.73046875 142.33203125 C572.85920503 143.72604486 579.92948066 145.33765219 587 147 C587 146.34 587 145.68 587 145 C588.98 144.67 590.96 144.34 593 144 C593 143.34 593 142.68 593 142 C599.625 139 599.625 139 603 139 C603 138.34 603 137.68 603 137 C604.98 136.67 606.96 136.34 609 136 C609 135.34 609 134.68 609 134 C609.66 134 610.32 134 611 134 C611 133.34 611 132.68 611 132 C612.98 131.67 614.96 131.34 617 131 C617 130.34 617 129.68 617 129 C619.64 128.67 622.28 128.34 625 128 C625 127.34 625 126.68 625 126 C626.60256108 125.49487756 628.20711792 124.99608373 629.8125 124.5 C630.70582031 124.2215625 631.59914063 123.943125 632.51953125 123.65625 C635 123 635 123 638 123 C638 122.34 638 121.68 638 121 C641.63 120.67 645.26 120.34 649 120 C649 119.34 649 118.68 649 118 C649.85464844 117.86722656 650.70929688 117.73445313 651.58984375 117.59765625 C653.24693359 117.33275391 653.24693359 117.33275391 654.9375 117.0625 C656.03964844 116.88847656 657.14179687 116.71445313 658.27734375 116.53515625 C660.90426929 116.28154864 660.90426929 116.28154864 662 115 C662.99 114.896875 663.98 114.79375 665 114.6875 C668.09864725 114.29622479 670.50005388 113.41127523 673.3125 112.0625 C677.48474376 110.08050469 681.48729205 109.14484529 686.03125 108.39453125 C687.99447505 108.19031918 687.99447505 108.19031918 689 107 C691.33333333 106.66666667 693.66666667 106.33333333 696 106 C696.33 105.67 696.66 105.34 697 105 C698.91168835 104.78358245 700.83040247 104.62858548 702.75 104.5 C703.9153125 104.4175 705.080625 104.335 706.28125 104.25 C710 104 710 104 713.71875 103.75 C714.8840625 103.6675 716.049375 103.585 717.25 103.5 C718.86648438 103.39171875 718.86648438 103.39171875 720.515625 103.28125 C722.93954965 103.26814268 722.93954965 103.26814268 724 102 C725.63271865 101.841913 727.27204432 101.7515128 728.91117859 101.68826294 C729.96514989 101.64697203 731.01912119 101.60568111 732.10503101 101.56313896 C733.26492888 101.52441736 734.42482676 101.48569576 735.61987305 101.44580078 C736.82933185 101.40369036 738.03879065 101.36157993 739.28489971 101.31819344 C752.85304312 100.88474874 766.41897908 100.85269983 779.99275804 100.8656745 C783.57327225 100.86826742 787.15378435 100.86584289 790.73429871 100.86428833 C796.71504184 100.86249126 802.69577245 100.8648123 808.67651367 100.86962891 C815.57350771 100.8751195 822.4704724 100.87326464 829.36746579 100.8678025 C835.34173006 100.86326283 841.31598552 100.86262344 847.29025096 100.86524117 C850.83691083 100.86679254 854.38355687 100.86702809 857.93021584 100.86370468 C861.86079685 100.86027501 865.79134477 100.86502945 869.72192383 100.87060547 C871.46335915 100.86756912 871.46335915 100.86756912 873.23997498 100.86447144 C874.84719925 100.86870117 874.84719925 100.86870117 876.4868927 100.87301636 C877.87505298 100.8735819 877.87505298 100.8735819 879.2912569 100.87415886 C882.25597558 101.01189196 885.08399257 101.45965043 888 102 C888 102.66 888 103.32 888 104 C889.175625 103.95875 890.35125 103.9175 891.5625 103.875 C894.46410939 103.86993611 896.40797709 104.1176857 899.25 104.9375 C903.69373802 106.1965591 907.92724827 106.47448532 912.5234375 106.75390625 C915 107 915 107 916 108 C917.76551713 108.21581873 919.53851404 108.37115018 921.3125 108.5 C922.92511719 108.62375 922.92511719 108.62375 924.5703125 108.75 C925.70210937 108.8325 926.83390625 108.915 928 109 C930.22947334 109.16251286 932.45866445 109.32896226 934.6875 109.5 C935.68136719 109.5721875 936.67523437 109.644375 937.69921875 109.71875 C940 110 940 110 941 111 C942.51127598 111.20278447 944.03052228 111.34699086 945.55078125 111.46484375 C946.94006836 111.58182617 946.94006836 111.58182617 948.35742188 111.70117188 C950.31552149 111.85776808 952.27385648 112.0114505 954.23242188 112.16210938 C955.62750977 112.28102539 955.62750977 112.28102539 957.05078125 112.40234375 C957.90325439 112.46929443 958.75572754 112.53624512 959.6340332 112.60522461 C962.0928498 113.01549253 963.84440866 113.77263586 966 115 C966 115.66 966 116.32 966 117 C966.56847656 117.04898438 967.13695313 117.09796875 967.72265625 117.1484375 C972.70705293 117.63106689 977.17965563 118.597718 982 120 C984.66412119 120.42362351 987.3155937 120.71743092 990 121 C990 121.66 990 122.32 990 123 C991.17755859 123.07347656 991.17755859 123.07347656 992.37890625 123.1484375 C998.19022303 123.5620036 1003.478943 124.11782148 1009 126 C1009 126.66 1009 127.32 1009 128 C1012.63 128.33 1016.26 128.66 1020 129 C1020 129.66 1020 130.32 1020 131 C1021.0725 131.12375 1022.145 131.2475 1023.25 131.375 C1026.37863615 131.89643936 1028.33480424 132.40088254 1031 134 C1031 134.66 1031 135.32 1031 136 C1032.2375 136.0928125 1032.2375 136.0928125 1033.5 136.1875 C1037.34291683 137.07960569 1039.6440879 138.54161156 1042.890625 140.68359375 C1045.58341839 142.36409629 1048.36605411 143.57827481 1051.28125 144.8203125 C1054.90801702 146.39399589 1058.48300572 148.07209894 1062.0625 149.75 C1062.74256104 150.0682373 1063.42262207 150.38647461 1064.12329102 150.71435547 C1065.74920191 151.47550849 1067.37465048 152.23764897 1069 153 C1069 153.66 1069 154.32 1069 155 C1069.886875 155.103125 1070.77375 155.20625 1071.6875 155.3125 C1075.0826755 156.01715907 1077.21942098 156.9554566 1080 159 C1080 159.66 1080 160.32 1080 161 C1080.66 161 1081.32 161 1082 161 C1082.495 161.99 1082.495 161.99 1083 163 C1083.763125 163.45375 1084.52625 163.9075 1085.3125 164.375 C1087.99693993 165.99814972 1089.7952301 167.7952301 1092 170 C1094.13309192 171.23512079 1094.13309192 171.23512079 1096 172 C1096 172.66 1096 173.32 1096 174 C1096.99 174.33 1097.98 174.66 1099 175 C1099 175.66 1099 176.32 1099 177 C1099.9075 177.12375 1100.815 177.2475 1101.75 177.375 C1104.58970323 177.92109677 1106.52590591 178.57263803 1109 180 C1109 180.66 1109 181.32 1109 182 C1110.98 182.33 1112.96 182.66 1115 183 C1115 183.66 1115 184.32 1115 185 C1117.64 185.33 1120.28 185.66 1123 186 C1123 186.66 1123 187.32 1123 188 C1123.66 188 1124.32 188 1125 188 C1125 188.66 1125 189.32 1125 190 C1125.5775 190.12375 1126.155 190.2475 1126.75 190.375 C1129 191 1129 191 1130.875 192 C1133.5382649 193.25330113 1136.09722329 193.60416681 1139 194 C1139 194.66 1139 195.32 1139 196 C1139.969375 195.979375 1140.93875 195.95875 1141.9375 195.9375 C1145 196 1145 196 1146 197 C1148.06923366 197.22907826 1150.14547477 197.39543552 1152.22265625 197.53515625 C1153.48271484 197.62216797 1154.74277344 197.70917969 1156.04101562 197.79882812 C1157.38150393 197.88681764 1158.72199881 197.97470695 1160.0625 198.0625 C1161.40692976 198.15387529 1162.75133131 198.24566675 1164.09570312 198.33789062 C1167.39687974 198.56270194 1170.69828848 198.7832098 1174 199 C1174 199.66 1174 200.32 1174 201 C1177.63 201.33 1181.26 201.66 1185 202 C1185 202.66 1185 203.32 1185 204 C1200.82677644 204.49926854 1200.82677644 204.49926854 1216.30859375 201.65625 C1219.28716359 200.92998043 1221.94555395 200.89203725 1225 201 C1225 200.34 1225 199.68 1225 199 C1228.63 198.67 1232.26 198.34 1236 198 C1236 197.34 1236 196.68 1236 196 C1239.40351338 193.96780512 1242.3232927 193.63108961 1246.25 193.375 C1247.86648438 193.26285156 1247.86648438 193.26285156 1249.515625 193.1484375 C1250.33546875 193.09945312 1251.1553125 193.05046875 1252 193 C1252 192.34 1252 191.68 1252 191 C1258.27 190.67 1264.54 190.34 1271 190 C1271 189.34 1271 188.68 1271 188 C1271.99902344 187.93941406 1272.99804688 187.87882813 1274.02734375 187.81640625 C1275.31769531 187.73261719 1276.60804688 187.64882812 1277.9375 187.5625 C1279.22527344 187.48128906 1280.51304687 187.40007812 1281.83984375 187.31640625 C1284.86023957 187.35080812 1284.86023957 187.35080812 1286 186 C1287.81123204 185.89257932 1289.62423841 185.81467685 1291.4375 185.75 C1296.95735672 185.33943214 1300.65318364 184.00006235 1305.4375 181.32421875 C1308.23731748 179.87736185 1310.99364837 178.93948488 1314 178 C1318.95222504 176.44084786 1323.38720237 174.43587654 1327.94140625 171.953125 C1330 171 1330 171 1333 171 C1333 170.34 1333 169.68 1333 169 C1334.65 169 1336.3 169 1338 169 C1338 168.34 1338 167.68 1338 167 C1339.98 166.67 1341.96 166.34 1344 166 C1344 165.34 1344 164.68 1344 164 C1346.475 163.505 1346.475 163.505 1349 163 C1349 162.34 1349 161.68 1349 161 C1354.75 158 1354.75 158 1357 158 C1357.33 157.01 1357.66 156.02 1358 155 C1358.66 155 1359.32 155 1360 155 C1360 154.34 1360 153.68 1360 153 C1365.75 150 1365.75 150 1368 150 C1368 149.34 1368 148.68 1368 148 C1369.65002828 146.64613064 1371.3174387 145.31321858 1373 144 C1373.33 143.34 1373.66 142.68 1374 142 C1374.66 142 1375.32 142 1376 142 C1376 141.34 1376 140.68 1376 140 C1377.65002828 138.64613064 1379.3174387 137.31321858 1381 136 C1381.33 135.34 1381.66 134.68 1382 134 C1382.66 134 1383.32 134 1384 134 C1384.33 133.01 1384.66 132.02 1385 131 C1386.175625 130.319375 1386.175625 130.319375 1387.375 129.625 C1390.14842319 128.18545665 1390.14842319 128.18545665 1391.5 125.5 C1393.31761406 122.47064324 1394.91756809 121.6813265 1398 120 C1399.26175049 119.16328834 1400.51138034 118.30808718 1401.75 117.4375 C1402.34296875 117.02371094 1402.9359375 116.60992187 1403.546875 116.18359375 C1405.14926383 115.04402417 1405.14926383 115.04402417 1406 113 C1408.54259321 111.86995857 1411.13556758 110.9507027 1413.75 110 C1416.15703483 109.21568639 1416.15703483 109.21568639 1417 107 C1417.66 107 1418.32 107 1419 107 C1419.495 105.515 1419.495 105.515 1420 104 C1420.99 104 1421.98 104 1423 104 C1423 103.01 1423 102.02 1423 101 C1423.66 101 1424.32 101 1425 101 C1425 100.34 1425 99.68 1425 99 C1426.65071396 97.97388051 1428.31970006 96.97691857 1430 96 C1430.804375 95.1646875 1430.804375 95.1646875 1431.625 94.3125 C1433 93 1433 93 1436 93 C1436 92.34 1436 91.68 1436 91 C1438.475 90.505 1438.475 90.505 1441 90 C1441 89.34 1441 88.68 1441 88 C1441.99 88 1442.98 88 1444 88 C1444 87.34 1444 86.68 1444 86 C1448.35294118 82 1448.35294118 82 1452 82 C1452 80.68 1452 79.36 1452 78 C1459.42857143 74.71428571 1459.42857143 74.71428571 1463 74 C1463 73.34 1463 72.68 1463 72 C1464.375 70.375 1464.375 70.375 1466 69 C1466.66 69 1467.32 69 1468 69 C1468 68.34 1468 67.68 1468 67 C1470.63892176 65.21694476 1472.97178863 64.00940379 1476 63 C1476 62.34 1476 61.68 1476 61 C1476.99 61 1477.98 61 1479 61 C1479 60.34 1479 59.68 1479 59 C1486.42857143 55.71428571 1486.42857143 55.71428571 1490 55 C1490 54.34 1490 53.68 1490 53 C1490.66 53 1491.32 53 1492 53 C1492.33 52.01 1492.66 51.02 1493 50 C1495.92079805 47.92469613 1497.37546731 47 1501 47 C1501 46.34 1501 45.68 1501 45 C1505.38461538 42 1505.38461538 42 1508 42 C1508 41.34 1508 40.68 1508 40 C1510.97 39.505 1510.97 39.505 1514 39 C1514 38.34 1514 37.68 1514 37 C1516.90548882 34.95830515 1518.40142046 34 1522 34 C1522 33.34 1522 32.68 1522 32 C1523.98 31.67 1525.96 31.34 1528 31 C1528 30.34 1528 29.68 1528 29 C1534.625 26 1534.625 26 1538 26 C1538 25.34 1538 24.68 1538 24 C1544.38226945 23.17648136 1550.56744599 22.87913782 1557 23 C1557 22.34 1557 21.68 1557 21 C1559.64 20.67 1562.28 20.34 1565 20 C1565 19.34 1565 18.68 1565 18 C1576.16628003 14.93974707 1586.506721 14.66917001 1598 15 C1598 14.34 1598 13.68 1598 13 C1601.81248426 12.97112764 1605.6249407 12.95324508 1609.4375 12.9375 C1610.52611328 12.92912109 1611.61472656 12.92074219 1612.73632812 12.91210938 C1613.77080078 12.90888672 1614.80527344 12.90566406 1615.87109375 12.90234375 C1617.30859985 12.89448853 1617.30859985 12.89448853 1618.77514648 12.88647461 C1621 13 1621 13 1622 14 C1624.03539568 14.35103201 1626.07889489 14.65551968 1628.125 14.9375 C1632.91450755 15.63827503 1637.40226568 16.50306325 1642 18 C1642 18.66 1642 19.32 1642 20 C1648.435 20.495 1648.435 20.495 1655 21 C1655 21.66 1655 22.32 1655 23 C1656.010625 23.12375 1657.02125 23.2475 1658.0625 23.375 C1661.87937612 23.98085335 1665.31500112 24.87193912 1669 26 C1669 26.66 1669 27.32 1669 28 C1670.65 28.33 1672.3 28.66 1674 29 C1674 29.66 1674 30.32 1674 31 C1675.98 31.33 1677.96 31.66 1680 32 C1680 32.66 1680 33.32 1680 34 C1680.53625 34.12375 1681.0725 34.2475 1681.625 34.375 C1684.47901595 35.12605683 1687.23803841 35.95659229 1690 37 C1690.495 37.99 1690.495 37.99 1691 39 C1692.55740343 39.82196292 1694.1465991 40.58432829 1695.75 41.3125 C1700.0056766 43.35570837 1702.70098773 45.6093485 1706 49 C1707.98014432 49.72351427 1709.97821315 50.40265389 1712 51 C1876.57467066 380.14934132 1713 786.99984903 1713 1155 C723 1155 -267 1155 -1287 1155 C-1287 297 -1287 297 -1286 296 C-1283.45016746 295.88028366 -1280.92618569 295.82456382 -1278.375 295.81054688 C-1277.57666748 295.80225357 -1276.77833496 295.79396027 -1275.95581055 295.78541565 C-1274.21681737 295.76797694 -1272.47780019 295.75282068 -1270.73876953 295.73963928 C-1267.99114713 295.71868248 -1265.24364555 295.69165485 -1262.49609375 295.66296387 C-1255.67161003 295.59298365 -1248.8470406 295.53367265 -1242.02246094 295.47393799 C-1236.25987696 295.42309584 -1230.49735759 295.3682949 -1224.73486328 295.30812073 C-1222.01987602 295.28144529 -1219.3048831 295.26069159 -1216.58984375 295.2401123 C-1214.9348929 295.22351637 -1213.27994477 295.20664516 -1211.625 295.18945312 C-1210.86340576 295.18526871 -1210.10181152 295.18108429 -1209.31713867 295.17677307 C-1205.86805696 295.44344585 -1205.86805696 295.44344585 -1203 294 C-1200.14122091 293.76298761 -1197.30116703 293.57780818 -1194.4375 293.4375 C-1193.63119141 293.39431641 -1192.82488281 293.35113281 -1191.99414062 293.30664062 C-1189.99631195 293.20024738 -1187.9981793 293.09959112 -1186 293 C-1186 292.34 -1186 291.68 -1186 291 C-1185.43603516 290.95512451 -1184.87207031 290.91024902 -1184.29101562 290.86401367 C-1181.69287478 290.65042777 -1179.09659654 290.41907848 -1176.5 290.1875 C-1175.613125 290.11724609 -1174.72625 290.04699219 -1173.8125 289.97460938 C-1166.93711586 289.34268069 -1161.26337367 287.92835717 -1155.25 284.375 C-1150.32682851 282.29211976 -1145.29765364 282.2485954 -1140 282 C-1140 281.34 -1140 280.68 -1140 280 C-1136.14243493 277.84694043 -1133.44870215 276.60746746 -1129 277 C-1129 276.34 -1129 275.68 -1129 275 C-1126.36 274.67 -1123.72 274.34 -1121 274 C-1121 273.34 -1121 272.68 -1121 272 C-1118.09451118 269.95830515 -1116.59857954 269 -1113 269 C-1113 268.34 -1113 267.68 -1113 267 C-1111.0848421 266.18395001 -1109.16781166 265.37229368 -1107.25 264.5625 C-1106.18265625 264.11003906 -1105.1153125 263.65757812 -1104.015625 263.19140625 C-1101.6586159 262.26020447 -1099.47007165 261.5215928 -1097 261 C-1097 260.34 -1097 259.68 -1097 259 C-1095.35 258.67 -1093.7 258.34 -1092 258 C-1091.67 257.01 -1091.34 256.02 -1091 255 C-1088.9375 253.625 -1088.9375 253.625 -1086 252 C-1084.61917702 251.1763512 -1083.24448227 250.34237031 -1081.875 249.5 C-1081.21242188 249.0978125 -1080.54984375 248.695625 -1079.8671875 248.28125 C-1077.94612997 247.06096674 -1077.94612997 247.06096674 -1076.4453125 245.34375 C-1075 244 -1075 244 -1072 244 C-1072 243.34 -1072 242.68 -1072 242 C-1069.09451118 239.95830515 -1067.59857954 239 -1064 239 C-1064 238.34 -1064 237.68 -1064 237 C-1062.35 236.67 -1060.7 236.34 -1059 236 C-1059 235.34 -1059 234.68 -1059 234 C-1058.34 234 -1057.68 234 -1057 234 C-1057 233.34 -1057 232.68 -1057 232 C-1055.02 231.67 -1053.04 231.34 -1051 231 C-1051 230.34 -1051 229.68 -1051 229 C-1049.02 228.67 -1047.04 228.34 -1045 228 C-1045 227.34 -1045 226.68 -1045 226 C-1038.88595404 224.14256832 -1033.41481258 222.57234583 -1027 223 C-1027 222.34 -1027 221.68 -1027 221 C-1026.43079834 220.9498877 -1025.86159668 220.89977539 -1025.27514648 220.84814453 C-1022.66191893 220.61407662 -1020.04976061 220.3696142 -1017.4375 220.125 C-1016.54224609 220.04636719 -1015.64699219 219.96773437 -1014.72460938 219.88671875 C-1009.56671682 219.39549089 -1004.94129173 218.54298237 -1000 217 C-997.66742506 216.66140041 -995.33425788 216.3267961 -993 216 C-992.67 215.67 -992.34 215.34 -992 215 C-990.00041636 214.95919217 -987.99954746 214.95745644 -986 215 C-986 214.34 -986 213.68 -986 213 C-979.62641289 212.03794912 -973.44070471 211.89344422 -967 212 C-967 211.34 -967 210.68 -967 210 C-962.64667264 209.15976812 -958.55557481 208.89229005 -954.125 208.9375 C-952.97257812 208.94652344 -951.82015625 208.95554688 -950.6328125 208.96484375 C-949.76398438 208.97644531 -948.89515625 208.98804688 -948 209 C-948 208.34 -948 207.68 -948 207 C-944.7 207 -941.4 207 -938 207 C-938 206.34 -938 205.68 -938 205 C-934.37 204.67 -930.74 204.34 -927 204 C-927 203.34 -927 202.68 -927 202 C-925.02 201.67 -923.04 201.34 -921 201 C-921 200.34 -921 199.68 -921 199 C-914.5 196 -914.5 196 -910 196 C-910 195.34 -910 194.68 -910 194 C-906.7 193.67 -903.4 193.34 -900 193 C-900 192.34 -900 191.68 -900 191 C-898.02 190.67 -896.04 190.34 -894 190 C-894 189.34 -894 188.68 -894 188 C-891.89915791 186.99303432 -889.79420511 185.9946411 -887.6875 185 C-886.51574219 184.443125 -885.34398437 183.88625 -884.13671875 183.3125 C-881 182 -881 182 -878 182 C-878 181.34 -878 180.68 -878 180 C-858.03135776 170.61035631 -858.03135776 170.61035631 -851 169 C-851 168.34 -851 167.68 -851 167 C-849.02 166.67 -847.04 166.34 -845 166 C-845 165.34 -845 164.68 -845 164 C-844.03320312 163.61328125 -843.06640625 163.2265625 -842.0703125 162.828125 C-841.44423096 162.57764404 -840.81814941 162.32716309 -840.1730957 162.0690918 C-838.80197369 161.52074106 -837.43071598 160.9727295 -836.05932617 160.42504883 C-833.00897074 159.20641691 -829.96058587 157.98396459 -826.91796875 156.74609375 C-826.05816406 156.39675781 -825.19835937 156.04742187 -824.3125 155.6875 C-823.56613281 155.38199219 -822.81976562 155.07648438 -822.05078125 154.76171875 C-820.05143208 154.01910334 -818.07788964 153.47374008 -816 153 C-816 152.34 -816 151.68 -816 151 C-814.02 150.67 -812.04 150.34 -810 150 C-810 149.34 -810 148.68 -810 148 C-807.36 147.67 -804.72 147.34 -802 147 C-802 146.34 -802 145.68 -802 145 C-795.375 142 -795.375 142 -792 142 C-792 141.34 -792 140.68 -792 140 C-789.03 139.67 -786.06 139.34 -783 139 C-783 138.34 -783 137.68 -783 137 C-782.39671875 136.86722656 -781.7934375 136.73445312 -781.171875 136.59765625 C-780.37265625 136.42105469 -779.5734375 136.24445313 -778.75 136.0625 C-777.96109375 135.88847656 -777.1721875 135.71445313 -776.359375 135.53515625 C-774.23121297 135.052444 -772.11467158 134.53836822 -770 134 C-770 133.34 -770 132.68 -770 132 C-769.43152344 131.87882813 -768.86304688 131.75765625 -768.27734375 131.6328125 C-764.5226411 130.81793546 -760.80648074 129.9786559 -757.125 128.875 C-754 128 -754 128 -751 128 C-751 127.34 -751 126.68 -751 126 C-747.59648662 123.96780512 -744.6767073 123.63108961 -740.75 123.375 C-739.13351562 123.26285156 -739.13351562 123.26285156 -737.484375 123.1484375 C-736.66453125 123.09945312 -735.8446875 123.05046875 -735 123 C-735 122.34 -735 121.68 -735 121 C-733.71802734 120.80083984 -733.71802734 120.80083984 -732.41015625 120.59765625 C-730.75306641 120.33275391 -730.75306641 120.33275391 -729.0625 120.0625 C-727.96035156 119.88847656 -726.85820313 119.71445313 -725.72265625 119.53515625 C-723.09573071 119.28154864 -723.09573071 119.28154864 -722 118 C-716.3177849 116.91191626 -710.77185149 116.89547955 -705 117 C-705 116.34 -705 115.68 -705 115 C-704.36191406 114.93941406 -703.72382812 114.87882812 -703.06640625 114.81640625 C-702.24011719 114.73261719 -701.41382813 114.64882812 -700.5625 114.5625 C-699.73878906 114.48128906 -698.91507813 114.40007812 -698.06640625 114.31640625 C-696.01337975 114.21069185 -696.01337975 114.21069185 -695 113 C-688.38270607 111.64646261 -681.72724312 111.9089546 -675 112 C-675 111.34 -675 110.68 -675 110 C-665.97746114 109.16069406 -657.0598059 108.87775374 -648 109 C-648 108.34 -648 107.68 -648 107 C-643.71 107 -639.42 107 -635 107 C-635 106.34 -635 105.68 -635 105 C-623.31068812 104.09710143 -611.72024504 103.88534543 -600 104 C-600 103.34 -600 102.68 -600 102 C-577.45140247 101.23462922 -554.93438673 100.85527783 -532.37342286 100.89860606 C-528.43113544 100.90503667 -524.48884643 100.90545842 -520.54655457 100.90663147 C-513.1457756 100.90968864 -505.74501215 100.91782274 -498.34423989 100.92798096 C-489.89135424 100.93932106 -481.43846768 100.94469671 -472.98557627 100.94967639 C-455.65704201 100.960013 -438.32852266 100.97749841 -421 101 C-421 100.34 -421 99.68 -421 99 C-420.01 99 -419.02 99 -418 99 C-418 99.66 -418 100.32 -418 101 C-417.34 101 -416.68 101 -416 101 C-416 100.34 -416 99.68 -416 99 C-412.04 99 -408.08 99 -404 99 C-404 99.66 -404 100.32 -404 101 C-403.34 101 -402.68 101 -402 101 C-402 100.34 -402 99.68 -402 99 C-401.030625 99.185625 -400.06125 99.37125 -399.0625 99.5625 C-398.051875 99.706875 -397.04125 99.85125 -396 100 C-395.67 99.67 -395.34 99.34 -395 99 C-392.35478582 98.91015365 -389.73587178 98.88506777 -387.09057617 98.90234375 C-385.84642944 98.90453415 -385.84642944 98.90453415 -384.57714844 98.9067688 C-382.76776223 98.91058605 -380.95837981 98.91671429 -379.1490078 98.92483521 C-376.27660249 98.93757257 -373.4042433 98.94410923 -370.53181458 98.94897461 C-363.38637944 98.96236862 -356.24098718 98.98639716 -349.09558105 99.01037598 C-343.07686412 99.03020819 -337.05816433 99.04581682 -331.03942299 99.05593872 C-328.22572911 99.06236802 -325.41210564 99.07488419 -322.59843445 99.08764648 C-309.2588131 99.24050793 -309.2588131 99.24050793 -296 98 C-295.67 97.67 -295.34 97.34 -295 97 C-293.35424533 96.7964343 -291.70100247 96.65267122 -290.046875 96.53515625 C-289.03496094 96.45716797 -288.02304687 96.37917969 -286.98046875 96.29882812 C-284.84264722 96.14243368 -282.70462574 95.9887466 -280.56640625 95.83789062 C-279.54933594 95.75861328 -278.53226563 95.67933594 -277.484375 95.59765625 C-276.55334961 95.53070557 -275.62232422 95.46375488 -274.66308594 95.39477539 C-271.8557837 94.9786214 -269.61027169 94.08579217 -267 93 C-264.1875 92.875 -264.1875 92.875 -262 93 C-262 92.34 -262 91.68 -262 91 C-259.03 90.505 -259.03 90.505 -256 90 C-256 89.34 -256 88.68 -256 88 C-249.5 85 -249.5 85 -245 85 C-245 84.34 -245 83.68 -245 83 C-244.21753906 82.86722656 -243.43507813 82.73445313 -242.62890625 82.59765625 C-241.61699219 82.42105469 -240.60507813 82.24445313 -239.5625 82.0625 C-238.04849609 81.80146484 -238.04849609 81.80146484 -236.50390625 81.53515625 C-234.0712562 81.25248903 -234.0712562 81.25248903 -233 80 C-231.00041636 79.95919217 -228.99954746 79.95745644 -227 80 C-227 79.34 -227 78.68 -227 78 C-224.03 77.505 -224.03 77.505 -221 77 C-221 76.34 -221 75.68 -221 75 C-219.35 74.67 -217.7 74.34 -216 74 C-216 73.34 -216 72.68 -216 72 C-213.921188 70.99063464 -211.8367638 69.99282154 -209.75 69 C-208.58984375 68.443125 -207.4296875 67.88625 -206.234375 67.3125 C-203 66 -203 66 -199 66 C-199 65.34 -199 64.68 -199 64 C-197.35 63.67 -195.7 63.34 -194 63 C-194 62.34 -194 61.68 -194 61 C-192.35 61 -190.7 61 -189 61 C-189 60.34 -189 59.68 -189 59 C-186.36 58.67 -183.72 58.34 -181 58 C-180.67 57.01 -180.34 56.02 -180 55 C-177.39757586 53.35179805 -176.13751221 53 -173 53 C-173 52.34 -173 51.68 -173 51 C-170.03 50.505 -170.03 50.505 -167 50 C-167 49.34 -167 48.68 -167 48 C-160.375 45 -160.375 45 -157 45 C-157 44.34 -157 43.68 -157 43 C-149.790975 39.6838485 -142.87055731 39.32057045 -135 39 C-135 38.34 -135 37.68 -135 37 C-132.09451118 34.95830515 -130.59857954 34 -127 34 C-127 33.34 -127 32.68 -127 32 C-125.02 31.67 -123.04 31.34 -121 31 C-121 30.34 -121 29.68 -121 29 C-118.48198694 25.59327645 -114.78613238 24.61261194 -111 23 C-110.67 22.34 -110.34 21.68 -110 21 C-107.8203125 20 -107.8203125 20 -105.125 19 C-102.06202491 17.85696556 -99.7433159 16.82887727 -97 15 C-96.01 15 -95.02 15 -94 15 C-94 14.34 -94 13.68 -94 13 C-88.35995762 10.11439692 -82.96085809 9.24320936 -76.6953125 8.4296875 C-74.08889375 8.28454961 -74.08889375 8.28454961 -73 7 C-69.36046804 6.72929101 -65.72756476 6.55354483 -62.08203125 6.39453125 C-58.22526907 6.57300905 -58.22526907 6.57300905 -55 5 C-48.61209213 4.09287902 -42.38089307 3.87251621 -35.9375 3.9375 C-35.07189453 3.94201172 -34.20628906 3.94652344 -33.31445312 3.95117188 C-31.20960461 3.96280087 -29.10479242 3.98072927 -27 4 C-27 3.34 -27 2.68 -27 2 C-18.09 2 -9.18 2 0 2 C0 1.34 0 0.68 0 0 Z " fill="#1F1F1F" transform="translate(1287,0)"/>
</svg>
