<?xml version="1.0" encoding="UTF-8"?>
<svg version="1.1" xmlns="http://www.w3.org/2000/svg" width="3000" height="1104">
<path d="M0 0 C1.2786795 -0.00637985 2.55735901 -0.0127597 3.87478638 -0.01933289 C5.28354861 -0.02086225 6.69231135 -0.02197584 8.10107422 -0.02270508 C9.54019199 -0.02591754 10.97930943 -0.0292816 12.41842651 -0.03279114 C15.44318396 -0.038792 18.4679128 -0.04063027 21.49267578 -0.04003906 C25.35613077 -0.03993787 29.21940019 -0.05354111 33.08281136 -0.07081127 C36.05979237 -0.08197384 39.0367293 -0.0839569 42.0137291 -0.08342934 C43.43698638 -0.08460493 44.86024497 -0.08900296 46.2834816 -0.0967617 C48.28401546 -0.1066385 50.28460363 -0.10239962 52.28515625 -0.09765625 C53.42131378 -0.09908127 54.55747131 -0.10050629 55.72805786 -0.10197449 C59.4483975 0.1765276 62.48620212 1.01131593 66.03076172 2.14526367 C66.03076172 2.80526367 66.03076172 3.46526367 66.03076172 4.14526367 C66.81580078 4.19424805 67.60083984 4.24323242 68.40966797 4.29370117 C74.22098475 4.70726727 79.50970472 5.26308515 85.03076172 7.14526367 C85.03076172 7.80526367 85.03076172 8.46526367 85.03076172 9.14526367 C87.0164388 9.11271159 89.00211589 9.08015951 90.98779297 9.04760742 C93.03076172 9.14526367 93.03076172 9.14526367 96.03076172 10.14526367 C96.03076172 10.80526367 96.03076172 11.46526367 96.03076172 12.14526367 C98.67076172 12.47526367 101.31076172 12.80526367 104.03076172 13.14526367 C104.03076172 13.80526367 104.03076172 14.46526367 104.03076172 15.14526367 C104.66884766 15.20584961 105.30693359 15.26643555 105.96435547 15.32885742 C106.79064453 15.41264648 107.61693359 15.49643555 108.46826172 15.58276367 C109.70382812 15.70458008 109.70382812 15.70458008 110.96435547 15.82885742 C113.03076172 16.14526367 113.03076172 16.14526367 114.03076172 17.14526367 C115.87968118 17.37890248 117.73564203 17.55830002 119.59326172 17.70776367 C121.11113281 17.83344727 121.11113281 17.83344727 122.65966797 17.96166992 C123.83335937 18.05254883 123.83335937 18.05254883 125.03076172 18.14526367 C125.03076172 18.80526367 125.03076172 19.46526367 125.03076172 20.14526367 C125.80419922 20.18264648 126.57763672 20.2200293 127.37451172 20.25854492 C133.85317801 20.66747064 139.0895887 21.51743715 145.03076172 24.14526367 C145.03076172 24.80526367 145.03076172 25.46526367 145.03076172 26.14526367 C146.68076172 26.14526367 148.33076172 26.14526367 150.03076172 26.14526367 C150.03076172 26.80526367 150.03076172 27.46526367 150.03076172 28.14526367 C156.46576172 28.64026367 156.46576172 28.64026367 163.03076172 29.14526367 C163.03076172 29.80526367 163.03076172 30.46526367 163.03076172 31.14526367 C166.66076172 31.47526367 170.29076172 31.80526367 174.03076172 32.14526367 C174.03076172 32.80526367 174.03076172 33.46526367 174.03076172 34.14526367 C175.02076172 34.14526367 176.01076172 34.14526367 177.03076172 34.14526367 C177.03076172 34.80526367 177.03076172 35.46526367 177.03076172 36.14526367 C180.66076172 36.47526367 184.29076172 36.80526367 188.03076172 37.14526367 C188.03076172 37.80526367 188.03076172 38.46526367 188.03076172 39.14526367 C189.20638672 39.26901367 189.20638672 39.26901367 190.40576172 39.39526367 C194.39468352 40.22055784 197.83503825 41.60460525 201.56591797 43.20776367 C204.04680327 44.15136505 206.41889472 44.69831317 209.03076172 45.14526367 C209.03076172 45.80526367 209.03076172 46.46526367 209.03076172 47.14526367 C212.00076172 47.47526367 214.97076172 47.80526367 218.03076172 48.14526367 C218.03076172 48.80526367 218.03076172 49.46526367 218.03076172 50.14526367 C218.88927734 50.25741211 219.74779297 50.36956055 220.63232422 50.48510742 C224.16708731 51.17174531 227.10679296 52.27821054 230.40576172 53.70776367 C231.46537109 54.16280273 232.52498047 54.6178418 233.61669922 55.08666992 C234.41333984 55.43600586 235.20998047 55.7853418 236.03076172 56.14526367 C236.03076172 56.80526367 236.03076172 57.46526367 236.03076172 58.14526367 C238.01076172 58.47526367 239.99076172 58.80526367 242.03076172 59.14526367 C242.03076172 59.80526367 242.03076172 60.46526367 242.03076172 61.14526367 C243.68076172 61.14526367 245.33076172 61.14526367 247.03076172 61.14526367 C247.03076172 61.80526367 247.03076172 62.46526367 247.03076172 63.14526367 C249.01076172 63.47526367 250.99076172 63.80526367 253.03076172 64.14526367 C253.03076172 64.80526367 253.03076172 65.46526367 253.03076172 66.14526367 C254.00013672 66.39276367 254.96951172 66.64026367 255.96826172 66.89526367 C260.5248635 68.1838109 264.74917575 70.14524846 269.03076172 72.14526367 C269.03076172 72.80526367 269.03076172 73.46526367 269.03076172 74.14526367 C271.67076172 74.47526367 274.31076172 74.80526367 277.03076172 75.14526367 C277.03076172 75.80526367 277.03076172 76.46526367 277.03076172 77.14526367 C280.66076172 77.47526367 284.29076172 77.80526367 288.03076172 78.14526367 C288.03076172 78.80526367 288.03076172 79.46526367 288.03076172 80.14526367 C288.87638672 80.08338867 289.72201172 80.02151367 290.59326172 79.95776367 C294.76696015 80.18541995 297.28509118 81.34734182 301.03076172 83.14526367 C301.03076172 83.80526367 301.03076172 84.46526367 301.03076172 85.14526367 C304.00076172 85.47526367 306.97076172 85.80526367 310.03076172 86.14526367 C310.03076172 86.80526367 310.03076172 87.46526367 310.03076172 88.14526367 C311.33013672 88.12463867 312.62951172 88.10401367 313.96826172 88.08276367 C315.32241805 88.06126913 316.67832255 88.07378169 318.03076172 88.14526367 C318.36076172 88.47526367 318.69076172 88.80526367 319.03076172 89.14526367 C321.55272139 89.54469543 324.06039828 89.89606215 326.59326172 90.20776367 C327.65963867 90.34408203 327.65963867 90.34408203 328.74755859 90.4831543 C330.50814574 90.7076587 332.26939649 90.92694765 334.03076172 91.14526367 C334.03076172 91.80526367 334.03076172 92.46526367 334.03076172 93.14526367 C334.89958984 93.13366211 335.76841797 93.12206055 336.66357422 93.11010742 C338.39220703 93.09657227 338.39220703 93.09657227 340.15576172 93.08276367 C341.29271484 93.07116211 342.42966797 93.05956055 343.60107422 93.04760742 C346.84367732 93.13993667 349.85008784 93.53136461 353.03076172 94.14526367 C353.03076172 94.80526367 353.03076172 95.46526367 353.03076172 96.14526367 C354.24634766 96.20584961 355.46193359 96.26643555 356.71435547 96.32885742 C358.299004 96.41324699 359.88363874 96.49789577 361.46826172 96.58276367 C362.27070312 96.62208008 363.07314453 96.66139648 363.89990234 96.7019043 C369.91748047 97.03198242 369.91748047 97.03198242 371.03076172 98.14526367 C372.52573014 98.3522593 374.02742092 98.51205626 375.53076172 98.64526367 C379.91965061 99.03415256 379.91965061 99.03415256 381.03076172 100.14526367 C382.73455252 100.37279724 384.44649671 100.53999605 386.15966797 100.68041992 C387.19414063 100.76743164 388.22861328 100.85444336 389.29443359 100.9440918 C390.38304687 101.03110352 391.47166016 101.11811523 392.59326172 101.20776367 C394.23198242 101.34408203 394.23198242 101.34408203 395.90380859 101.4831543 C398.61248664 101.70789178 401.32144338 101.92840457 404.03076172 102.14526367 C404.03076172 102.80526367 404.03076172 103.46526367 404.03076172 104.14526367 C404.87896484 104.13366211 405.72716797 104.12206055 406.60107422 104.11010742 C415.10110779 104.04472255 423.57740704 104.14274284 432.03076172 105.14526367 C432.36076172 105.47526367 432.69076172 105.80526367 433.03076172 106.14526367 C436.00171624 106.43233443 438.97298428 106.59388985 441.95263672 106.76635742 C444.99613375 107.14100109 447.22133496 107.97083117 450.03076172 109.14526367 C452.22707369 109.5177137 452.22707369 109.5177137 454.40576172 109.64526367 C458.46728572 110.0224533 462.11880689 110.96429618 466.03076172 112.14526367 C468.02564406 112.50796955 470.02454282 112.85167066 472.03076172 113.14526367 C472.03076172 113.80526367 472.03076172 114.46526367 472.03076172 115.14526367 C473.12388672 115.08338867 474.21701172 115.02151367 475.34326172 114.95776367 C481.8695743 114.94610954 488.59200462 116.51942561 494.03076172 120.14526367 C495.68625703 120.53026258 497.35300502 120.87319502 499.03076172 121.14526367 C499.03076172 121.80526367 499.03076172 122.46526367 499.03076172 123.14526367 C501.67076172 123.47526367 504.31076172 123.80526367 507.03076172 124.14526367 C507.03076172 124.80526367 507.03076172 125.46526367 507.03076172 126.14526367 C508.68076172 126.14526367 510.33076172 126.14526367 512.03076172 126.14526367 C512.03076172 126.80526367 512.03076172 127.46526367 512.03076172 128.14526367 C512.79259766 128.17104492 513.55443359 128.19682617 514.33935547 128.22338867 C520.43510077 128.5582361 525.25816128 129.28408275 530.71826172 132.02416992 C535.00361887 134.10169949 539.5422779 135.56800207 544.03076172 137.14526367 C544.03076172 137.80526367 544.03076172 138.46526367 544.03076172 139.14526367 C546.01076172 139.47526367 547.99076172 139.80526367 550.03076172 140.14526367 C550.03076172 140.80526367 550.03076172 141.46526367 550.03076172 142.14526367 C550.60826172 142.26901367 551.18576172 142.39276367 551.78076172 142.52026367 C554.05411939 143.15175191 555.95611461 144.03384558 558.03076172 145.14526367 C558.03076172 145.80526367 558.03076172 146.46526367 558.03076172 147.14526367 C560.01076172 147.47526367 561.99076172 147.80526367 564.03076172 148.14526367 C564.03076172 148.80526367 564.03076172 149.46526367 564.03076172 150.14526367 C565.68076172 150.47526367 567.33076172 150.80526367 569.03076172 151.14526367 C569.03076172 151.80526367 569.03076172 152.46526367 569.03076172 153.14526367 C569.92794922 153.29995117 569.92794922 153.29995117 570.84326172 153.45776367 C573.03076172 154.14526367 573.03076172 154.14526367 574.37451172 155.61401367 C576.43838312 157.5221212 577.97797197 157.8164772 580.71826172 158.33276367 C581.52650391 158.49131836 582.33474609 158.64987305 583.16748047 158.81323242 C583.78236328 158.92280273 584.39724609 159.03237305 585.03076172 159.14526367 C585.03076172 159.80526367 585.03076172 160.46526367 585.03076172 161.14526367 C585.88541016 161.34829102 585.88541016 161.34829102 586.75732422 161.55541992 C589.01410257 162.14094145 591.19777318 162.8351465 593.40576172 163.58276367 C594.18564453 163.84573242 594.96552734 164.10870117 595.76904297 164.37963867 C596.51541016 164.63229492 597.26177734 164.88495117 598.03076172 165.14526367 C599.20638672 165.53713867 600.38201172 165.92901367 601.59326172 166.33276367 C602.39763672 166.60088867 603.20201172 166.86901367 604.03076172 167.14526367 C604.03076172 167.80526367 604.03076172 168.46526367 604.03076172 169.14526367 C604.81580078 169.19424805 605.60083984 169.24323242 606.40966797 169.29370117 C612.22098475 169.70726727 617.50970472 170.26308515 623.03076172 172.14526367 C623.03076172 172.80526367 623.03076172 173.46526367 623.03076172 174.14526367 C627.32076172 174.47526367 631.61076172 174.80526367 636.03076172 175.14526367 C636.03076172 175.80526367 636.03076172 176.46526367 636.03076172 177.14526367 C639.00076172 177.47526367 641.97076172 177.80526367 645.03076172 178.14526367 C645.03076172 178.80526367 645.03076172 179.46526367 645.03076172 180.14526367 C646.68076172 180.14526367 648.33076172 180.14526367 650.03076172 180.14526367 C650.03076172 180.80526367 650.03076172 181.46526367 650.03076172 182.14526367 C654.32076172 182.47526367 658.61076172 182.80526367 663.03076172 183.14526367 C663.03076172 183.80526367 663.03076172 184.46526367 663.03076172 185.14526367 C663.81580078 185.19424805 664.60083984 185.24323242 665.40966797 185.29370117 C671.22098475 185.70726727 676.50970472 186.26308515 682.03076172 188.14526367 C682.03076172 188.80526367 682.03076172 189.46526367 682.03076172 190.14526367 C690.44576172 190.64026367 690.44576172 190.64026367 699.03076172 191.14526367 C699.03076172 191.80526367 699.03076172 192.46526367 699.03076172 193.14526367 C704.31076172 193.47526367 709.59076172 193.80526367 715.03076172 194.14526367 C715.03076172 194.80526367 715.03076172 195.46526367 715.03076172 196.14526367 C715.74361328 196.13366211 716.45646484 196.12206055 717.19091797 196.11010742 C724.94354763 196.03706784 731.30874067 196.44802645 738.56591797 199.37963867 C743.88611817 201.03218897 749.51450893 201.48672226 755.03076172 202.14526367 C755.03076172 202.80526367 755.03076172 203.46526367 755.03076172 204.14526367 C756.20832031 204.21874023 756.20832031 204.21874023 757.40966797 204.29370117 C763.22098475 204.70726727 768.50970472 205.26308515 774.03076172 207.14526367 C774.03076172 207.80526367 774.03076172 208.46526367 774.03076172 209.14526367 C775.94888672 209.11432617 775.94888672 209.11432617 777.90576172 209.08276367 C782.99283189 209.07467612 787.98237641 209.55505579 793.03076172 210.14526367 C793.03076172 210.80526367 793.03076172 211.46526367 793.03076172 212.14526367 C794.82513672 212.11432617 794.82513672 212.11432617 796.65576172 212.08276367 C800.21081041 212.07643796 803.53631795 212.44637492 807.03076172 213.14526367 C807.03076172 213.80526367 807.03076172 214.46526367 807.03076172 215.14526367 C807.87638672 215.10401367 808.72201172 215.06276367 809.59326172 215.02026367 C813.37578595 215.15781001 816.4051634 216.0825883 820.03076172 217.14526367 C822.69485038 217.57133058 825.34595375 217.86265231 828.03076172 218.14526367 C828.03076172 218.80526367 828.03076172 219.46526367 828.03076172 220.14526367 C829.20832031 220.21874023 829.20832031 220.21874023 830.40966797 220.29370117 C836.25961966 220.71001675 841.38738382 221.53286999 847.03076172 223.14526367 C850.20369997 223.4739184 853.37029417 223.70560746 856.55419922 223.89916992 C859.03076172 224.14526367 859.03076172 224.14526367 860.03076172 225.14526367 C862.02679377 225.35415075 864.02819113 225.51301844 866.03076172 225.64526367 C871.91965061 226.03415256 871.91965061 226.03415256 873.03076172 227.14526367 C874.36878358 227.37039468 875.71649195 227.53887174 877.06591797 227.68041992 C877.87480469 227.76743164 878.68369141 227.85444336 879.51708984 227.9440918 C880.79229492 228.07460938 880.79229492 228.07460938 882.09326172 228.20776367 C882.94726562 228.29864258 883.80126953 228.38952148 884.68115234 228.4831543 C886.79727707 228.70777089 888.91397066 228.92701595 891.03076172 229.14526367 C891.03076172 229.80526367 891.03076172 230.46526367 891.03076172 231.14526367 C892.29919922 231.12786133 892.29919922 231.12786133 893.59326172 231.11010742 C899.8463679 231.0603668 905.85082103 231.17586121 912.03076172 232.14526367 C912.03076172 232.80526367 912.03076172 233.46526367 912.03076172 234.14526367 C914.67076172 234.14526367 917.31076172 234.14526367 920.03076172 234.14526367 C920.03076172 234.80526367 920.03076172 235.46526367 920.03076172 236.14526367 C920.88541016 236.20584961 921.74005859 236.26643555 922.62060547 236.32885742 C923.72533203 236.41264648 924.83005859 236.49643555 925.96826172 236.58276367 C927.07041016 236.66397461 928.17255859 236.74518555 929.30810547 236.82885742 C932.03076172 237.14526367 932.03076172 237.14526367 933.03076172 238.14526367 C934.88076132 238.37348967 936.73841685 238.54031305 938.59716797 238.68041992 C939.721875 238.76743164 940.84658203 238.85444336 942.00537109 238.9440918 C943.78137695 239.07460938 943.78137695 239.07460938 945.59326172 239.20776367 C947.37506836 239.34408203 947.37506836 239.34408203 949.19287109 239.4831543 C952.13855077 239.70792504 955.08448846 239.92843563 958.03076172 240.14526367 C958.03076172 240.80526367 958.03076172 241.46526367 958.03076172 242.14526367 C958.98337891 242.12206055 959.93599609 242.09885742 960.91748047 242.07495117 C962.17173828 242.0569043 963.42599609 242.03885742 964.71826172 242.02026367 C965.95962891 241.99706055 967.20099609 241.97385742 968.47998047 241.94995117 C971.89872255 242.13800079 973.95024701 242.77152063 977.03076172 244.14526367 C979.69648187 244.63839864 982.32891888 244.87049999 985.03076172 245.14526367 C985.03076172 245.80526367 985.03076172 246.46526367 985.03076172 247.14526367 C986.82513672 247.11432617 986.82513672 247.11432617 988.65576172 247.08276367 C992.21081041 247.07643796 995.53631795 247.44637492 999.03076172 248.14526367 C999.03076172 248.80526367 999.03076172 249.46526367 999.03076172 250.14526367 C1000.00013672 250.08338867 1000.96951172 250.02151367 1001.96826172 249.95776367 C1006.64636118 249.92900486 1010.70551754 251.4975516 1015.03076172 253.14526367 C1015.03076172 253.80526367 1015.03076172 254.46526367 1015.03076172 255.14526367 C1015.81451172 255.20713867 1016.59826172 255.26901367 1017.40576172 255.33276367 C1022.38364965 256.44849717 1026.55529866 258.74832595 1031.03076172 261.14526367 C1031.03076172 261.80526367 1031.03076172 262.46526367 1031.03076172 263.14526367 C1031.85576172 263.24838867 1032.68076172 263.35151367 1033.53076172 263.45776367 C1037.62365184 264.26172423 1041.15616396 265.60878525 1045.03076172 267.14526367 C1045.03076172 267.80526367 1045.03076172 268.46526367 1045.03076172 269.14526367 C1046.68076172 269.14526367 1048.33076172 269.14526367 1050.03076172 269.14526367 C1050.03076172 269.80526367 1050.03076172 270.46526367 1050.03076172 271.14526367 C1051.68076172 271.47526367 1053.33076172 271.80526367 1055.03076172 272.14526367 C1055.03076172 272.80526367 1055.03076172 273.46526367 1055.03076172 274.14526367 C1057.01076172 274.47526367 1058.99076172 274.80526367 1061.03076172 275.14526367 C1061.03076172 275.80526367 1061.03076172 276.46526367 1061.03076172 277.14526367 C1061.97951172 277.22776367 1062.92826172 277.31026367 1063.90576172 277.39526367 C1065.45263672 277.76651367 1065.45263672 277.76651367 1067.03076172 278.14526367 C1067.69742839 279.47859701 1068.36409505 280.81193034 1069.03076172 282.14526367 C1071.02836477 282.4926729 1073.02863943 282.82492411 1075.03076172 283.14526367 C1077.21826172 285.14526367 1077.21826172 285.14526367 1079.03076172 287.14526367 C1080.02076172 287.47526367 1081.01076172 287.80526367 1082.03076172 288.14526367 C1082.36076172 288.80526367 1082.69076172 289.46526367 1083.03076172 290.14526367 C1085.511992 291.2035662 1088.03738847 292.0659301 1090.58544922 292.94995117 C1093.35347871 294.30301351 1094.33674015 295.62172122 1096.03076172 298.14526367 C1099.61426348 300.76025144 1102.64371878 301.6351424 1107.03076172 302.14526367 C1107.03076172 302.80526367 1107.03076172 303.46526367 1107.03076172 304.14526367 C1110.66076172 304.47526367 1114.29076172 304.80526367 1118.03076172 305.14526367 C1118.03076172 305.80526367 1118.03076172 306.46526367 1118.03076172 307.14526367 C1120.93700469 307.88515581 1123.85226947 308.56177273 1126.78076172 309.20776367 C1127.57998047 309.38436523 1128.37919922 309.5609668 1129.20263672 309.74291992 C1129.80591797 309.87569336 1130.40919922 310.0084668 1131.03076172 310.14526367 C1131.03076172 310.80526367 1131.03076172 311.46526367 1131.03076172 312.14526367 C1132.82513672 312.11432617 1132.82513672 312.11432617 1134.65576172 312.08276367 C1138.21081041 312.07643796 1141.53631795 312.44637492 1145.03076172 313.14526367 C1145.03076172 313.80526367 1145.03076172 314.46526367 1145.03076172 315.14526367 C1147.93700469 315.88515581 1150.85226947 316.56177273 1153.78076172 317.20776367 C1154.57998047 317.38436523 1155.37919922 317.5609668 1156.20263672 317.74291992 C1156.80591797 317.87569336 1157.40919922 318.0084668 1158.03076172 318.14526367 C1158.03076172 318.80526367 1158.03076172 319.46526367 1158.03076172 320.14526367 C1160.01076172 320.47526367 1161.99076172 320.80526367 1164.03076172 321.14526367 C1164.03076172 321.80526367 1164.03076172 322.46526367 1164.03076172 323.14526367 C1164.81451172 323.22776367 1165.59826172 323.31026367 1166.40576172 323.39526367 C1171.89936253 324.53187074 1177.10550522 326.62702218 1182.08544922 329.21166992 C1184.07293631 330.16550409 1185.88185046 330.67518933 1188.03076172 331.14526367 C1190.93629466 331.82828074 1193.43130011 332.62891107 1196.03076172 334.14526367 C1196.03076172 334.80526367 1196.03076172 335.46526367 1196.03076172 336.14526367 C1199.99076172 336.64026367 1199.99076172 336.64026367 1204.03076172 337.14526367 C1204.03076172 337.80526367 1204.03076172 338.46526367 1204.03076172 339.14526367 C1207.66076172 339.47526367 1211.29076172 339.80526367 1215.03076172 340.14526367 C1215.03076172 340.80526367 1215.03076172 341.46526367 1215.03076172 342.14526367 C1216.68076172 342.14526367 1218.33076172 342.14526367 1220.03076172 342.14526367 C1220.03076172 342.80526367 1220.03076172 343.46526367 1220.03076172 344.14526367 C1220.62244141 344.19424805 1221.21412109 344.24323242 1221.82373047 344.29370117 C1226.2670022 344.71410861 1229.92109425 345.3187448 1234.03076172 347.14526367 C1235.68996068 347.51397455 1237.35552602 347.85808041 1239.03076172 348.14526367 C1239.03076172 348.80526367 1239.03076172 349.46526367 1239.03076172 350.14526367 C1240.16513672 350.28963867 1241.29951172 350.43401367 1242.46826172 350.58276367 C1246.03076172 351.14526367 1246.03076172 351.14526367 1247.03076172 352.14526367 C1248.90220763 352.33122754 1250.77856476 352.46864128 1252.65576172 352.58276367 C1257.4403219 352.93990501 1261.48238522 353.68978319 1266.03076172 355.14526367 C1268.02564406 355.50796955 1270.02454282 355.85167066 1272.03076172 356.14526367 C1272.03076172 356.80526367 1272.03076172 357.46526367 1272.03076172 358.14526367 C1273.39201172 358.33088867 1273.39201172 358.33088867 1274.78076172 358.52026367 C1277.62046494 359.06636045 1279.55666763 359.7179017 1282.03076172 361.14526367 C1282.03076172 361.80526367 1282.03076172 362.46526367 1282.03076172 363.14526367 C1285.99076172 363.64026367 1285.99076172 363.64026367 1290.03076172 364.14526367 C1290.03076172 364.80526367 1290.03076172 365.46526367 1290.03076172 366.14526367 C1291.10326172 366.26901367 1292.17576172 366.39276367 1293.28076172 366.52026367 C1296.40939787 367.04170303 1298.36556596 367.54614621 1301.03076172 369.14526367 C1301.03076172 369.80526367 1301.03076172 370.46526367 1301.03076172 371.14526367 C1303.01076172 371.47526367 1304.99076172 371.80526367 1307.03076172 372.14526367 C1307.03076172 372.80526367 1307.03076172 373.46526367 1307.03076172 374.14526367 C1307.91763672 374.24838867 1308.80451172 374.35151367 1309.71826172 374.45776367 C1313.11343721 375.16242274 1315.2501827 376.10072027 1318.03076172 378.14526367 C1318.03076172 378.80526367 1318.03076172 379.46526367 1318.03076172 380.14526367 C1318.89701172 380.33088867 1318.89701172 380.33088867 1319.78076172 380.52026367 C1322.05411939 381.15175191 1323.95611461 382.03384558 1326.03076172 383.14526367 C1326.03076172 383.80526367 1326.03076172 384.46526367 1326.03076172 385.14526367 C1329.99076172 385.64026367 1329.99076172 385.64026367 1334.03076172 386.14526367 C1334.03076172 386.80526367 1334.03076172 387.46526367 1334.03076172 388.14526367 C1334.56701172 388.26901367 1335.10326172 388.39276367 1335.65576172 388.52026367 C1338.49459032 389.26732383 1341.25299374 390.19829732 1344.03076172 391.14526367 C1344.03076172 391.80526367 1344.03076172 392.46526367 1344.03076172 393.14526367 C1344.56701172 393.24838867 1345.10326172 393.35151367 1345.65576172 393.45776367 C1348.66438776 394.32868174 1351.25596232 395.70005565 1354.03076172 397.14526367 C1355.20638672 397.73307617 1355.20638672 397.73307617 1356.40576172 398.33276367 C1356.94201172 398.60088867 1357.47826172 398.86901367 1358.03076172 399.14526367 C1358.03076172 399.80526367 1358.03076172 400.46526367 1358.03076172 401.14526367 C1360.01076172 401.47526367 1361.99076172 401.80526367 1364.03076172 402.14526367 C1364.03076172 402.80526367 1364.03076172 403.46526367 1364.03076172 404.14526367 C1364.54509766 404.23807617 1365.05943359 404.33088867 1365.58935547 404.42651367 C1368.96335296 405.41981853 1371.98155975 407.03609692 1375.09326172 408.64526367 C1379.94758978 411.15256341 1379.94758978 411.15256341 1385.03076172 413.14526367 C1385.03076172 413.80526367 1385.03076172 414.46526367 1385.03076172 415.14526367 C1386.02076172 415.14526367 1387.01076172 415.14526367 1388.03076172 415.14526367 C1388.03076172 415.80526367 1388.03076172 416.46526367 1388.03076172 417.14526367 C1389.68076172 417.47526367 1391.33076172 417.80526367 1393.03076172 418.14526367 C1393.03076172 418.80526367 1393.03076172 419.46526367 1393.03076172 420.14526367 C1396.99076172 420.64026367 1396.99076172 420.64026367 1401.03076172 421.14526367 C1401.03076172 421.80526367 1401.03076172 422.46526367 1401.03076172 423.14526367 C1402.02076172 423.14526367 1403.01076172 423.14526367 1404.03076172 423.14526367 C1404.03076172 423.80526367 1404.03076172 424.46526367 1404.03076172 425.14526367 C1407.99076172 425.64026367 1407.99076172 425.64026367 1412.03076172 426.14526367 C1412.03076172 426.80526367 1412.03076172 427.46526367 1412.03076172 428.14526367 C1415.99076172 428.64026367 1415.99076172 428.64026367 1420.03076172 429.14526367 C1420.03076172 429.80526367 1420.03076172 430.46526367 1420.03076172 431.14526367 C1421.10326172 431.26901367 1422.17576172 431.39276367 1423.28076172 431.52026367 C1426.40939787 432.04170303 1428.36556596 432.54614621 1431.03076172 434.14526367 C1431.03076172 434.80526367 1431.03076172 435.46526367 1431.03076172 436.14526367 C1431.85576172 436.24838867 1432.68076172 436.35151367 1433.53076172 436.45776367 C1437.62365184 437.26172423 1441.15616396 438.60878525 1445.03076172 440.14526367 C1445.03076172 440.80526367 1445.03076172 441.46526367 1445.03076172 442.14526367 C1445.56701172 442.26901367 1446.10326172 442.39276367 1446.65576172 442.52026367 C1449.49459032 443.26732383 1452.25299374 444.19829732 1455.03076172 445.14526367 C1455.03076172 445.80526367 1455.03076172 446.46526367 1455.03076172 447.14526367 C1459.48576172 447.64026367 1459.48576172 447.64026367 1464.03076172 448.14526367 C1464.03076172 448.80526367 1464.03076172 449.46526367 1464.03076172 450.14526367 C1465.39201172 450.33088867 1465.39201172 450.33088867 1466.78076172 450.52026367 C1469.62046494 451.06636045 1471.55666763 451.7179017 1474.03076172 453.14526367 C1474.03076172 453.80526367 1474.03076172 454.46526367 1474.03076172 455.14526367 C1476.01076172 455.47526367 1477.99076172 455.80526367 1480.03076172 456.14526367 C1480.03076172 456.80526367 1480.03076172 457.46526367 1480.03076172 458.14526367 C1480.63404297 458.19424805 1481.23732422 458.24323242 1481.85888672 458.29370117 C1483.05771484 458.40584961 1483.05771484 458.40584961 1484.28076172 458.52026367 C1485.06966797 458.58987305 1485.85857422 458.65948242 1486.67138672 458.73120117 C1489.11663872 459.1603348 1490.87913075 459.93127005 1493.03076172 461.14526367 C1493.03076172 461.80526367 1493.03076172 462.46526367 1493.03076172 463.14526367 C1496.99076172 463.64026367 1496.99076172 463.64026367 1501.03076172 464.14526367 C1501.03076172 464.80526367 1501.03076172 465.46526367 1501.03076172 466.14526367 C1503.01076172 466.47526367 1504.99076172 466.80526367 1507.03076172 467.14526367 C1507.03076172 467.80526367 1507.03076172 468.46526367 1507.03076172 469.14526367 C1508.68076172 469.14526367 1510.33076172 469.14526367 1512.03076172 469.14526367 C1512.03076172 469.80526367 1512.03076172 470.46526367 1512.03076172 471.14526367 C1515.66076172 471.47526367 1519.29076172 471.80526367 1523.03076172 472.14526367 C1523.03076172 472.80526367 1523.03076172 473.46526367 1523.03076172 474.14526367 C1524.48482422 474.36182617 1524.48482422 474.36182617 1525.96826172 474.58276367 C1529.03076172 475.14526367 1529.03076172 475.14526367 1530.03076172 476.14526367 C1533.89189451 476.56288865 1537.75113143 476.91455148 1541.62255859 477.21948242 C1547.27762629 477.73958997 1551.76894361 479.02168481 1557.03076172 481.14526367 C1558.76949898 481.55112914 1560.5194231 481.91515419 1562.28076172 482.20776367 C1564.78673359 482.62675578 1566.76272655 483.00862856 1569.03076172 484.16479492 C1571.34155151 485.29762351 1573.22605463 485.54484834 1575.78076172 485.77026367 C1576.97958984 485.88241211 1576.97958984 485.88241211 1578.20263672 485.99682617 C1578.80591797 486.04581055 1579.40919922 486.09479492 1580.03076172 486.14526367 C1580.03076172 486.80526367 1580.03076172 487.46526367 1580.03076172 488.14526367 C1582.67076172 488.14526367 1585.31076172 488.14526367 1588.03076172 488.14526367 C1588.03076172 488.80526367 1588.03076172 489.46526367 1588.03076172 490.14526367 C1588.62244141 490.19424805 1589.21412109 490.24323242 1589.82373047 490.29370117 C1590.61392578 490.3684668 1591.40412109 490.44323242 1592.21826172 490.52026367 C1592.99556641 490.58987305 1593.77287109 490.65948242 1594.57373047 490.73120117 C1597.03076172 491.14526367 1597.03076172 491.14526367 1599.48388672 492.15307617 C1603.09623897 493.56034223 1606.56939885 493.58846129 1610.40966797 493.80151367 C1613.04174049 494.14670351 1614.75463157 494.81707479 1617.03076172 496.14526367 C1617.03076172 496.80526367 1617.03076172 497.46526367 1617.03076172 498.14526367 C1618.02076172 498.24838867 1619.01076172 498.35151367 1620.03076172 498.45776367 C1624.03076172 499.14526367 1624.03076172 499.14526367 1632.03076172 502.14526367 C1632.03076172 700.80526367 1632.03076172 899.46526367 1632.03076172 1104.14526367 C642.03076172 1104.14526367 -347.96923828 1104.14526367 -1367.96923828 1104.14526367 C-1367.96923828 365.14526367 -1367.96923828 365.14526367 -1366.96923828 364.14526367 C-1354.36502281 362.58297914 -1341.4730729 362.82433584 -1328.79272461 362.59301758 C-1326.04287057 362.54157433 -1323.2931831 362.48433838 -1320.54345703 362.42651367 C-1319.27183968 362.40615051 -1319.27183968 362.40615051 -1317.97453308 362.38537598 C-1314.16132634 362.66879931 -1314.16132634 362.66879931 -1310.96923828 361.14526367 C-1308.6907777 360.99860762 -1306.40803176 360.91773402 -1304.12548828 360.86401367 C-1303.44119751 360.84560425 -1302.75690674 360.82719482 -1302.05187988 360.80822754 C-1299.11287533 360.72931122 -1296.17363292 360.66173084 -1293.234375 360.59301758 C-1291.09379396 360.54138595 -1288.95341609 360.48409744 -1286.81298828 360.42651367 C-1285.52585937 360.3962207 -1284.23873047 360.36592773 -1282.91259766 360.3347168 C-1280.08161882 360.47771977 -1280.08161882 360.47771977 -1278.96923828 359.14526367 C-1277.05754993 358.92884612 -1275.13883581 358.77384915 -1273.21923828 358.64526367 C-1272.05392578 358.56276367 -1270.88861328 358.48026367 -1269.68798828 358.39526367 C-1267.20882161 358.22859701 -1264.72965495 358.06193034 -1262.25048828 357.89526367 C-1261.08517578 357.81276367 -1259.91986328 357.73026367 -1258.71923828 357.64526367 C-1257.64158203 357.57307617 -1256.56392578 357.50088867 -1255.45361328 357.42651367 C-1253.02968863 357.41340635 -1253.02968863 357.41340635 -1251.96923828 356.14526367 C-1243.35767902 354.92365894 -1234.64524194 355.02975475 -1225.96923828 355.14526367 C-1225.96923828 354.48526367 -1225.96923828 353.82526367 -1225.96923828 353.14526367 C-1224.82583984 353.08467773 -1223.68244141 353.0240918 -1222.50439453 352.96166992 C-1221.01349523 352.8772794 -1219.52261053 352.79263066 -1218.03173828 352.70776367 C-1217.27699219 352.66844727 -1216.52224609 352.62913086 -1215.74462891 352.58862305 C-1212.04979641 352.70488343 -1212.04979641 352.70488343 -1208.96923828 351.14526367 C-1206.02728042 350.92576008 -1203.10323445 350.76578597 -1200.15673828 350.64526367 C-1199.27268311 350.6046582 -1198.38862793 350.56405273 -1197.4777832 350.5222168 C-1193.67868649 350.34786941 -1189.87912961 350.18462362 -1186.07958984 350.02026367 C-1183.31345449 349.89904994 -1180.54761119 349.77230276 -1177.78173828 349.64526367 C-1176.48175903 349.59208984 -1176.48175903 349.59208984 -1175.15551758 349.5378418 C-1171.24342211 349.72772473 -1171.24342211 349.72772473 -1167.96923828 348.14526367 C-1166.42306803 347.93055922 -1164.86862629 347.77461145 -1163.31298828 347.64526367 C-1162.37326172 347.56276367 -1161.43353516 347.48026367 -1160.46533203 347.39526367 C-1158.4679362 347.22859701 -1156.47054036 347.06193034 -1154.47314453 346.89526367 C-1153.53341797 346.81276367 -1152.59369141 346.73026367 -1151.62548828 346.64526367 C-1150.75730469 346.57307617 -1149.88912109 346.50088867 -1148.99462891 346.42651367 C-1146.97676108 346.35382955 -1146.97676108 346.35382955 -1145.96923828 345.14526367 C-1144.27682367 344.92978383 -1142.5766813 344.77426409 -1140.87548828 344.64526367 C-1139.84552734 344.56276367 -1138.81556641 344.48026367 -1137.75439453 344.39526367 C-1135.56429036 344.22859701 -1133.3741862 344.06193034 -1131.18408203 343.89526367 C-1130.15412109 343.81276367 -1129.12416016 343.73026367 -1128.06298828 343.64526367 C-1127.11101562 343.57307617 -1126.15904297 343.50088867 -1125.17822266 343.42651367 C-1122.99785643 343.37792705 -1122.99785643 343.37792705 -1121.96923828 342.14526367 C-1119.39026135 341.82289155 -1116.80992007 341.63259063 -1114.21923828 341.42651367 C-1112.00258476 341.38325702 -1112.00258476 341.38325702 -1110.96923828 340.14526367 C-1102.68276518 338.98801484 -1094.31723896 339.02408302 -1085.96923828 339.14526367 C-1085.96923828 338.48526367 -1085.96923828 337.82526367 -1085.96923828 337.14526367 C-1076.94783399 336.38784442 -1068.02217165 336.00992081 -1058.96923828 336.14526367 C-1058.96923828 335.48526367 -1058.96923828 334.82526367 -1058.96923828 334.14526367 C-1054.67923828 334.14526367 -1050.38923828 334.14526367 -1045.96923828 334.14526367 C-1045.96923828 333.48526367 -1045.96923828 332.82526367 -1045.96923828 332.14526367 C-1044.93198608 332.06223999 -1044.93198608 332.06223999 -1043.8737793 331.97753906 C-1040.75936614 331.72562836 -1037.64556733 331.46679016 -1034.53173828 331.20776367 C-1033.443125 331.12075195 -1032.35451172 331.03374023 -1031.23291016 330.9440918 C-1030.1984375 330.85708008 -1029.16396484 330.77006836 -1028.09814453 330.68041992 C-1027.13980713 330.60186768 -1026.18146973 330.52331543 -1025.1940918 330.44238281 C-1023.00013939 330.37859296 -1023.00013939 330.37859296 -1021.96923828 329.14526367 C-1019.83836428 328.92810454 -1017.70105545 328.7735248 -1015.56298828 328.64526367 C-1014.26232422 328.56276367 -1012.96166016 328.48026367 -1011.62158203 328.39526367 C-1009.54107816 328.26920237 -1007.46048206 328.14473981 -1005.37988281 328.02026367 C-1003.37818947 327.89897764 -1001.3768308 327.7722071 -999.37548828 327.64526367 C-998.17214844 327.57307617 -996.96880859 327.50088867 -995.72900391 327.42651367 C-993.06167663 327.44829292 -993.06167663 327.44829292 -991.96923828 326.14526367 C-988.75936898 325.87527467 -985.55692969 325.6991493 -982.34033203 325.53979492 C-978.85979551 325.64820848 -978.85979551 325.64820848 -975.96923828 324.14526367 C-973.24571098 323.9260418 -970.54138328 323.76600733 -967.81298828 323.64526367 C-966.99552124 323.6046582 -966.1780542 323.56405273 -965.33581543 323.5222168 C-961.82348509 323.34789928 -958.31065909 323.18463558 -954.79785156 323.02026367 C-952.24019812 322.8990344 -949.68285906 322.77229416 -947.12548828 322.64526367 C-945.92394104 322.59208984 -945.92394104 322.59208984 -944.69812012 322.5378418 C-941.02812074 322.68421962 -941.02812074 322.68421962 -937.96923828 321.14526367 C-931.29720175 320.01227634 -924.7230529 320.04395645 -917.96923828 320.14526367 C-917.96923828 319.48526367 -917.96923828 318.82526367 -917.96923828 318.14526367 C-905.31142382 316.89731013 -892.67381005 317.04348931 -879.96923828 317.14526367 C-879.96923828 316.48526367 -879.96923828 315.82526367 -879.96923828 315.14526367 C-879.06568604 315.12020752 -878.16213379 315.09515137 -877.23120117 315.06933594 C-873.88959548 314.9743905 -870.54817576 314.87514746 -867.20678711 314.77294922 C-865.75859588 314.72954737 -864.31035174 314.68787623 -862.86206055 314.64794922 C-860.78434269 314.59037305 -858.70689255 314.52664339 -856.62939453 314.46166992 C-855.37779541 314.42501221 -854.12619629 314.38835449 -852.83666992 314.35058594 C-850.07293324 314.46722461 -850.07293324 314.46722461 -848.96923828 313.14526367 C-845.29428344 312.6944187 -841.62020108 312.32667431 -837.93408203 311.9831543 C-833.04428927 311.48935749 -828.67080583 310.55984267 -823.96923828 309.14526367 C-820.53173828 309.02026367 -820.53173828 309.02026367 -817.96923828 309.14526367 C-817.96923828 308.48526367 -817.96923828 307.82526367 -817.96923828 307.14526367 C-816.60798828 306.77401367 -816.60798828 306.77401367 -815.21923828 306.39526367 C-810.68806695 305.11913787 -806.2700122 303.52761699 -801.83642578 301.94995117 C-799.0532522 301.16884251 -796.84006114 300.98752615 -793.96923828 301.14526367 C-793.96923828 300.48526367 -793.96923828 299.82526367 -793.96923828 299.14526367 C-792.70084303 298.6391107 -791.42940727 298.14057268 -790.15673828 297.64526367 C-789.44904297 297.36682617 -788.74134766 297.08838867 -788.01220703 296.80151367 C-785.96923828 296.14526367 -785.96923828 296.14526367 -782.96923828 296.14526367 C-782.96923828 295.48526367 -782.96923828 294.82526367 -782.96923828 294.14526367 C-781.02017578 293.83588867 -781.02017578 293.83588867 -779.03173828 293.52026367 C-774.21568754 292.48284394 -771.00651394 290.3264177 -767.05517578 287.47729492 C-764.42111019 285.7952418 -762.07261601 285.30441125 -758.96923828 285.14526367 C-758.96923828 284.48526367 -758.96923828 283.82526367 -758.96923828 283.14526367 C-757.59423828 281.52026367 -757.59423828 281.52026367 -755.96923828 280.14526367 C-755.30923828 280.14526367 -754.64923828 280.14526367 -753.96923828 280.14526367 C-753.96923828 279.48526367 -753.96923828 278.82526367 -753.96923828 278.14526367 C-751.06356694 276.12743635 -748.45254044 274.79031963 -744.96923828 274.14526367 C-744.96923828 273.48526367 -744.96923828 272.82526367 -744.96923828 272.14526367 C-743.31923828 271.81526367 -741.66923828 271.48526367 -739.96923828 271.14526367 C-739.96923828 270.48526367 -739.96923828 269.82526367 -739.96923828 269.14526367 C-738.97923828 269.14526367 -737.98923828 269.14526367 -736.96923828 269.14526367 C-736.96923828 268.48526367 -736.96923828 267.82526367 -736.96923828 267.14526367 C-735.31923828 266.81526367 -733.66923828 266.48526367 -731.96923828 266.14526367 C-731.96923828 265.48526367 -731.96923828 264.82526367 -731.96923828 264.14526367 C-729.98923828 263.81526367 -728.00923828 263.48526367 -725.96923828 263.14526367 C-725.96923828 262.48526367 -725.96923828 261.82526367 -725.96923828 261.14526367 C-725.30923828 261.14526367 -724.64923828 261.14526367 -723.96923828 261.14526367 C-723.96923828 260.48526367 -723.96923828 259.82526367 -723.96923828 259.14526367 C-722.31921 257.79139432 -720.65179958 256.45848225 -718.96923828 255.14526367 C-718.63923828 254.48526367 -718.30923828 253.82526367 -717.96923828 253.14526367 C-717.30923828 253.14526367 -716.64923828 253.14526367 -715.96923828 253.14526367 C-715.63923828 252.15526367 -715.30923828 251.16526367 -714.96923828 250.14526367 C-714.30923828 250.14526367 -713.64923828 250.14526367 -712.96923828 250.14526367 C-712.96923828 249.48526367 -712.96923828 248.82526367 -712.96923828 248.14526367 C-710.98923828 247.81526367 -709.00923828 247.48526367 -706.96923828 247.14526367 C-706.96923828 246.48526367 -706.96923828 245.82526367 -706.96923828 245.14526367 C-705.54345703 243.63745117 -705.54345703 243.63745117 -703.65673828 242.02026367 C-702.73441406 241.21202148 -702.73441406 241.21202148 -701.79345703 240.38745117 C-699.96923828 239.14526367 -699.96923828 239.14526367 -696.96923828 239.14526367 C-696.63923828 238.15526367 -696.30923828 237.16526367 -695.96923828 236.14526367 C-695.30923828 236.14526367 -694.64923828 236.14526367 -693.96923828 236.14526367 C-693.96923828 235.48526367 -693.96923828 234.82526367 -693.96923828 234.14526367 C-691.06374946 232.10356882 -689.56781782 231.14526367 -685.96923828 231.14526367 C-685.96923828 230.48526367 -685.96923828 229.82526367 -685.96923828 229.14526367 C-683.98923828 228.81526367 -682.00923828 228.48526367 -679.96923828 228.14526367 C-679.96923828 227.48526367 -679.96923828 226.82526367 -679.96923828 226.14526367 C-675.5846229 223.14526367 -675.5846229 223.14526367 -672.96923828 223.14526367 C-672.96923828 222.48526367 -672.96923828 221.82526367 -672.96923828 221.14526367 C-672.19837891 220.7353418 -671.42751953 220.32541992 -670.63330078 219.90307617 C-669.63041016 219.36424805 -668.62751953 218.82541992 -667.59423828 218.27026367 C-666.59650391 217.7365918 -665.59876953 217.20291992 -664.57080078 216.65307617 C-661.91575433 215.26324987 -661.91575433 215.26324987 -659.96923828 213.14526367 C-657.64648651 212.74478923 -655.31184471 212.40555328 -652.96923828 212.14526367 C-652.96923828 211.48526367 -652.96923828 210.82526367 -652.96923828 210.14526367 C-646.34423828 207.14526367 -646.34423828 207.14526367 -642.96923828 207.14526367 C-642.96923828 206.48526367 -642.96923828 205.82526367 -642.96923828 205.14526367 C-640.98923828 204.81526367 -639.00923828 204.48526367 -636.96923828 204.14526367 C-636.96923828 203.48526367 -636.96923828 202.82526367 -636.96923828 202.14526367 C-635.85548828 201.69151367 -634.74173828 201.23776367 -633.59423828 200.77026367 C-630.0072482 199.42060381 -630.0072482 199.42060381 -627.96923828 197.14526367 C-625.64648651 196.74478923 -623.31184471 196.40555328 -620.96923828 196.14526367 C-620.96923828 195.48526367 -620.96923828 194.82526367 -620.96923828 194.14526367 C-619.38956021 193.46998144 -617.80531925 192.80536673 -616.21923828 192.14526367 C-615.33751953 191.77401367 -614.45580078 191.40276367 -613.54736328 191.02026367 C-610.96923828 190.14526367 -610.96923828 190.14526367 -606.96923828 190.14526367 C-606.96923828 189.48526367 -606.96923828 188.82526367 -606.96923828 188.14526367 C-605.92123047 187.7353418 -604.87322266 187.32541992 -603.79345703 186.90307617 C-602.41447819 186.35898928 -601.03557592 185.81470829 -599.65673828 185.27026367 C-598.96644531 185.00084961 -598.27615234 184.73143555 -597.56494141 184.45385742 C-594.45910729 183.223527 -591.75941133 182.00537904 -588.96923828 180.14526367 C-587.33871004 179.67939846 -585.70679021 179.21762342 -584.06689453 178.78588867 C-580.73875098 177.76947239 -577.584109 176.34410485 -574.39892578 174.94995117 C-571.78270226 174.08348486 -569.70642434 173.99915054 -566.96923828 174.14526367 C-566.96923828 173.48526367 -566.96923828 172.82526367 -566.96923828 172.14526367 C-563.56572491 170.11306879 -560.64594558 169.77635328 -556.71923828 169.52026367 C-555.10275391 169.40811523 -555.10275391 169.40811523 -553.45361328 169.29370117 C-552.63376953 169.2447168 -551.81392578 169.19573242 -550.96923828 169.14526367 C-550.96923828 168.48526367 -550.96923828 167.82526367 -550.96923828 167.14526367 C-550.14939453 167.0240918 -549.32955078 166.90291992 -548.48486328 166.77807617 C-547.40720703 166.61049805 -546.32955078 166.44291992 -545.21923828 166.27026367 C-544.15189453 166.1078418 -543.08455078 165.94541992 -541.98486328 165.77807617 C-539.26735623 165.2078221 -537.40187531 164.40388892 -534.96923828 163.14526367 C-533.97923828 163.14526367 -532.98923828 163.14526367 -531.96923828 163.14526367 C-531.96923828 162.48526367 -531.96923828 161.82526367 -531.96923828 161.14526367 C-529.92964351 160.63687803 -527.8874469 160.13892481 -525.84423828 159.64526367 C-524.13880859 159.22760742 -524.13880859 159.22760742 -522.39892578 158.80151367 C-519.1545713 158.18072603 -516.26109371 158.025196 -512.96923828 158.14526367 C-512.96923828 157.48526367 -512.96923828 156.82526367 -512.96923828 156.14526367 C-512.11458984 156.01249023 -511.25994141 155.8797168 -510.37939453 155.74291992 C-508.72230469 155.47801758 -508.72230469 155.47801758 -507.03173828 155.20776367 C-505.92958984 155.03374023 -504.82744141 154.8597168 -503.69189453 154.68041992 C-501.06496899 154.42681231 -501.06496899 154.42681231 -499.96923828 153.14526367 C-497.29864977 153.00411206 -494.6449159 153.1027926 -491.96923828 153.14526367 C-491.96923828 152.48526367 -491.96923828 151.82526367 -491.96923828 151.14526367 C-487.61591093 150.3050318 -483.52481309 150.03755372 -479.09423828 150.08276367 C-477.94181641 150.09178711 -476.78939453 150.10081055 -475.60205078 150.11010742 C-474.29880859 150.12750977 -474.29880859 150.12750977 -472.96923828 150.14526367 C-472.96923828 149.48526367 -472.96923828 148.82526367 -472.96923828 148.14526367 C-471.94451416 148.08991455 -470.91979004 148.03456543 -469.86401367 147.97753906 C-466.07500689 147.77164631 -462.28636431 147.5596195 -458.49780273 147.34570312 C-456.85564351 147.25384886 -455.21338939 147.16367562 -453.57104492 147.07519531 C-451.21522689 146.94798825 -448.85981234 146.81480963 -446.50439453 146.68041992 C-445.76584732 146.64183365 -445.02730011 146.60324738 -444.26637268 146.56349182 C-440.82399122 146.64858963 -440.82399122 146.64858963 -437.96923828 145.14526367 C-436.09779237 144.9592998 -434.22143524 144.82188607 -432.34423828 144.70776367 C-428.78898072 144.44659546 -425.49435242 144.17018756 -422.09423828 143.08276367 C-418.88711075 142.12062541 -416.29633546 141.98296625 -412.96923828 142.14526367 C-412.96923828 141.48526367 -412.96923828 140.82526367 -412.96923828 140.14526367 C-412.40003662 140.09515137 -411.83083496 140.04503906 -411.24438477 139.9934082 C-408.63115721 139.75934029 -406.0189989 139.51487787 -403.40673828 139.27026367 C-402.51148438 139.19163086 -401.61623047 139.11299805 -400.69384766 139.03198242 C-391.84149831 138.18890153 -384.33941483 135.56913052 -376.15283203 132.16870117 C-372.89241379 131.12056672 -370.36870027 130.9510087 -366.96923828 131.14526367 C-366.96923828 130.48526367 -366.96923828 129.82526367 -366.96923828 129.14526367 C-362.20616391 128.1926488 -357.80258548 128.0619301 -352.96923828 128.14526367 C-352.96923828 127.48526367 -352.96923828 126.82526367 -352.96923828 126.14526367 C-350.65923828 126.14526367 -348.34923828 126.14526367 -345.96923828 126.14526367 C-345.96923828 125.48526367 -345.96923828 124.82526367 -345.96923828 124.14526367 C-342.33923828 123.81526367 -338.70923828 123.48526367 -334.96923828 123.14526367 C-334.96923828 122.48526367 -334.96923828 121.82526367 -334.96923828 121.14526367 C-330.34923828 120.81526367 -325.72923828 120.48526367 -320.96923828 120.14526367 C-320.96923828 119.48526367 -320.96923828 118.82526367 -320.96923828 118.14526367 C-319.48423828 117.74307617 -319.48423828 117.74307617 -317.96923828 117.33276367 C-315.2921602 116.57631476 -312.73767496 115.68079224 -310.15673828 114.64526367 C-306.28817738 113.15331867 -302.42727453 112.35985986 -298.35595703 111.61791992 C-295.71755975 111.13502607 -295.71755975 111.13502607 -292.21923828 110.02026367 C-288.97988695 109.14813062 -286.30530133 108.98252889 -282.96923828 109.14526367 C-282.96923828 108.48526367 -282.96923828 107.82526367 -282.96923828 107.14526367 C-275.87138915 105.32752182 -269.3184217 103.71295876 -261.96923828 104.14526367 C-261.96923828 103.48526367 -261.96923828 102.82526367 -261.96923828 102.14526367 C-257.51423828 101.65026367 -257.51423828 101.65026367 -252.96923828 101.14526367 C-252.96923828 100.48526367 -252.96923828 99.82526367 -252.96923828 99.14526367 C-252.30923828 99.14526367 -251.64923828 99.14526367 -250.96923828 99.14526367 C-250.96923828 98.48526367 -250.96923828 97.82526367 -250.96923828 97.14526367 C-248.32923828 96.81526367 -245.68923828 96.48526367 -242.96923828 96.14526367 C-242.96923828 95.48526367 -242.96923828 94.82526367 -242.96923828 94.14526367 C-241.89673828 93.85651367 -240.82423828 93.56776367 -239.71923828 93.27026367 C-236.16703418 92.34520953 -236.16703418 92.34520953 -233.90673828 91.02026367 C-231.22638033 89.80977944 -228.87031332 90.01339662 -225.96923828 90.14526367 C-225.96923828 89.48526367 -225.96923828 88.82526367 -225.96923828 88.14526367 C-219.34423828 85.14526367 -219.34423828 85.14526367 -215.96923828 85.14526367 C-215.96923828 84.48526367 -215.96923828 83.82526367 -215.96923828 83.14526367 C-212.99923828 82.65026367 -212.99923828 82.65026367 -209.96923828 82.14526367 C-209.96923828 81.48526367 -209.96923828 80.82526367 -209.96923828 80.14526367 C-207.06374946 78.10356882 -205.56781782 77.14526367 -201.96923828 77.14526367 C-201.96923828 76.48526367 -201.96923828 75.82526367 -201.96923828 75.14526367 C-195.34423828 72.14526367 -195.34423828 72.14526367 -191.96923828 72.14526367 C-191.96923828 71.48526367 -191.96923828 70.82526367 -191.96923828 70.14526367 C-188.99923828 69.65026367 -188.99923828 69.65026367 -185.96923828 69.14526367 C-185.96923828 68.48526367 -185.96923828 67.82526367 -185.96923828 67.14526367 C-184.70232321 66.47118059 -183.4305308 65.80625871 -182.15673828 65.14526367 C-181.44904297 64.77401367 -180.74134766 64.40276367 -180.01220703 64.02026367 C-177.96923828 63.14526367 -177.96923828 63.14526367 -174.96923828 63.14526367 C-174.96923828 62.48526367 -174.96923828 61.82526367 -174.96923828 61.14526367 C-174.04240234 60.7353418 -173.11556641 60.32541992 -172.16064453 59.90307617 C-170.36433594 59.09483398 -170.36433594 59.09483398 -168.53173828 58.27026367 C-167.33677734 57.7365918 -166.14181641 57.20291992 -164.91064453 56.65307617 C-161.88396197 55.46799133 -161.88396197 55.46799133 -160.96923828 53.14526367 C-154.73846905 50.14526367 -154.73846905 50.14526367 -150.96923828 50.14526367 C-150.96923828 49.48526367 -150.96923828 48.82526367 -150.96923828 48.14526367 C-147.99923828 47.65026367 -147.99923828 47.65026367 -144.96923828 47.14526367 C-144.96923828 46.48526367 -144.96923828 45.82526367 -144.96923828 45.14526367 C-144.20740234 44.83073242 -143.44556641 44.51620117 -142.66064453 44.19213867 C-136.9924156 41.84276039 -131.36030942 39.45986516 -125.80908203 36.84448242 C-123.96923828 36.14526367 -123.96923828 36.14526367 -120.96923828 36.14526367 C-120.96923828 35.48526367 -120.96923828 34.82526367 -120.96923828 34.14526367 C-119.70084303 33.6391107 -118.42940727 33.14057268 -117.15673828 32.64526367 C-116.44904297 32.36682617 -115.74134766 32.08838867 -115.01220703 31.80151367 C-112.96923828 31.14526367 -112.96923828 31.14526367 -109.96923828 31.14526367 C-109.96923828 30.48526367 -109.96923828 29.82526367 -109.96923828 29.14526367 C-107.32923828 28.81526367 -104.68923828 28.48526367 -101.96923828 28.14526367 C-101.96923828 27.48526367 -101.96923828 26.82526367 -101.96923828 26.14526367 C-100.70084303 25.6391107 -99.42940727 25.14057268 -98.15673828 24.64526367 C-97.44904297 24.36682617 -96.74134766 24.08838867 -96.01220703 23.80151367 C-93.96923828 23.14526367 -93.96923828 23.14526367 -90.96923828 23.14526367 C-90.96923828 22.48526367 -90.96923828 21.82526367 -90.96923828 21.14526367 C-87.33923828 20.81526367 -83.70923828 20.48526367 -79.96923828 20.14526367 C-79.96923828 19.48526367 -79.96923828 18.82526367 -79.96923828 18.14526367 C-78.79361328 18.02151367 -77.61798828 17.89776367 -76.40673828 17.77026367 C-73.59106066 17.42941849 -71.27207872 16.92977799 -68.53173828 16.08276367 C-64.24401515 14.95441548 -60.37075292 14.96561001 -55.96923828 15.14526367 C-55.96923828 14.48526367 -55.96923828 13.82526367 -55.96923828 13.14526367 C-52.33923828 12.81526367 -48.70923828 12.48526367 -44.96923828 12.14526367 C-44.96923828 11.48526367 -44.96923828 10.82526367 -44.96923828 10.14526367 C-41.33923828 9.81526367 -37.70923828 9.48526367 -33.96923828 9.14526367 C-33.96923828 8.48526367 -33.96923828 7.82526367 -33.96923828 7.14526367 C-31.65923828 7.14526367 -29.34923828 7.14526367 -26.96923828 7.14526367 C-26.96923828 6.48526367 -26.96923828 5.82526367 -26.96923828 5.14526367 C-26.11458984 5.01249023 -25.25994141 4.8797168 -24.37939453 4.74291992 C-23.27466797 4.56631836 -22.16994141 4.3897168 -21.03173828 4.20776367 C-19.92958984 4.03374023 -18.82744141 3.8597168 -17.69189453 3.68041992 C-15.06496899 3.42681231 -15.06496899 3.42681231 -13.96923828 2.14526367 C-11.63590495 1.81193034 -9.30257161 1.47859701 -6.96923828 1.14526367 C-5.16720818 -0.65676643 -2.42911278 0.00818404 0 0 Z " fill="#252525" transform="translate(1367.96923828125,-0.145263671875)"/>
</svg>
