<?xml version="1.0" encoding="UTF-8"?>
<svg version="1.1" xmlns="http://www.w3.org/2000/svg" width="3000" height="1317">
<path d="M0 0 C32.67 0 65.34 0 99 0 C99 0.66 99 1.32 99 2 C99.99 2 100.98 2 102 2 C102 2.66 102 3.32 102 4 C103.98 4.33 105.96 4.66 108 5 C108 5.66 108 6.32 108 7 C109.32 7 110.64 7 112 7 C112.45375 7.61875 112.9075 8.2375 113.375 8.875 C114.87771617 11.26805264 114.87771617 11.26805264 117.875 11.875 C121.99773646 13.35918512 123.49922287 15.4572324 126 19 C126.28101562 19.79535156 126.56203125 20.59070313 126.8515625 21.41015625 C128.25819139 24.58224792 130.08534215 26.27883989 132.625 28.625 C135.1015625 30.9140625 135.1015625 30.9140625 137 33 C137 33.99 137 34.98 137 36 C137.66 36 138.32 36 139 36 C140.35386936 37.65002828 141.68678142 39.3174387 143 41 C143.66 41.33 144.32 41.66 145 42 C145 42.66 145 43.32 145 44 C145.66 44 146.32 44 147 44 C151 49.41176471 151 49.41176471 151 52 C152.65 52.33 154.3 52.66 156 53 C156 53.66 156 54.32 156 55 C156.66 55 157.32 55 158 55 C158.495 55.99 158.495 55.99 159 57 C161.3140622 57.73075648 163.64828869 58.40138258 166 59 C166 59.66 166 60.32 166 61 C167.32 61 168.64 61 170 61 C170 61.66 170 62.32 170 63 C170.99 62.67 171.98 62.34 173 62 C175.1875 62.9375 175.1875 62.9375 177 64 C177 64.66 177 65.32 177 66 C178.98 66.33 180.96 66.66 183 67 C183 67.66 183 68.32 183 69 C185.31 69 187.62 69 190 69 C190 480.84 190 892.68 190 1317 C-800 1317 -1790 1317 -2810 1317 C-2810 913.08 -2810 509.16 -2810 93 C-2761.49 93 -2712.98 93 -2663 93 C-2662.67 92.01 -2662.34 91.02 -2662 90 C-2661.34 90 -2660.68 90 -2660 90 C-2660 89.34 -2660 88.68 -2660 88 C-2659.01 88 -2658.02 88 -2657 88 C-2657 87.34 -2657 86.68 -2657 86 C-2653.7 85.67 -2650.4 85.34 -2647 85 C-2647 84.34 -2647 83.68 -2647 83 C-2643.535 82.505 -2643.535 82.505 -2640 82 C-2640 81.34 -2640 80.68 -2640 80 C-2638.68 80 -2637.36 80 -2636 80 C-2636 79.34 -2636 78.68 -2636 78 C-2633.36 77.67 -2630.72 77.34 -2628 77 C-2628 76.34 -2628 75.68 -2628 75 C-2627.01 74.67 -2626.02 74.34 -2625 74 C-2624.67 73.34 -2624.34 72.68 -2624 72 C-2621.5625 70.8125 -2621.5625 70.8125 -2619 70 C-2618.34 70.33 -2617.68 70.66 -2617 71 C-2617 70.34 -2617 69.68 -2617 69 C-2616.01 69 -2615.02 69 -2614 69 C-2614 68.34 -2614 67.68 -2614 67 C-2609.71 66.67 -2605.42 66.34 -2601 66 C-2601 65.34 -2601 64.68 -2601 64 C-2599.948125 63.855625 -2598.89625 63.71125 -2597.8125 63.5625 C-2595.59299887 63.23503262 -2593.37760349 62.86168967 -2591.1875 62.375 C-2589 62 -2589 62 -2587 63 C-2587 62.34 -2587 61.68 -2587 61 C-2577.76 61 -2568.52 61 -2559 61 C-2559 60.34 -2559 59.68 -2559 59 C-2492.67 59 -2426.34 59 -2358 59 C-2358 59.66 -2358 60.32 -2358 61 C-2356.02 61 -2354.04 61 -2352 61 C-2352 61.66 -2352 62.32 -2352 63 C-2351.34 62.67 -2350.68 62.34 -2350 62 C-2348.45976004 61.93049459 -2346.91665012 61.91547643 -2345.375 61.9375 C-2344.14910156 61.95103516 -2344.14910156 61.95103516 -2342.8984375 61.96484375 C-2342.27195312 61.97644531 -2341.64546875 61.98804688 -2341 62 C-2341 62.66 -2341 63.32 -2341 64 C-2338.18711295 63.85980308 -2335.37483115 63.71312045 -2332.5625 63.5625 C-2331.76005859 63.52318359 -2330.95761719 63.48386719 -2330.13085938 63.44335938 C-2326.24760439 63.5945704 -2326.24760439 63.5945704 -2323 62 C-2316.47457627 61.76271186 -2316.47457627 61.76271186 -2314 63 C-2314 62.34 -2314 61.68 -2314 61 C-2313.01 61 -2312.02 61 -2311 61 C-2311 60.34 -2311 59.68 -2311 59 C-2310.13375 58.7525 -2309.2675 58.505 -2308.375 58.25 C-2304.32030457 56.74826095 -2300.0107669 55.0215338 -2298 51 C-2294.9375 50.375 -2294.9375 50.375 -2292 50 C-2292 49.34 -2292 48.68 -2292 48 C-2288.52674819 46.8422494 -2285.63932552 46.93133348 -2282 47 C-2282 46.34 -2282 45.68 -2282 45 C-2281.01 45 -2280.02 45 -2279 45 C-2278.67 44.34 -2278.34 43.68 -2278 43 C-2277.34 43.33 -2276.68 43.66 -2276 44 C-2276 43.34 -2276 42.68 -2276 42 C-2275.01 42 -2274.02 42 -2273 42 C-2273 41.34 -2273 40.68 -2273 40 C-2269.52674819 38.8422494 -2266.63932552 38.93133348 -2263 39 C-2263 38.34 -2263 37.68 -2263 37 C-2253.62087413 36.20177652 -2244.41213252 35.87126263 -2235 36 C-2235 35.34 -2235 34.68 -2235 34 C-2223.78 34 -2212.56 34 -2201 34 C-2201 33.34 -2201 32.68 -2201 32 C-2200.09644775 32.00523682 -2199.19289551 32.01047363 -2198.26196289 32.01586914 C-2194.92048511 32.03287686 -2191.57905308 32.04543333 -2188.23754883 32.05493164 C-2186.78929927 32.05997101 -2185.34105483 32.06680253 -2183.89282227 32.07543945 C-2181.81525412 32.08752247 -2179.73775303 32.09323211 -2177.66015625 32.09765625 C-2176.40855713 32.10289307 -2175.15695801 32.10812988 -2173.86743164 32.11352539 C-2171.10267706 32.32887035 -2171.10267706 32.32887035 -2170 31 C-2168.33382885 30.95936168 -2166.66611905 30.957279 -2165 31 C-2165 30.34 -2165 29.68 -2165 29 C-2161.04 28.505 -2161.04 28.505 -2157 28 C-2157 27.34 -2157 26.68 -2157 26 C-2152.20862412 24.3709322 -2148.94367454 23.79422572 -2144 25 C-2144 24.34 -2144 23.68 -2144 23 C-2141.36 23 -2138.72 23 -2136 23 C-2136 22.34 -2136 21.68 -2136 21 C-2121.38443396 19.60196192 -2106.72814579 19.88859298 -2092.0625 19.9375 C-2089.43294356 19.94252473 -2086.80338619 19.94708592 -2084.17382812 19.95117188 C-2077.78253155 19.96210104 -2071.3912702 19.97876206 -2065 20 C-2065 19.34 -2065 18.68 -2065 18 C-2049.16 18 -2033.32 18 -2017 18 C-2017 18.66 -2017 19.32 -2017 20 C-2015.80375 19.979375 -2014.6075 19.95875 -2013.375 19.9375 C-2009.81995131 19.93117429 -2006.49444376 20.30111125 -2003 21 C-2003 21.66 -2003 22.32 -2003 23 C-2002.236875 22.979375 -2001.47375 22.95875 -2000.6875 22.9375 C-1998 23 -1998 23 -1995 24 C-1995 24.66 -1995 25.32 -1995 26 C-1993.35 26 -1991.7 26 -1990 26 C-1990 26.66 -1990 27.32 -1990 28 C-1986.7 28.33 -1983.4 28.66 -1980 29 C-1980 29.66 -1980 30.32 -1980 31 C-1977.03 31.33 -1974.06 31.66 -1971 32 C-1971 32.66 -1971 33.32 -1971 34 C-1969.02 34 -1967.04 34 -1965 34 C-1965 34.66 -1965 35.32 -1965 36 C-1962.69 36.33 -1960.38 36.66 -1958 37 C-1958 37.66 -1958 38.32 -1958 39 C-1954.04 39.33 -1950.08 39.66 -1946 40 C-1946 40.66 -1946 41.32 -1946 42 C-1944.35 42 -1942.7 42 -1941 42 C-1941 42.66 -1941 43.32 -1941 44 C-1939.515 43.505 -1939.515 43.505 -1938 43 C-1938 43.66 -1938 44.32 -1938 45 C-1935.69 45 -1933.38 45 -1931 45 C-1930.67 45.66 -1930.34 46.32 -1930 47 C-1927.47266765 47.65555119 -1927.47266765 47.65555119 -1925 48 C-1925 48.66 -1925 49.32 -1925 50 C-1924.236875 49.979375 -1923.47375 49.95875 -1922.6875 49.9375 C-1920 50 -1920 50 -1917 51 C-1917 51.66 -1917 52.32 -1917 53 C-1915.35 53 -1913.7 53 -1912 53 C-1912 53.66 -1912 54.32 -1912 55 C-1908.04 55.495 -1908.04 55.495 -1904 56 C-1904 56.66 -1904 57.32 -1904 58 C-1901.03 58.33 -1898.06 58.66 -1895 59 C-1895 59.66 -1895 60.32 -1895 61 C-1894.01 61 -1893.02 61 -1892 61 C-1892 61.66 -1892 62.32 -1892 63 C-1890.515 62.505 -1890.515 62.505 -1889 62 C-1886.3125 62.9375 -1886.3125 62.9375 -1884 64 C-1884 64.66 -1884 65.32 -1884 66 C-1880.04 66.495 -1880.04 66.495 -1876 67 C-1876 67.66 -1876 68.32 -1876 69 C-1875.154375 69.12375 -1874.30875 69.2475 -1873.4375 69.375 C-1869.84763202 70.02770327 -1866.49175125 70.95247463 -1863 72 C-1863 72.66 -1863 73.32 -1863 74 C-1856.73 74.33 -1850.46 74.66 -1844 75 C-1844 75.66 -1844 76.32 -1844 77 C-1843.21753906 76.98839844 -1842.43507813 76.97679688 -1841.62890625 76.96484375 C-1840.61699219 76.95582031 -1839.60507813 76.94679688 -1838.5625 76.9375 C-1837.04849609 76.92009766 -1837.04849609 76.92009766 -1835.50390625 76.90234375 C-1833 77 -1833 77 -1832 78 C-1829.1156618 78.08865208 -1826.25537842 78.11521296 -1823.37109375 78.09765625 C-1822.50686295 78.0962413 -1821.64263214 78.09482635 -1820.75221252 78.09336853 C-1817.98060708 78.08775239 -1815.2090812 78.07519719 -1812.4375 78.0625 C-1810.5631522 78.05748708 -1808.68880315 78.05292381 -1806.81445312 78.04882812 C-1802.20960456 78.03777772 -1797.60481579 78.0205023 -1793 78 C-1793 78.66 -1793 79.32 -1793 80 C-1767.92 80 -1742.84 80 -1717 80 C-1717 80.66 -1717 81.32 -1717 82 C-1714.36 82.33 -1711.72 82.66 -1709 83 C-1709 83.66 -1709 84.32 -1709 85 C-1706.36 85.33 -1703.72 85.66 -1701 86 C-1701 86.66 -1701 87.32 -1701 88 C-1700.01 88 -1699.02 88 -1698 88 C-1698 88.66 -1698 89.32 -1698 90 C-1696.515 89.505 -1696.515 89.505 -1695 89 C-1695 89.66 -1695 90.32 -1695 91 C-1694.01 91 -1693.02 91 -1692 91 C-1692 91.66 -1692 92.32 -1692 93 C-1690.74340576 92.99476318 -1689.48681152 92.98952637 -1688.19213867 92.98413086 C-1683.53491934 92.96604583 -1678.87770312 92.95455513 -1674.22045898 92.94506836 C-1672.20385211 92.94003618 -1670.1872489 92.93320986 -1668.1706543 92.92456055 C-1665.27391661 92.91244627 -1662.37722712 92.90676057 -1659.48046875 92.90234375 C-1658.57725388 92.89718246 -1657.674039 92.89202118 -1656.74345398 92.88670349 C-1655.90280899 92.88662796 -1655.062164 92.88655243 -1654.19604492 92.88647461 C-1653.45658127 92.884254 -1652.71711761 92.88203339 -1651.95524597 92.87974548 C-1650 93 -1650 93 -1647 94 C-1647 94.66 -1647 95.32 -1647 96 C-1646.01 96 -1645.02 96 -1644 96 C-1644 96.66 -1644 97.32 -1644 98 C-1638.39 98.33 -1632.78 98.66 -1627 99 C-1627 98.34 -1627 97.68 -1627 97 C-1626.113125 97.020625 -1625.22625 97.04125 -1624.3125 97.0625 C-1621.37830369 97.00713781 -1618.84506304 96.6694266 -1616 96 C-1616 95.34 -1616 94.68 -1616 94 C-1611.03926578 92.67713754 -1606.08888488 92.91106803 -1601 93 C-1601 92.34 -1601 91.68 -1601 91 C-1599.948125 90.855625 -1598.89625 90.71125 -1597.8125 90.5625 C-1595.59299887 90.23503262 -1593.37760349 89.86168967 -1591.1875 89.375 C-1589 89 -1589 89 -1587 90 C-1587 89.34 -1587 88.68 -1587 88 C-1585.02 88 -1583.04 88 -1581 88 C-1581 87.34 -1581 86.68 -1581 86 C-1576.71 85.67 -1572.42 85.34 -1568 85 C-1568 84.34 -1568 83.68 -1568 83 C-1557.96557967 82.12198822 -1548.06394247 81.8823695 -1538 82 C-1538 81.34 -1538 80.68 -1538 80 C-1524.47 80 -1510.94 80 -1497 80 C-1497 79.34 -1497 78.68 -1497 78 C-1496.28972656 78.01160156 -1495.57945313 78.02320312 -1494.84765625 78.03515625 C-1493.46900391 78.04869141 -1493.46900391 78.04869141 -1492.0625 78.0625 C-1491.14597656 78.07410156 -1490.22945312 78.08570312 -1489.28515625 78.09765625 C-1487.03406673 78.25949049 -1487.03406673 78.25949049 -1486 77 C-1484.59802598 76.85578846 -1483.18957169 76.77313876 -1481.78125 76.71875 C-1480.93175781 76.68136719 -1480.08226562 76.64398438 -1479.20703125 76.60546875 C-1476.5 76.5 -1476.5 76.5 -1473.79296875 76.39453125 C-1472.94347656 76.35714844 -1472.09398437 76.31976563 -1471.21875 76.28125 C-1470.43435547 76.25095703 -1469.64996094 76.22066406 -1468.84179688 76.18945312 C-1466.98373804 76.19408532 -1466.98373804 76.19408532 -1466 75 C-1464.4630003 74.84033884 -1462.91891267 74.74835041 -1461.375 74.68359375 C-1460.37412354 74.64153809 -1459.37324707 74.59948242 -1458.34204102 74.55615234 C-1456.68773071 74.49741943 -1456.68773071 74.49741943 -1455 74.4375 C-1453.86038818 74.3957666 -1452.72077637 74.3540332 -1451.54663086 74.31103516 C-1441.88525091 73.99388662 -1432.2284732 73.89153635 -1422.5625 73.875 C-1421.86616455 73.8724118 -1421.1698291 73.86982361 -1420.45239258 73.86715698 C-1412.25278971 73.84307325 -1404.15346786 74.05991533 -1396 75 C-1396 75.66 -1396 76.32 -1396 77 C-1394.700625 76.979375 -1393.40125 76.95875 -1392.0625 76.9375 C-1390.70834367 76.91600546 -1389.35243917 76.92851801 -1388 77 C-1387.67 77.33 -1387.34 77.66 -1387 78 C-1386.01 78 -1385.02 78 -1384 78 C-1383.01 78 -1382.02 78 -1381 78 C-1380.67 78.33 -1380.34 78.66 -1380 79 C-1377.67182036 79.36760731 -1375.3381615 79.70241581 -1373 80 C-1373 80.66 -1373 81.32 -1373 82 C-1366.565 82.495 -1366.565 82.495 -1360 83 C-1360 83.66 -1360 84.32 -1360 85 C-1353.565 85.495 -1353.565 85.495 -1347 86 C-1347 86.66 -1347 87.32 -1347 88 C-1343.37 88 -1339.74 88 -1336 88 C-1336 88.66 -1336 89.32 -1336 90 C-1335.34 89.67 -1334.68 89.34 -1334 89 C-1332.63667984 88.90533739 -1331.26894483 88.86927825 -1329.90234375 88.8671875 C-1329.10119141 88.86589844 -1328.30003906 88.86460938 -1327.47460938 88.86328125 C-1326.63736328 88.86714844 -1325.80011719 88.87101562 -1324.9375 88.875 C-1324.09638672 88.87113281 -1323.25527344 88.86726563 -1322.38867188 88.86328125 C-1316.12662682 88.87337318 -1316.12662682 88.87337318 -1315 90 C-1313.55815707 90.12221525 -1312.11056856 90.17772758 -1310.66381836 90.20532227 C-1309.7429393 90.22526749 -1308.82206024 90.24521271 -1307.87327576 90.26576233 C-1306.37172691 90.29083107 -1306.37172691 90.29083107 -1304.83984375 90.31640625 C-1303.82024063 90.33718735 -1302.80063751 90.35796844 -1301.75013733 90.37937927 C-1298.47932952 90.44498852 -1295.20843863 90.50381234 -1291.9375 90.5625 C-1289.72590272 90.60567442 -1287.51431397 90.64928834 -1285.30273438 90.69335938 C-1279.86857849 90.8006814 -1274.43433918 90.90242623 -1269 91 C-1269 91.66 -1269 92.32 -1269 93 C-1161.42 93 -1053.84 93 -943 93 C-943 92.34 -943 91.68 -943 91 C-940.625 89.9375 -940.625 89.9375 -938 89 C-937.34 89.33 -936.68 89.66 -936 90 C-936 89.34 -936 88.68 -936 88 C-935.01 88 -934.02 88 -933 88 C-933 87.34 -933 86.68 -933 86 C-931.35 85.67 -929.7 85.34 -928 85 C-927.67 84.01 -927.34 83.02 -927 82 C-926.34 82 -925.68 82 -925 82 C-924.67 81.01 -924.34 80.02 -924 79 C-923.34 79 -922.68 79 -922 79 C-922 78.34 -922 77.68 -922 77 C-921.34 76.67 -920.68 76.34 -920 76 C-919.02214344 74.23985819 -918.0454558 72.47902001 -917.08203125 70.7109375 C-915.73151463 68.57546357 -914.0625547 67.42245152 -912 66 C-911.67 65.01 -911.34 64.02 -911 63 C-910.34 63 -909.68 63 -909 63 C-908.67 61.35 -908.34 59.7 -908 58 C-907.34 58 -906.68 58 -906 58 C-905.67 56.02 -905.34 54.04 -905 52 C-904.34 52 -903.68 52 -903 52 C-903 51.34 -903 50.68 -903 50 C-901.625 48.375 -901.625 48.375 -900 47 C-899.34 47 -898.68 47 -898 47 C-897.79375 46.38125 -897.5875 45.7625 -897.375 45.125 C-895.45750757 42.16160261 -893.29882268 41.98262803 -890 41 C-889.67 40.34 -889.34 39.68 -889 39 C-888.01 39 -887.02 39 -886 39 C-886 38.34 -886 37.68 -886 37 C-883.69 36.67 -881.38 36.34 -879 36 C-879 35.34 -879 34.68 -879 34 C-877.02 34 -875.04 34 -873 34 C-873 33.34 -873 32.68 -873 32 C-872.195625 32.020625 -871.39125 32.04125 -870.5625 32.0625 C-868.06645115 32.29633621 -868.06645115 32.29633621 -867 31 C-864.32941149 30.85884839 -861.67567762 30.95752893 -859 31 C-859 30.34 -859 29.68 -859 29 C-845.66119695 27.90151034 -832.37670177 27.89109649 -819 28 C-819 27.34 -819 26.68 -819 26 C-799.86 26 -780.72 26 -761 26 C-761 26.66 -761 27.32 -761 28 C-760.41992188 27.98839844 -759.83984375 27.97679688 -759.2421875 27.96484375 C-754.7001754 27.91237826 -750.47286431 28.08248937 -746 29 C-746 29.66 -746 30.32 -746 31 C-745.14535156 30.98839844 -744.29070313 30.97679688 -743.41015625 30.96484375 C-742.30542969 30.95582031 -741.20070313 30.94679688 -740.0625 30.9375 C-738.96035156 30.92589844 -737.85820312 30.91429688 -736.72265625 30.90234375 C-734 31 -734 31 -733 32 C-730.32941149 32.14115161 -727.67567762 32.04247107 -725 32 C-725 32.66 -725 33.32 -725 34 C-723.02 34 -721.04 34 -719 34 C-719 34.66 -719 35.32 -719 36 C-712.565 36.495 -712.565 36.495 -706 37 C-706 37.66 -706 38.32 -706 39 C-699.07 39.495 -699.07 39.495 -692 40 C-692 40.66 -692 41.32 -692 42 C-690.2984375 41.9690625 -690.2984375 41.9690625 -688.5625 41.9375 C-685 42 -685 42 -684 43 C-682.33382885 43.04063832 -680.66611905 43.042721 -679 43 C-679 43.66 -679 44.32 -679 45 C-677.02 45 -675.04 45 -673 45 C-673 45.66 -673 46.32 -673 47 C-671.68 47 -670.36 47 -669 47 C-668.505 47.99 -668.505 47.99 -668 49 C-665.42294064 50.78962455 -663.48738949 51.91876842 -660.375 52.4375 C-657.30371602 53.16490936 -656.74353232 54.46395298 -655 57 C-654.01 57.33 -653.02 57.66 -652 58 C-652 58.66 -652 59.32 -652 60 C-650.35 60.33 -648.7 60.66 -647 61 C-647 61.66 -647 62.32 -647 63 C-645.02 63.33 -643.04 63.66 -641 64 C-641 64.66 -641 65.32 -641 66 C-639.35 66.33 -637.7 66.66 -636 67 C-636 67.66 -636 68.32 -636 69 C-635.01 69 -634.02 69 -633 69 C-633 69.66 -633 70.32 -633 71 C-632.01 70.67 -631.02 70.34 -630 70 C-630 70.66 -630 71.32 -630 72 C-628.68 72 -627.36 72 -626 72 C-626 72.66 -626 73.32 -626 74 C-624.02 74.33 -622.04 74.66 -620 75 C-620 75.66 -620 76.32 -620 77 C-618.8553125 76.9690625 -618.8553125 76.9690625 -617.6875 76.9375 C-615 77 -615 77 -612 78 C-612 78.66 -612 79.32 -612 80 C-610.35 80 -608.7 80 -607 80 C-607 80.66 -607 81.32 -607 82 C-606.01 82 -605.02 82 -604 82 C-603.505 82.99 -603.505 82.99 -603 84 C-600.6859378 84.73075648 -598.35171131 85.40138258 -596 86 C-596 86.66 -596 87.32 -596 88 C-594.02 88 -592.04 88 -590 88 C-590 88.66 -590 89.32 -590 90 C-589.34 89.67 -588.68 89.34 -588 89 C-586.3146804 88.90465746 -584.62550734 88.87014242 -582.9375 88.875 C-581.58978516 88.87113281 -581.58978516 88.87113281 -580.21484375 88.8671875 C-578 89 -578 89 -577 90 C-575.00217874 90.15825258 -572.99911166 90.25119171 -570.99609375 90.31640625 C-569.78115234 90.35830078 -568.56621094 90.40019531 -567.31445312 90.44335938 C-566.03505859 90.48267578 -564.75566406 90.52199219 -563.4375 90.5625 C-562.15423828 90.60568359 -560.87097656 90.64886719 -559.54882812 90.69335938 C-556.36600147 90.799848 -553.18309326 90.90185962 -550 91 C-550 91.66 -550 92.32 -550 93 C-535.15 93 -520.3 93 -505 93 C-505 92.01 -505 91.02 -505 90 C-504.34 90 -503.68 90 -503 90 C-503 89.34 -503 88.68 -503 88 C-502.01 88 -501.02 88 -500 88 C-500 87.01 -500 86.02 -500 85 C-499.34 85 -498.68 85 -498 85 C-498 84.34 -498 83.68 -498 83 C-496.34467377 81.98133771 -494.67739862 80.98189187 -493 80 C-492.67 79.34 -492.34 78.68 -492 78 C-488.9375 77.375 -488.9375 77.375 -486 77 C-486 76.34 -486 75.68 -486 75 C-483.69 74.67 -481.38 74.34 -479 74 C-479 73.34 -479 72.68 -479 72 C-478.01 72 -477.02 72 -476 72 C-476 71.34 -476 70.68 -476 70 C-473.03 69.505 -473.03 69.505 -470 69 C-470 68.34 -470 67.68 -470 67 C-467.36 66.67 -464.72 66.34 -462 66 C-462 65.34 -462 64.68 -462 64 C-459.36 63.67 -456.72 63.34 -454 63 C-454 62.34 -454 61.68 -454 61 C-453.01 61 -452.02 61 -451 61 C-451 60.34 -451 59.68 -451 59 C-445.555 58.505 -445.555 58.505 -440 58 C-440 57.34 -440 56.68 -440 56 C-437.36 55.67 -434.72 55.34 -432 55 C-432 54.34 -432 53.68 -432 53 C-429.69 53 -427.38 53 -425 53 C-425 52.34 -425 51.68 -425 51 C-423.7934375 51.0309375 -423.7934375 51.0309375 -422.5625 51.0625 C-420.06645115 51.29633621 -420.06645115 51.29633621 -419 50 C-416.32941149 49.85884839 -413.67567762 49.95752893 -411 50 C-411 49.34 -411 48.68 -411 48 C-403.1573812 47.29391213 -395.37176656 46.89445648 -387.5 46.875 C-386.74734863 46.87048828 -385.99469727 46.86597656 -385.21923828 46.86132812 C-381.03734098 46.87252714 -377.11949161 47.17870895 -373 48 C-373 48.66 -373 49.32 -373 50 C-370.36 50.33 -367.72 50.66 -365 51 C-365 51.66 -365 52.32 -365 53 C-363.35 53 -361.7 53 -360 53 C-360 53.66 -360 54.32 -360 55 C-359.484375 55.103125 -358.96875 55.20625 -358.4375 55.3125 C-355.13973565 56.24263866 -352.13366668 57.61395512 -349 59 C-349 59.66 -349 60.32 -349 61 C-348.34 61 -347.68 61 -347 61 C-347 61.99 -347 62.98 -347 64 C-346.01 64 -345.02 64 -344 64 C-344 64.66 -344 65.32 -344 66 C-343.34 66 -342.68 66 -342 66 C-341.505 66.99 -341.505 66.99 -341 68 C-339.35965807 68.72904086 -337.68698082 69.38655243 -336 70 C-331.11111111 71.77777778 -331.11111111 71.77777778 -330 74 C-327.34243936 75.74839516 -325.02617555 76.99127482 -322 78 C-322 78.66 -322 79.32 -322 80 C-321.01 80 -320.02 80 -319 80 C-319 80.66 -319 81.32 -319 82 C-315.535 82.495 -315.535 82.495 -312 83 C-312 83.66 -312 84.32 -312 85 C-309.03 85.33 -306.06 85.66 -303 86 C-303 86.66 -303 87.32 -303 88 C-298.71 88 -294.42 88 -290 88 C-290 88.66 -290 89.32 -290 90 C-289.34 89.67 -288.68 89.34 -288 89 C-286.00039988 88.960008 -283.99952758 88.95653201 -282 89 C-282 89.66 -282 90.32 -282 91 C-279.36 91 -276.72 91 -274 91 C-274 91.66 -274 92.32 -274 93 C-270.37 93.33 -266.74 93.66 -263 94 C-263 94.66 -263 95.32 -263 96 C-262.05125 95.979375 -261.1025 95.95875 -260.125 95.9375 C-257 96 -257 96 -255 97 C-252.97967529 97.04533688 -250.95796597 97.03853094 -248.9375 97 C-246.95869142 96.96235323 -244.97861741 96.95337573 -243 97 C-242.505 97.495 -242.505 97.495 -242 98 C-239.11747355 98.16023562 -236.25621473 98.25954029 -233.37109375 98.31640625 C-232.50686295 98.33718735 -231.64263214 98.35796844 -230.75221252 98.37937927 C-227.98072555 98.44497114 -225.20914079 98.50380418 -222.4375 98.5625 C-220.56314077 98.60567608 -218.68879157 98.64929006 -216.81445312 98.69335938 C-212.20973664 98.80066227 -207.60492142 98.90190215 -203 99 C-203 98.34 -203 97.68 -203 97 C-201.700625 97.020625 -200.40125 97.04125 -199.0625 97.0625 C-197.70834367 97.08399454 -196.35243917 97.07148199 -195 97 C-194.67 96.67 -194.34 96.34 -194 96 C-191.32941149 95.85884839 -188.67567762 95.95752893 -186 96 C-186 95.34 -186 94.68 -186 94 C-183.69 93.67 -181.38 93.34 -179 93 C-179 92.34 -179 91.68 -179 91 C-176.09451118 88.95830515 -174.59857954 88 -171 88 C-171 87.34 -171 86.68 -171 86 C-168.36107824 84.21694476 -166.02821137 83.00940379 -163 82 C-162.505 80.515 -162.505 80.515 -162 79 C-161.34 79 -160.68 79 -160 79 C-159.938125 78.38125 -159.87625 77.7625 -159.8125 77.125 C-159.4103125 76.073125 -159.4103125 76.073125 -159 75 C-157.34561387 74.30341637 -155.67745682 73.63903117 -154 73 C-152.99357052 71.67151309 -151.99307821 70.33849671 -151 69 C-148.875 68.375 -148.875 68.375 -147 68 C-146.67 67.34 -146.34 66.68 -146 66 C-145.34 66 -144.68 66 -144 66 C-143.731875 65.401875 -143.46375 64.80375 -143.1875 64.1875 C-140.64177086 59.49799895 -137.99423153 58.62855376 -133 57 C-132.505 56.01 -132.505 56.01 -132 55 C-130.68 55 -129.36 55 -128 55 C-127.67 54.01 -127.34 53.02 -127 52 C-126.34 52 -125.68 52 -125 52 C-124.5978125 51.0409375 -124.5978125 51.0409375 -124.1875 50.0625 C-123 48 -123 48 -120 47 C-119.67 46.01 -119.34 45.02 -119 44 C-118.34 44 -117.68 44 -117 44 C-117 43.34 -117 42.68 -117 42 C-116.01 41.67 -115.02 41.34 -114 41 C-113.505 40.01 -113.505 40.01 -113 39 C-111.68 39 -110.36 39 -109 39 C-109 38.34 -109 37.68 -109 37 C-108.01 36.67 -107.02 36.34 -106 36 C-105.505 35.01 -105.505 35.01 -105 34 C-103.66666667 33.66666667 -102.33333333 33.33333333 -101 33 C-100.505 32.01 -100.505 32.01 -100 31 C-99.01 31 -98.02 31 -97 31 C-97 30.34 -97 29.68 -97 29 C-93.535 28.505 -93.535 28.505 -90 28 C-90 27.34 -90 26.68 -90 26 C-89.01 26 -88.02 26 -87 26 C-87 25.34 -87 24.68 -87 24 C-84.03 23.67 -81.06 23.34 -78 23 C-78 22.34 -78 21.68 -78 21 C-75.36 20.67 -72.72 20.34 -70 20 C-70 19.34 -70 18.68 -70 18 C-66.7 18 -63.4 18 -60 18 C-59.67 17.34 -59.34 16.68 -59 16 C-58.34 16.33 -57.68 16.66 -57 17 C-57 16.34 -57 15.68 -57 15 C-55.35 15 -53.7 15 -52 15 C-52 14.34 -52 13.68 -52 13 C-49.03 12.505 -49.03 12.505 -46 12 C-46 11.34 -46 10.68 -46 10 C-41.71 9.67 -37.42 9.34 -33 9 C-33 8.34 -33 7.68 -33 7 C-31.02 7 -29.04 7 -27 7 C-27 6.34 -27 5.68 -27 5 C-26.030625 5.020625 -25.06125 5.04125 -24.0625 5.0625 C-21.12534105 5.35618499 -21.12534105 5.35618499 -20 4 C-17.66702567 3.95907063 -15.33294775 3.95758277 -13 4 C-13 3.34 -13 2.68 -13 2 C-8.71 2 -4.42 2 0 2 C0 1.34 0 0.68 0 0 Z " fill="#121212" transform="translate(2810,0)"/>
</svg>
