<?xml version="1.0" encoding="UTF-8"?>
<svg version="1.1" xmlns="http://www.w3.org/2000/svg" width="3000" height="1317">
<path d="M0 0 C25.41 0 50.82 0 77 0 C77 0.66 77 1.32 77 2 C78.98 2 80.96 2 83 2 C83 2.66 83 3.32 83 4 C83.99 4 84.98 4 86 4 C86 4.66 86 5.32 86 6 C86.99 6.33 87.98 6.66 89 7 C89 7.66 89 8.32 89 9 C90.32 9 91.64 9 93 9 C93.33 9.66 93.66 10.32 94 11 C95.64556566 12.03435556 97.3170608 13.02763513 99 14 C101.04049422 15.2704964 103.05017465 16.59431196 105 18 C105 18.66 105 19.32 105 20 C105.66 20 106.32 20 107 20 C108.625 21.375 108.625 21.375 110 23 C110 23.66 110 24.32 110 25 C110.7528125 25.08765625 111.505625 25.1753125 112.28125 25.265625 C115.5249975 26.14180967 116.4318055 27.15500124 118.5 29.75 C119.39138672 30.82701172 119.39138672 30.82701172 120.30078125 31.92578125 C121.14189453 32.95251953 121.14189453 32.95251953 122 34 C125.76665524 38.31375931 125.76665524 38.31375931 131 40 C131.103125 40.639375 131.20625 41.27875 131.3125 41.9375 C131.539375 42.618125 131.76625 43.29875 132 44 C132.99 44.33 133.98 44.66 135 45 C135 45.66 135 46.32 135 47 C135.66 47 136.32 47 137 47 C137 47.66 137 48.32 137 49 C137.99 49.33 138.98 49.66 140 50 C140 50.66 140 51.32 140 52 C141.051875 52.0309375 141.051875 52.0309375 142.125 52.0625 C145.81297584 53.26510082 147.01876672 55.11444279 149.38671875 58.08203125 C152.63311137 61.94154403 156.18432538 65.39477513 161 67 C162.02019573 67.9793879 163.02149805 68.97895449 164 70 C164.66 70.33 165.32 70.66 166 71 C166.33 71.99 166.66 72.98 167 74 C167.99 74.33 168.98 74.66 170 75 C170 75.66 170 76.32 170 77 C170.66 77 171.32 77 172 77 C172 77.66 172 78.32 172 79 C172.99 79.33 173.98 79.66 175 80 C175 80.66 175 81.32 175 82 C175.66 82 176.32 82 177 82 C177.33 82.66 177.66 83.32 178 84 C179.88013106 85.12224855 179.88013106 85.12224855 182.0625 86.125 C182.79597656 86.47820312 183.52945312 86.83140625 184.28515625 87.1953125 C185.13400391 87.59363281 185.13400391 87.59363281 186 88 C186 88.66 186 89.32 186 90 C186.99 90.33 187.98 90.66 189 91 C189 91.66 189 92.32 189 93 C190.093125 93.103125 191.18625 93.20625 192.3125 93.3125 C196.12286654 94.02290732 196.61737092 94.29246695 199 97 C201.59915538 98.19027984 201.59915538 98.19027984 204 99 C204 99.66 204 100.32 204 101 C205.98 101.33 207.96 101.66 210 102 C210 102.66 210 103.32 210 104 C210.99 104 211.98 104 213 104 C213 104.66 213 105.32 213 106 C214.65 106.33 216.3 106.66 218 107 C218 107.66 218 108.32 218 109 C218.804375 109.12375 219.60875 109.2475 220.4375 109.375 C221.283125 109.58125 222.12875 109.7875 223 110 C223.33 110.66 223.66 111.32 224 112 C225.155 112.495 226.31 112.99 227.5 113.5 C231 115 231 115 232 117 C232.99 117.33 233.98 117.66 235 118 C235 118.66 235 119.32 235 120 C236.65 120.33 238.3 120.66 240 121 C240 121.66 240 122.32 240 123 C240.598125 123.103125 241.19625 123.20625 241.8125 123.3125 C244 124 244 124 245.375 125.4375 C246.99736589 127.24294205 246.99736589 127.24294205 249.875 127.8125 C253.88198722 129.33515514 255.28738172 131.74485807 258 135 C261.15501165 136.41590372 261.15501165 136.41590372 264 137 C264 137.66 264 138.32 264 139 C264.66 139 265.32 139 266 139 C266.33 139.66 266.66 140.32 267 141 C267.99 141.33 268.98 141.66 270 142 C270 142.66 270 143.32 270 144 C271.65 144.33 273.3 144.66 275 145 C275 145.66 275 146.32 275 147 C275.8353125 147.1546875 275.8353125 147.1546875 276.6875 147.3125 C279.43541044 148.12944635 281.55594668 149.52070457 284 151 C284.66 151 285.32 151 286 151 C286 151.66 286 152.32 286 153 C286.99 153 287.98 153 289 153 C289 153.66 289 154.32 289 155 C292.96 155.495 292.96 155.495 297 156 C297 156.66 297 157.32 297 158 C298.32 158 299.64 158 301 158 C301.33 158.66 301.66 159.32 302 160 C305.78468721 161.54828113 308.91781703 162.24012841 313 162 C313 162.66 313 163.32 313 164 C316.63 163.67 320.26 163.34 324 163 C324.33 161.68 324.66 160.36 325 159 C325.65509503 156.99617991 326.31974363 154.99541868 327 153 C327.66 153 328.32 153 329 153 C329.33 150.03 329.66 147.06 330 144 C330.66 144 331.32 144 332 144 C332.04898437 143.39671875 332.09796875 142.7934375 332.1484375 142.171875 C332.26058594 140.97304688 332.26058594 140.97304688 332.375 139.75 C332.47941406 138.56664062 332.47941406 138.56664062 332.5859375 137.359375 C333.01507113 134.914123 333.78600638 133.15163097 335 131 C335.66 131 336.32 131 337 131 C337.09087891 129.71802734 337.09087891 129.71802734 337.18359375 128.41015625 C337.30927734 126.75306641 337.30927734 126.75306641 337.4375 125.0625 C337.51871094 123.96035156 337.59992188 122.85820313 337.68359375 121.72265625 C338 119 338 119 339 118 C339.22623521 116.51562191 339.39412965 115.02222575 339.53515625 113.52734375 C339.62216797 112.62822266 339.70917969 111.72910156 339.79882812 110.80273438 C339.88583984 109.85720703 339.97285156 108.91167969 340.0625 107.9375 C340.15337891 106.98810547 340.24425781 106.03871094 340.33789062 105.06054688 C340.56256498 102.70737865 340.78308182 100.35389381 341 98 C341.66 98 342.32 98 343 98 C343.73989213 95.09375703 344.41650906 92.17849225 345.0625 89.25 C345.23910156 88.45078125 345.41570312 87.6515625 345.59765625 86.828125 C345.79681641 85.92320313 345.79681641 85.92320313 346 85 C346.66 85 347.32 85 348 85 C348.02578125 84.37351562 348.0515625 83.74703125 348.078125 83.1015625 C348.13484375 82.28429687 348.1915625 81.46703125 348.25 80.625 C348.31960938 79.40683594 348.31960938 79.40683594 348.390625 78.1640625 C349 76 349 76 351 74.875 C351.66 74.58625 352.32 74.2975 353 74 C353.81171228 71.44480079 353.81171228 71.44480079 354 69 C354.66 69 355.32 69 356 69 C356.33 67.02 356.66 65.04 357 63 C357.66 63 358.32 63 359 63 C359.33 62.01 359.66 61.02 360 60 C360.66 60 361.32 60 362 60 C362.33 58.68 362.66 57.36 363 56 C364.32 55.67 365.64 55.34 367 55 C367.16653076 54.10220825 367.16653076 54.10220825 367.33642578 53.1862793 C368.42620824 49.59577088 371.24705896 47.36351068 373.875 44.8125 C374.68904297 43.99362305 374.68904297 43.99362305 375.51953125 43.15820312 C377.97512612 40.7356297 379.68666009 39.10444664 383 38 C383.33 37.34 383.66 36.68 384 36 C385.65532623 34.98133771 387.32260138 33.98189187 389 33 C389.66 32.34 390.32 31.68 391 31 C391.99 31 392.98 31 394 31 C394 30.34 394 29.68 394 29 C395.134375 28.54625 396.26875 28.0925 397.4375 27.625 C401.04721692 26.42904194 401.04721692 26.42904194 402 24 C405.0625 23.375 405.0625 23.375 408 23 C408 22.34 408 21.68 408 21 C409.65 20.67 411.3 20.34 413 20 C413 19.34 413 18.68 413 18 C413.99 18 414.98 18 416 18 C416 17.34 416 16.68 416 16 C417.65 16.33 419.3 16.66 421 17 C421.33 15.68 421.66 14.36 422 13 C429.425 12.505 429.425 12.505 437 12 C437 11.34 437 10.68 437 10 C443.87541196 8.94738529 450.61455009 8.85043447 457.5625 8.875 C459.20895508 8.86919922 459.20895508 8.86919922 460.88867188 8.86328125 C466.36527775 8.86988355 471.60694982 9.02507271 477 10 C477 10.66 477 11.32 477 12 C478.98 12.33 480.96 12.66 483 13 C483 13.66 483 14.32 483 15 C483.99 15 484.98 15 486 15 C486 15.66 486 16.32 486 17 C486.99 16.67 487.98 16.34 489 16 C489 16.66 489 17.32 489 18 C490.32 18 491.64 18 493 18 C493.33 18.66 493.66 19.32 494 20 C494.99 20.33 495.98 20.66 497 21 C497 21.66 497 22.32 497 23 C498.65 23.33 500.3 23.66 502 24 C502 24.66 502 25.32 502 26 C502.99 26 503.98 26 505 26 C505 26.66 505 27.32 505 28 C505.66 28 506.32 28 507 28 C508.33333333 29.33333333 509.66666667 30.66666667 511 32 C511.66 32 512.32 32 513 32 C513.45375 32.639375 513.9075 33.27875 514.375 33.9375 C516.21084873 36.2676157 517.12909413 36.60401298 520 37 C520.33 38.32 520.66 39.64 521 41 C525.84241633 42.33583899 529.93437617 43.25328119 535 43 C535 43.66 535 44.32 535 45 C536.65 45 538.3 45 540 45 C540 45.66 540 46.32 540 47 C543.465 47.495 543.465 47.495 547 48 C547 48.66 547 49.32 547 50 C548.3921875 49.9690625 548.3921875 49.9690625 549.8125 49.9375 C553 50 553 50 556 51 C556 51.66 556 52.32 556 53 C557.65 53 559.3 53 561 53 C561 53.66 561 54.32 561 55 C567.435 55.495 567.435 55.495 574 56 C574 56.66 574 57.32 574 58 C577.465 58.495 577.465 58.495 581 59 C581 59.66 581 60.32 581 61 C582.65 61 584.3 61 586 61 C586 61.66 586 62.32 586 63 C586.5775 62.79375 587.155 62.5875 587.75 62.375 C590.51967567 61.91338739 591.64561267 62.57055055 594 64 C594 64.66 594 65.32 594 66 C598.95 66.495 598.95 66.495 604 67 C604 67.66 604 68.32 604 69 C605.98 69.33 607.96 69.66 610 70 C610 70.66 610 71.32 610 72 C610.99 72 611.98 72 613 72 C613 72.66 613 73.32 613 74 C613.5775 74.0825 614.155 74.165 614.75 74.25 C617.61735579 75.20578526 618.91800845 76.85084743 621 79 C621.99 79.33 622.98 79.66 624 80 C624 80.66 624 81.32 624 82 C625.65 82.33 627.3 82.66 629 83 C629 83.66 629 84.32 629 85 C629.66 85 630.32 85 631 85 C631.33 85.66 631.66 86.32 632 87 C634.52733235 87.65555119 634.52733235 87.65555119 637 88 C637 88.66 637 89.32 637 90 C638.485 89.505 638.485 89.505 640 89 C640 89.66 640 90.32 640 91 C640.99 91 641.98 91 643 91 C643 91.66 643 92.32 643 93 C646.465 93.495 646.465 93.495 650 94 C650.33 95.32 650.66 96.64 651 98 C652.65 98.33 654.3 98.66 656 99 C656 99.66 656 100.32 656 101 C657.98 101.33 659.96 101.66 662 102 C662 102.66 662 103.32 662 104 C664.64 104.33 667.28 104.66 670 105 C670 105.66 670 106.32 670 107 C671.65 107 673.3 107 675 107 C675 107.66 675 108.32 675 109 C678.63 109.33 682.26 109.66 686 110 C686 110.66 686 111.32 686 112 C688.64 112.33 691.28 112.66 694 113 C694 113.66 694 114.32 694 115 C694.99 115 695.98 115 697 115 C697 115.66 697 116.32 697 117 C697.99 116.67 698.98 116.34 700 116 C702.6875 116.9375 702.6875 116.9375 705 118 C705 118.66 705 119.32 705 120 C707.64 120.33 710.28 120.66 713 121 C713 121.66 713 122.32 713 123 C713.71027344 122.98839844 714.42054688 122.97679688 715.15234375 122.96484375 C716.07144531 122.95582031 716.99054687 122.94679688 717.9375 122.9375 C718.85402344 122.92589844 719.77054688 122.91429688 720.71484375 122.90234375 C723 123 723 123 724 124 C726.33297433 124.04092937 728.66705225 124.04241723 731 124 C731 124.66 731 125.32 731 126 C733.64 126 736.28 126 739 126 C739 126.66 739 127.32 739 128 C745.27 128.33 751.54 128.66 758 129 C758 129.66 758 130.32 758 131 C759.794375 130.9690625 759.794375 130.9690625 761.625 130.9375 C765.18004869 130.93117429 768.50555624 131.30111125 772 132 C772 132.66 772 133.32 772 134 C774.64 134 777.28 134 780 134 C780.495 134.99 780.495 134.99 781 136 C783.52733235 136.65555119 783.52733235 136.65555119 786 137 C786 137.66 786 138.32 786 139 C788.64 139.33 791.28 139.66 794 140 C794 140.66 794 141.32 794 142 C796.475 142.495 796.475 142.495 799 143 C799 143.66 799 144.32 799 145 C799.99 145 800.98 145 802 145 C802 145.66 802 146.32 802 147 C805.3 147.33 808.6 147.66 812 148 C812 148.66 812 149.32 812 150 C813.0725 150.12375 814.145 150.2475 815.25 150.375 C818.37863615 150.89643936 820.33480424 151.40088254 823 153 C823 153.66 823 154.32 823 155 C826.63 155.33 830.26 155.66 834 156 C834 156.66 834 157.32 834 158 C851.16 158.33 868.32 158.66 886 159 C886 159.66 886 160.32 886 161 C887.96984108 160.99666908 887.96984108 160.99666908 889.97947693 160.99327087 C902.32601074 160.97304198 914.6725412 160.95802908 927.01908779 160.94818783 C933.36730576 160.94295836 939.7155104 160.93585956 946.0637207 160.92456055 C952.18448582 160.91373394 958.30523809 160.90772365 964.42601204 160.90512276 C966.76690943 160.9032681 969.10780609 160.89964671 971.44869804 160.89426994 C974.71508202 160.88706252 977.98141215 160.88600893 981.24780273 160.88647461 C982.71515114 160.8810817 982.71515114 160.8810817 984.21214294 160.87557983 C985.09700378 160.8769545 985.98186462 160.87832916 986.89353943 160.87974548 C987.66692374 160.87882369 988.44030806 160.8779019 989.23712826 160.87695217 C991 161 991 161 992 162 C993.32 162 994.64 162 996 162 C997.32 162 998.64 162 1000 162 C1000.33 162.33 1000.66 162.66 1001 163 C1003.32817964 163.36760731 1005.6618385 163.70241581 1008 164 C1008 164.66 1008 165.32 1008 166 C1010.64 166.33 1013.28 166.66 1016 167 C1016 167.66 1016 168.32 1016 169 C1017.7015625 168.9690625 1017.7015625 168.9690625 1019.4375 168.9375 C1023 169 1023 169 1024 170 C1025.66617115 170.04063832 1027.33388095 170.042721 1029 170 C1029 170.66 1029 171.32 1029 172 C1030.98 172 1032.96 172 1035 172 C1035 172.66 1035 173.32 1035 174 C1035.6290625 173.98839844 1036.258125 173.97679687 1036.90625 173.96484375 C1042.38069088 173.90713127 1047.58457806 174.19771527 1053 175 C1053 175.66 1053 176.32 1053 177 C1054.39025391 176.98259766 1054.39025391 176.98259766 1055.80859375 176.96484375 C1057.60490234 176.95130859 1057.60490234 176.95130859 1059.4375 176.9375 C1060.63246094 176.92589844 1061.82742187 176.91429687 1063.05859375 176.90234375 C1066 177 1066 177 1067 178 C1069.67058851 178.14115161 1072.32432238 178.04247107 1075 178 C1075 178.66 1075 179.32 1075 180 C1076.423125 179.9690625 1076.423125 179.9690625 1077.875 179.9375 C1081 180 1081 180 1083 181 C1086.64179234 181.80928719 1090.31856466 182.40069657 1094 183 C1094 183.66 1094 184.32 1094 185 C1095.2684375 184.98259766 1095.2684375 184.98259766 1096.5625 184.96484375 C1102.81560618 184.91510313 1108.82005931 185.03059754 1115 186 C1115 186.66 1115 187.32 1115 188 C1120.61 188 1126.22 188 1132 188 C1132 188.66 1132 189.32 1132 190 C1132.66 189.67 1133.32 189.34 1134 189 C1136.37402501 188.92883618 1138.75000677 188.91590915 1141.125 188.9375 C1142.40632813 188.94652344 1143.68765625 188.95554688 1145.0078125 188.96484375 C1146.48894531 188.98224609 1146.48894531 188.98224609 1148 189 C1148 189.66 1148 190.32 1148 191 C1154.27 191 1160.54 191 1167 191 C1167 191.66 1167 192.32 1167 193 C1167.92941406 192.98839844 1168.85882812 192.97679687 1169.81640625 192.96484375 C1182.09490334 192.87521968 1182.09490334 192.87521968 1188 194 C1188 194.66 1188 195.32 1188 196 C1189.39025391 195.98259766 1189.39025391 195.98259766 1190.80859375 195.96484375 C1192.60490234 195.95130859 1192.60490234 195.95130859 1194.4375 195.9375 C1195.63246094 195.92589844 1196.82742187 195.91429687 1198.05859375 195.90234375 C1201 196 1201 196 1202 197 C1203.99958364 197.04080783 1206.00045254 197.04254356 1208 197 C1208 197.66 1208 198.32 1208 199 C1210.31 199 1212.62 199 1215 199 C1215 199.66 1215 200.32 1215 201 C1217.97 201.33 1220.94 201.66 1224 202 C1224 202.66 1224 203.32 1224 204 C1226.64 204.33 1229.28 204.66 1232 205 C1232 205.66 1232 206.32 1232 207 C1234.64 207.33 1237.28 207.66 1240 208 C1240 208.66 1240 209.32 1240 210 C1242.31 210 1244.62 210 1247 210 C1247 210.66 1247 211.32 1247 212 C1249.31 212.33 1251.62 212.66 1254 213 C1254 213.66 1254 214.32 1254 215 C1255.65 215 1257.3 215 1259 215 C1259 215.66 1259 216.32 1259 217 C1259.99 216.67 1260.98 216.34 1262 216 C1262 216.66 1262 217.32 1262 218 C1263.32 218 1264.64 218 1266 218 C1266 218.66 1266 219.32 1266 220 C1268.97 220.33 1271.94 220.66 1275 221 C1275 221.66 1275 222.32 1275 223 C1277.64 223.33 1280.28 223.66 1283 224 C1283 224.66 1283 225.32 1283 226 C1283.99 226 1284.98 226 1286 226 C1286 226.66 1286 227.32 1286 228 C1288.31 228.33 1290.62 228.66 1293 229 C1293 229.66 1293 230.32 1293 231 C1295.97 231.33 1298.94 231.66 1302 232 C1302 232.66 1302 233.32 1302 234 C1302.804375 233.979375 1303.60875 233.95875 1304.4375 233.9375 C1307 234 1307 234 1308 235 C1310.33297433 235.04092937 1312.66705225 235.04241723 1315 235 C1315 235.66 1315 236.32 1315 237 C1317.64 237 1320.28 237 1323 237 C1323 237.66 1323 238.32 1323 239 C1323.64582031 238.98839844 1324.29164063 238.97679687 1324.95703125 238.96484375 C1334.66289057 238.87190118 1344.31523514 239.4326916 1354 240 C1354 240.66 1354 241.32 1354 242 C1354.62044189 241.99476318 1355.24088379 241.98952637 1355.88012695 241.98413086 C1358.69090767 241.96334534 1361.50167221 241.95033483 1364.3125 241.9375 C1365.77719727 241.92493164 1365.77719727 241.92493164 1367.27148438 241.91210938 C1368.67817383 241.90727539 1368.67817383 241.90727539 1370.11328125 241.90234375 C1371.40939331 241.89448853 1371.40939331 241.89448853 1372.73168945 241.88647461 C1375 242 1375 242 1378 243 C1378 243.66 1378 244.32 1378 245 C1381.3 245 1384.6 245 1388 245 C1388 245.66 1388 246.32 1388 247 C1451.36 247 1514.72 247 1580 247 C1580.33 245.68 1580.66 244.36 1581 243 C1583.475 242.505 1583.475 242.505 1586 242 C1586 241.34 1586 240.68 1586 240 C1588.64 239.67 1591.28 239.34 1594 239 C1594 238.34 1594 237.68 1594 237 C1594.804375 236.87625 1595.60875 236.7525 1596.4375 236.625 C1597.283125 236.41875 1598.12875 236.2125 1599 236 C1599.33 235.34 1599.66 234.68 1600 234 C1600.99 234 1601.98 234 1603 234 C1603 233.34 1603 232.68 1603 232 C1605.31 231.67 1607.62 231.34 1610 231 C1610 230.34 1610 229.68 1610 229 C1612.31 228.67 1614.62 228.34 1617 228 C1617 587.37 1617 946.74 1617 1317 C627 1317 -363 1317 -1383 1317 C-1383 975.12 -1383 633.24 -1383 281 C-1324 281 -1324 281 -1322 282 C-1322 281.34 -1322 280.68 -1322 280 C-1317.71 280 -1313.42 280 -1309 280 C-1309 279.34 -1309 278.68 -1309 278 C-1306.03 277.67 -1303.06 277.34 -1300 277 C-1300 276.34 -1300 275.68 -1300 275 C-1299.28972656 274.73445313 -1298.57945313 274.46890625 -1297.84765625 274.1953125 C-1296.46900391 273.66550781 -1296.46900391 273.66550781 -1295.0625 273.125 C-1294.14597656 272.77695312 -1293.22945312 272.42890625 -1292.28515625 272.0703125 C-1289.85058944 271.2180914 -1289.85058944 271.2180914 -1289 269 C-1284.5 266 -1284.5 266 -1282 266 C-1282 265.34 -1282 264.68 -1282 264 C-1281.01 263.67 -1280.02 263.34 -1279 263 C-1278.67 262.34 -1278.34 261.68 -1278 261 C-1276.66666667 260.66666667 -1275.33333333 260.33333333 -1274 260 C-1273.67 259.34 -1273.34 258.68 -1273 258 C-1272.34 258 -1271.68 258 -1271 258 C-1271 257.34 -1271 256.68 -1271 256 C-1270.31446045 255.59773193 -1269.6289209 255.19546387 -1268.92260742 254.78100586 C-1265.15724848 252.48643619 -1262.33357495 249.62000691 -1259.23828125 246.50390625 C-1258.60641403 245.87395248 -1257.97454681 245.24399872 -1257.3235321 244.59495544 C-1255.99407168 243.26685158 -1254.66711583 241.93623638 -1253.3425293 240.60327148 C-1251.31583353 238.56585117 -1249.2786719 236.53933693 -1247.24023438 234.51367188 C-1245.94727477 233.21939093 -1244.65493555 231.92448986 -1243.36328125 230.62890625 C-1242.45078362 229.72248131 -1242.45078362 229.72248131 -1241.51985168 228.79774475 C-1240.9555394 228.22712814 -1240.39122711 227.65651154 -1239.80981445 227.06860352 C-1239.31415482 226.57135269 -1238.81849518 226.07410187 -1238.30781555 225.56178284 C-1236.85038835 223.82133497 -1235.93900998 222.05962759 -1235 220 C-1234.34 220 -1233.68 220 -1233 220 C-1232.67 218.35 -1232.34 216.7 -1232 215 C-1231.360625 214.87625 -1230.72125 214.7525 -1230.0625 214.625 C-1229.381875 214.41875 -1228.70125 214.2125 -1228 214 C-1227.67 213.34 -1227.34 212.68 -1227 212 C-1226.34 212 -1225.68 212 -1225 212 C-1224.7525 211.38125 -1224.505 210.7625 -1224.25 210.125 C-1223 208 -1223 208 -1221.23828125 207.1875 C-1217.22003407 205.05565508 -1214.4315686 201.39952997 -1211.33984375 198.1171875 C-1209 196 -1209 196 -1206 196 C-1206 195.01 -1206 194.02 -1206 193 C-1205.01 193 -1204.02 193 -1203 193 C-1203 192.34 -1203 191.68 -1203 191 C-1201.35 190.67 -1199.7 190.34 -1198 190 C-1198 189.34 -1198 188.68 -1198 188 C-1197.01 188 -1196.02 188 -1195 188 C-1195 187.34 -1195 186.68 -1195 186 C-1193.02 185.67 -1191.04 185.34 -1189 185 C-1189 184.34 -1189 183.68 -1189 183 C-1187.39125 182.7834375 -1187.39125 182.7834375 -1185.75 182.5625 C-1182.21527402 182.10566824 -1182.21527402 182.10566824 -1179.6875 181.375 C-1178 181 -1178 181 -1176 182 C-1176 181.34 -1176 180.68 -1176 180 C-1174.02 180 -1172.04 180 -1170 180 C-1170 179.34 -1170 178.68 -1170 178 C-1166.37 177.67 -1162.74 177.34 -1159 177 C-1159 176.34 -1159 175.68 -1159 175 C-1155.7 174.67 -1152.4 174.34 -1149 174 C-1149 173.34 -1149 172.68 -1149 172 C-1146.36 172 -1143.72 172 -1141 172 C-1141 171.34 -1141 170.68 -1141 170 C-1139.71802734 170.01740234 -1139.71802734 170.01740234 -1138.41015625 170.03515625 C-1137.30542969 170.04417969 -1136.20070313 170.05320313 -1135.0625 170.0625 C-1133.40927734 170.07990234 -1133.40927734 170.07990234 -1131.72265625 170.09765625 C-1129.08552366 170.31262571 -1129.08552366 170.31262571 -1128 169 C-1126.58429877 168.91348389 -1125.164405 168.89295096 -1123.74609375 168.90234375 C-1122.46508789 168.90717773 -1122.46508789 168.90717773 -1121.15820312 168.91210938 C-1120.26037109 168.92048828 -1119.36253906 168.92886719 -1118.4375 168.9375 C-1117.53580078 168.94201172 -1116.63410156 168.94652344 -1115.70507812 168.95117188 C-1113.46998686 168.96299775 -1111.23502563 168.9794778 -1109 169 C-1109 168.34 -1109 167.68 -1109 167 C-1095.34628986 165.73827101 -1081.69966067 165.89882082 -1068 166 C-1068 165.34 -1068 164.68 -1068 164 C-1067.26885986 163.97494385 -1066.53771973 163.9498877 -1065.78442383 163.92407227 C-1062.46028583 163.80777359 -1059.13640759 163.68520072 -1055.8125 163.5625 C-1054.66201172 163.52318359 -1053.51152344 163.48386719 -1052.32617188 163.44335938 C-1050.65844727 163.38051758 -1050.65844727 163.38051758 -1048.95703125 163.31640625 C-1047.93585205 163.27974854 -1046.91467285 163.24309082 -1045.86254883 163.20532227 C-1043.00106554 163.06568691 -1043.00106554 163.06568691 -1040.25268555 162.41772461 C-1038 162 -1038 162 -1036 163 C-1036 162.34 -1036 161.68 -1036 161 C-1034.02 161 -1032.04 161 -1030 161 C-1030 160.34 -1030 159.68 -1030 159 C-1026.37 158.67 -1022.74 158.34 -1019 158 C-1019 157.34 -1019 156.68 -1019 156 C-1016.36 155.67 -1013.72 155.34 -1011 155 C-1011 154.34 -1011 153.68 -1011 153 C-1010.01 153 -1009.02 153 -1008 153 C-1008 152.34 -1008 151.68 -1008 151 C-1006.2984375 150.566875 -1006.2984375 150.566875 -1004.5625 150.125 C-1003.386875 149.75375 -1002.21125 149.3825 -1001 149 C-1000.67 148.34 -1000.34 147.68 -1000 147 C-999.34 147 -998.68 147 -998 147 C-998 146.34 -998 145.68 -998 145 C-997.01 145 -996.02 145 -995 145 C-995 144.34 -995 143.68 -995 143 C-993.35 142.67 -991.7 142.34 -990 142 C-990 141.34 -990 140.68 -990 140 C-989.01 139.67 -988.02 139.34 -987 139 C-986.67 138.34 -986.34 137.68 -986 137 C-984.66666667 136.66666667 -983.33333333 136.33333333 -982 136 C-981.67 135.34 -981.34 134.68 -981 134 C-980.01 134 -979.02 134 -978 134 C-978 133.34 -978 132.68 -978 132 C-977.360625 131.87625 -976.72125 131.7525 -976.0625 131.625 C-975.381875 131.41875 -974.70125 131.2125 -974 131 C-973.67 130.34 -973.34 129.68 -973 129 C-969.9375 128.375 -969.9375 128.375 -967 128 C-967 127.34 -967 126.68 -967 126 C-965.68 126 -964.36 126 -963 126 C-963 125.34 -963 124.68 -963 124 C-960.03 123.67 -957.06 123.34 -954 123 C-954 122.34 -954 121.68 -954 121 C-951.36 120.67 -948.72 120.34 -946 120 C-946 119.34 -946 118.68 -946 118 C-943.36 118 -940.72 118 -938 118 C-938 117.34 -938 116.68 -938 116 C-936.865625 116.020625 -935.73125 116.04125 -934.5625 116.0625 C-931.18424326 116.41577477 -931.18424326 116.41577477 -930 115 C-928.14712498 114.92773498 -926.29166122 114.9161878 -924.4375 114.9375 C-922.91962891 114.95103516 -922.91962891 114.95103516 -921.37109375 114.96484375 C-920.58863281 114.97644531 -919.80617188 114.98804687 -919 115 C-919 114.34 -919 113.68 -919 113 C-915.37 112.67 -911.74 112.34 -908 112 C-908 111.34 -908 110.68 -908 110 C-904.32612505 109.14701624 -900.9552607 108.89210529 -897.1875 108.9375 C-895.72376953 108.95103516 -895.72376953 108.95103516 -894.23046875 108.96484375 C-893.49441406 108.97644531 -892.75835938 108.98804687 -892 109 C-892 108.34 -892 107.68 -892 107 C-889.96040523 106.49161436 -887.91820862 105.99366114 -885.875 105.5 C-884.73804688 105.2215625 -883.60109375 104.943125 -882.4296875 104.65625 C-879.18533302 104.03546235 -876.29185543 103.87993232 -873 104 C-873 103.34 -873 102.68 -873 102 C-868.71 101.67 -864.42 101.34 -860 101 C-860 100.34 -860 99.68 -860 99 C-858.02 99 -856.04 99 -854 99 C-854 98.34 -854 97.68 -854 97 C-853.01 97.061875 -852.02 97.12375 -851 97.1875 C-848.05457589 97.1992817 -845.95320663 96.71303836 -843.25 95.5625 C-838.31294853 93.50215569 -833.29467855 93.28225308 -828 93 C-828 92.34 -828 91.68 -828 91 C-827.01 91 -826.02 91 -825 91 C-825 90.34 -825 89.68 -825 89 C-821.37 88.67 -817.74 88.34 -814 88 C-814 87.34 -814 86.68 -814 86 C-806.57142857 82.71428571 -806.57142857 82.71428571 -803 82 C-803 81.34 -803 80.68 -803 80 C-801.35 80 -799.7 80 -798 80 C-798 79.34 -798 78.68 -798 78 C-795.36 77.67 -792.72 77.34 -790 77 C-790 76.34 -790 75.68 -790 75 C-785.23692563 74.04738513 -780.8333472 73.91666643 -776 74 C-776 73.34 -776 72.68 -776 72 C-775.36191406 71.93941406 -774.72382812 71.87882812 -774.06640625 71.81640625 C-773.24011719 71.73261719 -772.41382813 71.64882812 -771.5625 71.5625 C-770.73878906 71.48128906 -769.91507813 71.40007812 -769.06640625 71.31640625 C-767.01337975 71.21069185 -767.01337975 71.21069185 -766 70 C-762.57039331 69.93983146 -759.15548417 69.98014632 -755.7265625 70.0390625 C-753.81777587 70.05973528 -751.90860488 70.0334843 -750 70 C-749.67 69.67 -749.34 69.34 -749 69 C-747.43827255 68.91314397 -745.87270656 68.89297781 -744.30859375 68.90234375 C-743.36435547 68.90556641 -742.42011719 68.90878906 -741.44726562 68.91210938 C-740.45404297 68.92048828 -739.46082031 68.92886719 -738.4375 68.9375 C-737.44041016 68.94201172 -736.44332031 68.94652344 -735.41601562 68.95117188 C-732.94395151 68.96299993 -730.47200482 68.97948151 -728 69 C-728 68.34 -728 67.68 -728 67 C-720.08 67 -712.16 67 -704 67 C-704 67.66 -704 68.32 -704 69 C-702.700625 68.979375 -701.40125 68.95875 -700.0625 68.9375 C-698.70834367 68.91600546 -697.35243917 68.92851801 -696 69 C-695.67 69.33 -695.34 69.66 -695 70 C-694.0925 69.979375 -693.185 69.95875 -692.25 69.9375 C-688.96628031 70.00064846 -686.94143216 70.61579663 -684 72 C-684 72.66 -684 73.32 -684 74 C-679.05 74.33 -674.1 74.66 -669 75 C-669 75.66 -669 76.32 -669 77 C-668.15695312 76.98839844 -667.31390625 76.97679688 -666.4453125 76.96484375 C-665.34960938 76.95582031 -664.25390625 76.94679688 -663.125 76.9375 C-661.48917969 76.92009766 -661.48917969 76.92009766 -659.8203125 76.90234375 C-657 77 -657 77 -655 78 C-653.61090696 78.08918777 -652.21763093 78.11759541 -650.82568359 78.11352539 C-649.96494232 78.11344986 -649.10420105 78.11337433 -648.21737671 78.11329651 C-646.8220018 78.10555458 -646.8220018 78.10555458 -645.3984375 78.09765625 C-644.44683746 78.0962413 -643.49523743 78.09482635 -642.51480103 78.09336853 C-639.46816903 78.08776012 -636.42160987 78.07520619 -633.375 78.0625 C-631.31250106 78.05748608 -629.25000097 78.05292299 -627.1875 78.04882812 C-622.12497183 78.03778796 -617.06249827 78.02051767 -612 78 C-612 78.66 -612 79.32 -612 80 C-604.41 80 -596.82 80 -589 80 C-589 79.34 -589 78.68 -589 78 C-588.030625 78.020625 -587.06125 78.04125 -586.0625 78.0625 C-583.12534105 78.35618499 -583.12534105 78.35618499 -582 77 C-580.48071962 76.92820036 -578.95832518 76.91607993 -577.4375 76.9375 C-576.19806641 76.95103516 -576.19806641 76.95103516 -574.93359375 76.96484375 C-573.97646484 76.98224609 -573.97646484 76.98224609 -573 77 C-573 76.34 -573 75.68 -573 75 C-565.59780227 74.21334934 -558.29721785 73.85137199 -550.85546875 73.8671875 C-549.33533928 73.86575241 -549.33533928 73.86575241 -547.78450012 73.86428833 C-545.66272926 73.86361327 -543.54095625 73.86542002 -541.41918945 73.86962891 C-538.17850122 73.87501496 -534.93794979 73.86964657 -531.69726562 73.86328125 C-529.6249997 73.86394161 -527.55273385 73.86522189 -525.48046875 73.8671875 C-524.51787643 73.86516327 -523.55528412 73.86313904 -522.56352234 73.86105347 C-517.92795649 73.87719906 -513.55990797 74.04386729 -509 75 C-509 75.66 -509 76.32 -509 77 C-508.01257813 77.03738281 -507.02515625 77.07476562 -506.0078125 77.11328125 C-504.72648438 77.17902344 -503.44515625 77.24476562 -502.125 77.3125 C-500.84882812 77.37050781 -499.57265625 77.42851563 -498.2578125 77.48828125 C-497.18273437 77.65714844 -496.10765625 77.82601562 -495 78 C-494.34 78.99 -493.68 79.98 -493 81 C-489.94570927 82.21284876 -489.94570927 82.21284876 -487 83 C-487 83.66 -487 84.32 -487 85 C-484.525 85.495 -484.525 85.495 -482 86 C-482 86.66 -482 87.32 -482 88 C-481.01 88 -480.02 88 -479 88 C-479 88.66 -479 89.32 -479 90 C-478.01 90.33 -477.02 90.66 -476 91 C-476 91.66 -476 92.32 -476 93 C-475.34 93 -474.68 93 -474 93 C-473.67 93.66 -473.34 94.32 -473 95 C-472.34 95.165 -471.68 95.33 -471 95.5 C-470.34 95.665 -469.68 95.83 -469 96 C-468.67 96.66 -468.34 97.32 -468 98 C-467.01 98.33 -466.02 98.66 -465 99 C-465 99.66 -465 100.32 -465 101 C-462.525 101.495 -462.525 101.495 -460 102 C-460 102.66 -460 103.32 -460 104 C-459.34 104 -458.68 104 -458 104 C-456.375 105.375 -456.375 105.375 -455 107 C-455 107.66 -455 108.32 -455 109 C-454.34 109 -453.68 109 -453 109 C-452.1028125 110.175625 -452.1028125 110.175625 -451.1875 111.375 C-448.87559356 114.14928773 -447.39491889 114.96266367 -444 116 C-444 116.66 -444 117.32 -444 118 C-443.01 118 -442.02 118 -441 118 C-441 118.66 -441 119.32 -441 120 C-436.71 120.33 -432.42 120.66 -428 121 C-428 121.66 -428 122.32 -428 123 C-426.25093341 123.19601608 -424.50068154 123.38147403 -422.75 123.5625 C-421.77546875 123.66691406 -420.8009375 123.77132812 -419.796875 123.87890625 C-417.20255772 123.99123004 -415.40200229 123.96080092 -413 123 C-411.70339566 120.50965614 -411.70339566 120.50965614 -411 118 C-410.01 118 -409.02 118 -408 118 C-408 117.34 -408 116.68 -408 116 C-405.69 115.67 -403.38 115.34 -401 115 C-401 114.34 -401 113.68 -401 113 C-394.6381142 110.23918163 -388.90767437 109.36823999 -382 109 C-382 108.34 -382 107.68 -382 107 C-381.01 107 -380.02 107 -379 107 C-379 106.34 -379 105.68 -379 105 C-376.03 104.505 -376.03 104.505 -373 104 C-373 103.34 -373 102.68 -373 102 C-370.03 101.505 -370.03 101.505 -367 101 C-367 100.34 -367 99.68 -367 99 C-365.68 99 -364.36 99 -363 99 C-363 98.34 -363 97.68 -363 97 C-360.03 96.505 -360.03 96.505 -357 96 C-357 95.34 -357 94.68 -357 94 C-354.03 93.505 -354.03 93.505 -351 93 C-351 92.34 -351 91.68 -351 91 C-348.69 91 -346.38 91 -344 91 C-344 90.34 -344 89.68 -344 89 C-342.7934375 89.0309375 -342.7934375 89.0309375 -341.5625 89.0625 C-339.06645115 89.29633621 -339.06645115 89.29633621 -338 88 C-335.32941149 87.85884839 -332.67567762 87.95752893 -330 88 C-330 87.34 -330 86.68 -330 86 C-319.605 85.505 -319.605 85.505 -309 85 C-309 84.34 -309 83.68 -309 83 C-297.98080785 82.23629361 -287.04528196 81.86620789 -276 82 C-276 81.34 -276 80.68 -276 80 C-274.02 80 -272.04 80 -270 80 C-270 79.34 -270 78.68 -270 78 C-266.7 77.67 -263.4 77.34 -260 77 C-260 76.34 -260 75.68 -260 75 C-258.35 74.67 -256.7 74.34 -255 74 C-255 73.34 -255 72.68 -255 72 C-254.01 72 -253.02 72 -252 72 C-252 71.34 -252 70.68 -252 70 C-249.03 69.505 -249.03 69.505 -246 69 C-246 68.34 -246 67.68 -246 67 C-245.195625 66.87625 -244.39125 66.7525 -243.5625 66.625 C-242.716875 66.41875 -241.87125 66.2125 -241 66 C-240.67 65.34 -240.34 64.68 -240 64 C-238.68 64 -237.36 64 -236 64 C-235.67 63.34 -235.34 62.68 -235 62 C-234.34 62.33 -233.68 62.66 -233 63 C-232.67 61.68 -232.34 60.36 -232 59 C-229.69 58.67 -227.38 58.34 -225 58 C-225 57.34 -225 56.68 -225 56 C-223.35 55.67 -221.7 55.34 -220 55 C-220 54.34 -220 53.68 -220 53 C-219.01 53 -218.02 53 -217 53 C-217 52.34 -217 51.68 -217 51 C-214.03 50.505 -214.03 50.505 -211 50 C-211 49.34 -211 48.68 -211 48 C-208.36 47.67 -205.72 47.34 -203 47 C-203 46.34 -203 45.68 -203 45 C-201.35 45 -199.7 45 -198 45 C-198 44.34 -198 43.68 -198 43 C-192.25 42.875 -192.25 42.875 -190 44 C-190 43.34 -190 42.68 -190 42 C-186.04 42 -182.08 42 -178 42 C-178 41.34 -178 40.68 -178 40 C-171.51202573 39.85463479 -165.02398356 39.7126307 -158.53588867 39.57275391 C-156.33763031 39.52499007 -154.13938735 39.47651067 -151.94116211 39.42724609 C-138.29154352 39.12191338 -124.65313795 38.92662343 -111 39 C-111 38.34 -111 37.68 -111 37 C-99.31068812 36.09710143 -87.72024504 35.88534543 -76 36 C-76 35.34 -76 34.68 -76 34 C-74.35 34 -72.7 34 -71 34 C-71 33.34 -71 32.68 -71 32 C-68.36 31.67 -65.72 31.34 -63 31 C-63 30.34 -63 29.68 -63 29 C-60.36 28.67 -57.72 28.34 -55 28 C-55 27.34 -55 26.68 -55 26 C-54.01 25.67 -53.02 25.34 -52 25 C-51.67 24.34 -51.34 23.68 -51 23 C-49.68 23 -48.36 23 -47 23 C-47 22.34 -47 21.68 -47 21 C-45.02 20.67 -43.04 20.34 -41 20 C-41 19.34 -41 18.68 -41 18 C-40.01 18 -39.02 18 -38 18 C-38 17.34 -38 16.68 -38 16 C-37.0409375 15.814375 -37.0409375 15.814375 -36.0625 15.625 C-35.381875 15.41875 -34.70125 15.2125 -34 15 C-33.67 14.34 -33.34 13.68 -33 13 C-29.9375 12.375 -29.9375 12.375 -27 12 C-27 11.34 -27 10.68 -27 10 C-24.69 9.67 -22.38 9.34 -20 9 C-20 8.34 -20 7.68 -20 7 C-19.01 7 -18.02 7 -17 7 C-17 6.34 -17 5.68 -17 5 C-14.36 4.67 -11.72 4.34 -9 4 C-9 3.34 -9 2.68 -9 2 C-6.03 2 -3.06 2 0 2 C0 1.34 0 0.68 0 0 Z " fill="#181818" transform="translate(1383,0)"/>
</svg>
